<?xml version="1.0" encoding="iso-8859-1"?>
<!-- Generator: Adobe Illustrator 22.0.1, SVG Export Plug-In . SVG Version: 6.00 Build 0)  -->
<svg version="1.1" id="Layer_1" xmlns="http://www.w3.org/2000/svg" xmlns:xlink="http://www.w3.org/1999/xlink" x="0px" y="0px"
	 viewBox="-121 -38 80.971 80.979" style="enable-background:new -121 -38 80.971 80.979;" xml:space="preserve">
<polygon style="fill:#0F7C10;" points="139.065,27.414 123.546,6.354 108.047,27.414 101.661,27.414 120.316,1.968 103.279,-21.159 
	109.664,-21.159 123.546,-2.298 137.431,-21.159 143.812,-21.159 126.788,1.964 145.445,27.414 "/>
<polygon style="fill:#0F7C10;" points="18.152,27.405 -0.523,1.964 16.513,-21.159 10.128,-21.159 -3.758,-2.294 -17.63,-21.159 
	-23.999,-21.159 -6.97,1.964 -25.645,27.405 -19.252,27.405 -3.749,6.354 11.762,27.405 "/>
<path style="fill:#0F7C10;" d="M53.655,3.801c-1.007-0.864-2.108-1.529-3.185-2.024c3.529-1.916,5.841-5.529,5.841-9.727
	c0-3.105-1.144-13.212-15.789-13.212H20.8v20.939h-6.569c-0.852,1.11-2.789,3.779-3.525,4.873H20.8v22.756l19.726,0.005
	c10.688,0,17.323-5.426,17.323-14.181C57.849,9.405,56.407,6.158,53.655,3.801 M26.254-16.095h14.271
	c3.862,0,10.335,0.965,10.335,7.72c0,5.109-3.771,8.152-10.335,8.152H26.254V-16.095z M40.522,22.343H26.249V4.661h14.272
	c5.412,0,11.886,1.497,11.886,8.461C52.408,21.141,44.961,22.343,40.522,22.343"/>
<path style="fill:#0F7C10;" d="M83.507-22.281c-13.644,0-23.181,10.435-23.181,25.376c0,14.966,9.537,25.392,23.181,25.392
	c13.632,0,23.14-10.426,23.14-25.392C106.647-11.846,97.139-22.281,83.507-22.281 M83.507,23.349
	c-10.397,0-17.681-8.331-17.681-20.254c0-11.919,7.283-20.246,17.681-20.246c10.377,0,17.618,8.327,17.618,20.246
	C101.125,15.018,93.884,23.349,83.507,23.349"/>
<path style="fill:#0F7C10;" d="M-108.919-26.359c-0.029,0.024-0.042,0.041-0.038,0.037v0.004C-116.389-18.98-121-8.791-121,2.488
	c0,9.221,3.085,17.718,8.273,24.523c0.058,0.07,0.141,0.108,0.22,0.07c0.071-0.045,0.075-0.133,0.046-0.207
	c-3.089-9.545,12.688-32.681,20.84-42.375c0.029-0.037,0.062-0.075,0.062-0.121c0-0.054-0.037-0.1-0.079-0.133
	c-13.71-13.648-17.374-10.525-17.319-10.567"/>
<path style="fill:#0F7C10;" d="M-52.106-26.359c0.029,0.024,0.037,0.041,0.037,0.037v0.004c7.434,7.338,12.04,17.527,12.04,28.806
	c0,9.221-3.085,17.718-8.273,24.523c-0.054,0.07-0.141,0.108-0.22,0.07c-0.066-0.045-0.071-0.133-0.046-0.207
	c3.089-9.545-12.676-32.697-20.823-42.396c-0.029-0.038-0.063-0.075-0.063-0.116c0-0.059,0.037-0.104,0.079-0.138
	c13.714-13.649,17.352-10.505,17.302-10.547"/>
<path style="fill:#0F7C10;" d="M-80.512-38c8.169,0,14.892,2.236,21.09,5.924c0.074,0.038,0.096,0.125,0.066,0.2
	c-0.029,0.075-0.112,0.091-0.195,0.071c-7.836-1.696-19.751,5.076-20.878,5.754c-0.025,0.017-0.05,0.033-0.083,0.033
	c-0.037,0-0.063-0.017-0.087-0.033c-2.989-1.717-14.001-7.487-20.94-5.712c-0.075,0.017-0.158,0.004-0.195-0.071
	c-0.029-0.075-0.004-0.158,0.071-0.204C-95.466-35.763-88.66-38-80.512-38"/>
<path style="fill:#0F7C10;" d="M-80.512-5.528c0.046,0,0.1,0.038,0.129,0.063c12.114,9.213,32.851,31.99,26.52,38.43l0.008-0.008
	c-0.004,0.004-0.004,0.008-0.004,0.008h-0.009c-7.117,6.231-16.438,10.015-26.647,10.015c-10.21,0-19.531-3.783-26.652-10.015l0,0
	c0,0-0.004-0.004-0.008-0.008l0.008,0.008c-6.319-6.439,14.413-29.217,26.515-38.43C-80.62-5.49-80.562-5.528-80.512-5.528"/>
<polygon style="fill:#0F7C10;" points="239.699,-21.159 239.699,18.696 210.34,-21.188 205.527,-21.196 205.527,27.331 
	210.931,27.331 210.931,-11.647 239.691,27.361 245.112,27.368 245.112,-21.159 "/>
<path style="fill:#0F7C10;" d="M177.456-22.29c-13.644,0-23.181,10.439-23.181,25.376c0,14.966,9.537,25.409,23.181,25.409
	c13.632,0,23.143-10.443,23.143-25.409C200.6-11.846,191.088-22.29,177.456-22.29 M177.456,23.349
	c-10.393,0-17.676-8.331-17.676-20.263c0-11.915,7.283-20.246,17.676-20.246c10.381,0,17.623,8.331,17.623,20.246
	C195.079,15.018,187.837,23.349,177.456,23.349"/>
<polygon style="fill:#0F7C10;" points="256.618,22.621 256.618,4.661 283.337,4.661 283.337,-0.086 256.618,-0.086 256.618,-16.449 
	285.154,-16.449 285.154,-21.192 251.181,-21.192 251.181,27.368 285.487,27.368 285.487,22.621 "/>
</svg>
