<?xml version="1.0" encoding="utf-8"?>
<!-- Generator: Adobe Illustrator 22.0.1, SVG Export Plug-In . SVG Version: 6.00 Build 0)  -->
<svg version="1.1" xmlns="http://www.w3.org/2000/svg" xmlns:xlink="http://www.w3.org/1999/xlink" x="0px" y="0px"
	 viewBox="0 0 369.1 370.1" style="enable-background:new 0 0 369.1 370.1;" xml:space="preserve">
<style type="text/css">
	.st0{display:none;}
	.st1{display:inline;stroke:#FFFFFF;stroke-miterlimit:10;}
	.st2{fill:none;stroke:#FFFFFF;stroke-miterlimit:10;}
</style>
<g id="Layer_2" class="st0">
	<rect x="-130.8" y="-102.4" class="st1" width="853" height="664"/>
</g>
<g id="Layer_1" class="st0">
	
		<image style="display:inline;overflow:visible;" width="512" height="512" xlink:href="contactPhone.png"  transform="matrix(0.7579 0 0 0.7579 -8.7583 -9.436)">
	</image>
</g>
<g id="Layer_3">
	<path class="st2" d="M232.2,262.6c-12.3-0.6-53.6-29-82-60c-24.5-26.7-41-44-41-67c0-15,43-42,42-54s-57.5-83.5-80-81
		c-25.2,2.8-60,43-67,59s-14,75.5,77,186c76.1,92.4,177.5,124,208,124c31.5,0,73-42,79-60s-57-87-79-89S249.9,263.5,232.2,262.6z"/>
</g>
</svg>
