<?xml version="1.0" encoding="utf-8"?>
<!-- Generator: Adobe Illustrator 22.0.1, SVG Export Plug-In . SVG Version: 6.00 Build 0)  -->
<svg version="1.1" xmlns="http://www.w3.org/2000/svg" xmlns:xlink="http://www.w3.org/1999/xlink" x="0px" y="0px"
	 viewBox="0 0 320 223" style="enable-background:new 0 0 320 223;" xml:space="preserve">
<style type="text/css">
	.st0{display:none;}
	.st1{display:inline;stroke:#FFFFFF;stroke-miterlimit:10;}
	.st2{fill:none;stroke:#FFFFFF;stroke-width:9;stroke-miterlimit:10;}
</style>
<g id="Layer_1" class="st0">
	<rect x="-96.5" y="-131.5" class="st1" width="508" height="500"/>
	
		<image style="display:inline;overflow:visible;" width="512" height="512" xlink:href="ContactEmail.png"  transform="matrix(0.75 0 0 0.75 -30.5 -73.5)">
	</image>
</g>
<g id="Layer_2">
	<path class="st2" d="M4.5,23.1v178c0,9.6,7.8,17.4,17.4,17.4h276.3c9.6,0,17.4-7.8,17.4-17.4v-178c0-10.3-8.3-18.6-18.6-18.6H23.1
		C12.8,4.5,4.5,12.8,4.5,23.1z"/>
	<line class="st2" x1="9.3" y1="213.1" x2="111" y2="100.3"/>
	<line class="st2" x1="311.6" y1="212.1" x2="213.9" y2="99"/>
	<path class="st2" d="M10.5,9.5c0,0,148.3,134.8,151,134.8S311.6,11.7,311.6,11.7"/>
</g>
</svg>
