<?xml version="1.0" encoding="utf-8"?>
<!-- Generator: Adobe Illustrator 22.0.1, SVG Export Plug-In . SVG Version: 6.00 Build 0)  -->
<svg version="1.1" xmlns="http://www.w3.org/2000/svg" xmlns:xlink="http://www.w3.org/1999/xlink" x="0px" y="0px"
	 viewBox="0 0 406 399" style="enable-background:new 0 0 406 399;" xml:space="preserve">
<style type="text/css">
	.st0{display:none;}
	.st1{display:inline;stroke:#FFFFFF;stroke-miterlimit:10;}
	.st2{fill:none;stroke:#FFFFFF;stroke-width:10;stroke-miterlimit:10;}
</style>
<g id="Layer_1" class="st0">
	<rect x="-45" y="-49" class="st1" width="500" height="500"/>
	
		<image style="overflow:visible;" width="512" height="512" xlink:href="linkedinOutline.png"  transform="matrix(0.8 0 0 0.8 0 -4)">
	</image>
</g>
<g id="Layer_2">
	<circle class="st2" cx="54.8" cy="54.8" r="49.8"/>
	<path class="st2" d="M86,394H25c-6.6,0-12-5.4-12-12V140c0-6.6,5.4-12,12-12h61c6.6,0,12,5.4,12,12v242C98,388.6,92.6,394,86,394z"
		/>
	<path class="st2" d="M215,394h-61c-6.6,0-12-5.4-12-12V140c0-6.6,5.4-12,12-12h61c6.6,0,12,5.4,12,12v19.8c0,1.8,2.2,2.3,3.3,0.8
		c11.3-13.9,27.7-33.2,77.7-32.6c97.3,1.3,93,72.8,93,72.8v185.8c0,4.1-3.3,7.4-7.4,7.4H329c-4,0-7.3-3.2-7.4-7.3l-2.5-151.4
		c-0.2-9.7-3.9-19.1-10.7-26.1c-6.6-6.8-16.4-13.4-29.5-13.3c-31,0.3-50.3,16.5-52,38.5V382C227,388.6,221.6,394,215,394z"/>
</g>
</svg>
