<?xml version="1.0" standalone="yes"?>
<svg xmlns="http://www.w3.org/2000/svg" width="200" height="200">
<path style="fill:#fefefe; stroke:none;" d="M0 0L0 200L200 200L200 0L0 0z"/>
<path style="fill:#fdb011; stroke:none;" d="M16 81C23.3963 78.6431 29.7435 73.3925 37 70.4529C53.3973 63.8105 72.7136 61.6298 90 66.1559C103.247 69.6244 115.413 75.7648 126 84.4637C129.096 87.0078 135.103 95.0718 139.772 93.5177C144.16 92.0576 145.602 80.9194 146.5 77C149.727 62.9171 151.909 33.7494 140.606 22.3935C133.398 15.1524 118.569 13.9612 109 12.7184C67.6762 7.35091 21.7033 38.6804 16 81M159 35L160 36L159 35z"/>
<path style="fill:#f0779a; stroke:none;" d="M160 35C157.285 44.1847 159.467 54.4803 157.335 64C151.477 90.1571 131.986 115.542 107 126L107 127C145.246 115.982 160 73.1743 160 38L175 55L176 55L160 35z"/>
<path style="fill:#e63163; stroke:none;" d="M160 38C160 69.7058 150.217 97.1581 124 117.101C116.524 122.788 108.029 127.333 99 129.997C95.959 130.894 88.6128 131.994 87.2562 135.303C85.3348 139.99 94.4285 145.626 97.1157 148.424C107.237 158.963 131.075 175.135 147 171.527C156.657 169.339 165.327 156.406 170.873 149C188.934 124.882 191.281 93.8631 180.684 66C176.861 55.9501 170.144 42.7438 160 38z"/>
<path style="fill:#fdb011; stroke:none;" d="M165 40L166 41L165 40M170 46L171 47L170 46z"/>
<path style="fill:#f0779a; stroke:none;" d="M176 56L177 57L176 56z"/>
<path style="fill:#fdb011; stroke:none;" d="M177 57L178 58L177 57z"/>
<path style="fill:#f0779a; stroke:none;" d="M177 58L178 59L177 58M178.333 59.6667L178.667 60.3333L178.333 59.6667M179.333 61.6667L179.667 62.3333L179.333 61.6667M180.333 64.6667L180.667 65.3333L180.333 64.6667M181 66L181 69L182 69L181 66z"/>
<path style="fill:#5abdd4; stroke:none;" d="M127 182C119.821 175.988 111.155 171.946 104 165.711C90.8395 154.242 80.8033 137.9 76.4784 121C73.3122 108.628 73.1465 95.5222 75.4244 83C76.0102 79.7796 79.7221 71.5205 76.3927 69.0671C72.8041 66.4227 62.8304 70.3297 59 71.4275C44.5198 75.5773 18.7777 88.0022 14.4336 104C11.2677 115.659 19.4244 133.291 25.2068 143C44.486 175.372 89.9668 197.729 127 182z"/>
<path style="fill:#f0779a; stroke:none;" d="M182.333 69.6667L182.667 70.3333L182.333 69.6667M183.333 71.6667L183.667 72.3333L183.333 71.6667M184 74L184 78L185 78L184 74M185 79L186 90L187 90L185 79M187 90L187 109L188 109L187 90M186 110L186 115L187 115L186 110z"/>
<path style="fill:#fdb011; stroke:none;" d="M123 116L124 117L123 116z"/>
<path style="fill:#f0779a; stroke:none;" d="M185 116L185 120L186 120L185 116M184.333 122.667L184.667 123.333L184.333 122.667z"/>
<path style="fill:#fdb011; stroke:none;" d="M184 124L185 125L184 124z"/>
<path style="fill:#f0779a; stroke:none;" d="M183.333 126.667L183.667 127.333L183.333 126.667M105 127L106 128L105 127M102.667 128.333L103.333 128.667L102.667 128.333M182.333 128.667L182.667 129.333L182.333 128.667M99 129L99 130L102 130L99 129z"/>
<path style="fill:#fdb011; stroke:none;" d="M96 130L97 131L96 130z"/>
<path style="fill:#f0779a; stroke:none;" d="M93.6667 131.333L94.3333 131.667L93.6667 131.333M181.333 131.667L181.667 132.333L181.333 131.667M89 132L89 133L92 133L89 132M87 133L88 134L87 133M180.333 133.667L180.667 134.333L180.333 133.667M85 134L86 139L87 139L87 134L85 134M179.333 135.667L179.667 136.333L179.333 135.667z"/>
<path style="fill:#fdb011; stroke:none;" d="M85 137L86 138L85 137z"/>
<path style="fill:#f0779a; stroke:none;" d="M178 138L179 139L178 138M87 139L88 140L87 139M177.333 139.667L177.667 140.333L177.333 139.667M88 140L89 141L88 140M89 141L90 142L89 141M176 141L175 144L176 144L176 141M90 142L91 143L90 142z"/>
<path style="fill:#fdb011; stroke:none;" d="M176 142L177 143L176 142z"/>
<path style="fill:#f0779a; stroke:none;" d="M91 143L92 144L91 143M92 144L96 148L92 144M174 144L172 148L174 144M96 148L99 151L96 148M171 148L169 152L171 148M99 151L100 152L99 151M100 152L101 153L100 152M168 152L150 171C155.968 167.953 168.618 159.522 168 152M101 153L101 154L104 155L101 153z"/>
<path style="fill:#fdb011; stroke:none;" d="M102 154L103 155L102 154z"/>
<path style="fill:#f0779a; stroke:none;" d="M104 155L105 156L104 155M105.667 156.333L106.333 156.667L105.667 156.333M107 157L108 158L107 157M108.667 158.333L109.333 158.667L108.667 158.333M110 159L111 160L110 159M111.667 160.333L112.333 160.667L111.667 160.333M113.667 161.333L114.333 161.667L113.667 161.333M115 162L116 163L115 162M117 163L118 164L117 163M119 164L120 165L119 164M121.667 165.333L122.333 165.667L121.667 165.333M123.667 166.333L124.333 166.667L123.667 166.333z"/>
<path style="fill:#fdb011; stroke:none;" d="M156 166L157 167L156 166z"/>
<path style="fill:#f0779a; stroke:none;" d="M126 167L127 168L126 167z"/>
<path style="fill:#fdb011; stroke:none;" d="M128 168L129 169L128 168z"/>
<path style="fill:#f0779a; stroke:none;" d="M129 168L130 169L129 168M132.667 169.333L133.333 169.667L132.667 169.333M136 170L136 171L139 171L136 170z"/>
<path style="fill:#fdb011; stroke:none;" d="M151 170L152 171L151 170z"/>
<path style="fill:#f0779a; stroke:none;" d="M140 171L140 172L143 172L140 171M148.667 171.333L149.333 171.667L148.667 171.333M146 172L147 173L146 172z"/>
<path style="fill:#fdb011; stroke:none;" d="M147 172L148 173L147 172z"/>
</svg>
