<?xml version="1.0" standalone="yes"?>
<svg xmlns="http://www.w3.org/2000/svg" width="1600" height="1600">
<path style="fill:#010101; stroke:none;" d="M0 0L0 1600L1600 1600L1600 0L0 0z"/>
<path style="fill:#ffffff; stroke:none;" d="M166 100L166 479L167 479C167.271 446.312 193.298 427.486 219 413.14C245.019 398.616 271.136 384.218 297 369.421C412.041 303.609 528.256 239.709 644 175.14C674.361 158.203 704.803 141.377 735 124.15C751.055 114.991 768.941 101.831 788 101L770 100L734 100L607 100L166 100z"/>
<path style="fill:#0172be; stroke:none;" d="M788 100.428C765.921 103.592 747.057 116.785 728 127.576C699.425 143.755 670.783 159.887 642 175.694C533.513 235.276 426.091 296.84 318 357.14C286.649 374.629 255.208 391.977 224 409.719C203.014 421.65 182.757 431.83 172.312 455C165.043 471.123 166 488.75 166 506L166 580L166 857L166 1057C166 1087.1 160.087 1124.11 176.464 1151C194.658 1180.87 237.707 1195.66 267 1212.42C339.623 1253.97 412.667 1295.03 486 1335.31C559.354 1375.6 632.244 1416.92 705 1458.28C736.332 1476.09 771.933 1504.66 810 1499.71C831.195 1496.96 849.799 1483.71 868 1473.42C897.957 1456.5 927.955 1439.63 958 1422.86C1066.47 1362.31 1174.9 1301.63 1283 1240.42C1313.93 1222.91 1345.1 1205.84 1376 1188.28C1396.77 1176.48 1417.35 1165.94 1427.69 1143C1434.94 1126.9 1434 1109.21 1434 1092L1434 1018L1434 742L1434 542C1434 513.102 1439.95 475.97 1424.55 450C1405.24 417.445 1361.77 401.86 1330 384.14C1258.66 344.344 1187.6 304.017 1116 264.694C1041.05 223.534 966.945 180.854 892 139.694C860.029 122.135 826.652 94.8905 788 100.428z"/>
<path style="fill:#ffffff; stroke:none;" d="M811 100L811 101C830.668 102.606 848.25 115.795 865 125.14C896.347 142.627 927.539 160.414 959 177.694C1074.03 240.874 1189.09 304.413 1303 369.579C1326.19 382.845 1349.58 395.833 1373 408.694C1401.87 424.552 1432.9 445.107 1433 482L1434 482L1434 100L811 100z"/>
<path style="fill:#70b1dc; stroke:none;" d="M781 333L781 334L792 334L781 333z"/>
<path style="fill:#c2def0; stroke:none;" d="M792 333L792 334L808 334L792 333z"/>
<path style="fill:#70b1dc; stroke:none;" d="M808 333L808 334L819 334L808 333M763 334L763 335L768 335L763 334z"/>
<path style="fill:#c2def0; stroke:none;" d="M768 334L768 335L773 335L768 334z"/>
<path style="fill:#ffffff; stroke:none;" d="M1205 1030C1187.35 1022.61 1170.82 1011.43 1154 1002.31C1122.24 985.094 1090.59 967.659 1059 950.139C1040.88 940.089 1020.86 924.841 1001 919C958.771 981.596 897.672 1025.53 821 1032.83C687.34 1045.56 562.699 932.347 566.015 797C569.631 649.375 713.78 535.714 858 573.734C917.83 589.508 964.782 627.278 999 678L1070 637.85L1201 563C1196.54 550.828 1187.19 539.489 1179.71 529C1160.99 502.744 1139.62 478.798 1116 456.911C989.094 339.31 801.169 302.594 639 362.053C448.772 431.8 325.221 621.639 334.039 823C336.226 872.921 347.03 923.577 365.6 970C388.666 1027.66 422.067 1080.06 465.039 1125C601.747 1267.97 820.136 1303.97 998 1222.31C1062.35 1192.76 1119.59 1147.18 1163.8 1092C1178.04 1074.23 1198.04 1052 1205 1030z"/>
<path style="fill:#c2def0; stroke:none;" d="M827 334L827 335L831 335L827 334z"/>
<path style="fill:#70b1dc; stroke:none;" d="M831 334L831 335L837 335L831 334M752 335L752 336L756 336L752 335z"/>
<path style="fill:#c2def0; stroke:none;" d="M756 335L756 336L759 336L756 335M841 335L841 336L844 336L841 335z"/>
<path style="fill:#70b1dc; stroke:none;" d="M844 335L844 336L848 336L844 335M743 336L743 337L746 337L743 336z"/>
<path style="fill:#c2def0; stroke:none;" d="M746 336L746 337L749 337L746 336M851 336L851 337L854 337L851 336z"/>
<path style="fill:#70b1dc; stroke:none;" d="M854 336L854 337L857 337L854 336M736.667 337.333L737.333 337.667L736.667 337.333z"/>
<path style="fill:#c2def0; stroke:none;" d="M738.667 337.333L739.333 337.667L738.667 337.333M860.667 337.333L861.333 337.667L860.667 337.333z"/>
<path style="fill:#70b1dc; stroke:none;" d="M862.667 337.333L863.333 337.667L862.667 337.333M729.667 338.333L730.333 338.667L729.667 338.333z"/>
<path style="fill:#c2def0; stroke:none;" d="M731.667 338.333L732.333 338.667L731.667 338.333M867.667 338.333L868.333 338.667L867.667 338.333z"/>
<path style="fill:#70b1dc; stroke:none;" d="M869.667 338.333L870.333 338.667L869.667 338.333M723.667 339.333L724.333 339.667L723.667 339.333z"/>
<path style="fill:#c2def0; stroke:none;" d="M725 339L726 340L725 339M874 339L875 340L874 339z"/>
<path style="fill:#70b1dc; stroke:none;" d="M875.667 339.333L876.333 339.667L875.667 339.333M717.667 340.333L718.333 340.667L717.667 340.333z"/>
<path style="fill:#c2def0; stroke:none;" d="M719 340L720 341L719 340M880 340L881 341L880 340z"/>
<path style="fill:#70b1dc; stroke:none;" d="M881.667 340.333L882.333 340.667L881.667 340.333M711.667 341.333L712.333 341.667L711.667 341.333z"/>
<path style="fill:#c2def0; stroke:none;" d="M713.667 341.333L714.333 341.667L713.667 341.333M885.667 341.333L886.333 341.667L885.667 341.333z"/>
<path style="fill:#70b1dc; stroke:none;" d="M887.667 341.333L888.333 341.667L887.667 341.333M706.667 342.333L707.333 342.667L706.667 342.333z"/>
<path style="fill:#c2def0; stroke:none;" d="M708.667 342.333L709.333 342.667L708.667 342.333M890.667 342.333L891.333 342.667L890.667 342.333z"/>
<path style="fill:#70b1dc; stroke:none;" d="M892.667 342.333L893.333 342.667L892.667 342.333M702 343L703 344L702 343z"/>
<path style="fill:#c2def0; stroke:none;" d="M703.667 343.333L704.333 343.667L703.667 343.333M895.667 343.333L896.333 343.667L895.667 343.333z"/>
<path style="fill:#70b1dc; stroke:none;" d="M897 343L898 344L897 343M697.667 344.333L698.333 344.667L697.667 344.333z"/>
<path style="fill:#c2def0; stroke:none;" d="M699 344L700 345L699 344M900 344L901 345L900 344z"/>
<path style="fill:#70b1dc; stroke:none;" d="M901.667 344.333L902.333 344.667L901.667 344.333M693 345L694 346L693 345z"/>
<path style="fill:#c2def0; stroke:none;" d="M694 345L695 346L694 345M905 345L906 346L905 345z"/>
<path style="fill:#70b1dc; stroke:none;" d="M906 345L907 346L906 345M689 346L690 347L689 346z"/>
<path style="fill:#c2def0; stroke:none;" d="M690 346L691 347L690 346M909 346L910 347L909 346z"/>
<path style="fill:#70b1dc; stroke:none;" d="M910 346L911 347L910 346M685 347L686 348L685 347z"/>
<path style="fill:#c2def0; stroke:none;" d="M686 347L687 348L686 347M913 347L914 348L913 347z"/>
<path style="fill:#70b1dc; stroke:none;" d="M914 347L915 348L914 347M681 348L682 349L681 348z"/>
<path style="fill:#c2def0; stroke:none;" d="M682 348L683 349L682 348M917 348L918 349L917 348z"/>
<path style="fill:#70b1dc; stroke:none;" d="M918 348L919 349L918 348M677 349L678 350L677 349z"/>
<path style="fill:#c2def0; stroke:none;" d="M678 349L679 350L678 349M921 349L922 350L921 349z"/>
<path style="fill:#70b1dc; stroke:none;" d="M922 349L923 350L922 349M673.667 350.333L674.333 350.667L673.667 350.333z"/>
<path style="fill:#c2def0; stroke:none;" d="M675 350L676 351L675 350M924 350L925 351L924 350z"/>
<path style="fill:#70b1dc; stroke:none;" d="M925.667 350.333L926.333 350.667L925.667 350.333M670 351L671 352L670 351z"/>
<path style="fill:#c2def0; stroke:none;" d="M671 351L672 352L671 351M928 351L929 352L928 351z"/>
<path style="fill:#70b1dc; stroke:none;" d="M929 351L930 352L929 351M667 352L668 353L667 352z"/>
<path style="fill:#c2def0; stroke:none;" d="M668 352L669 353L668 352M931 352L932 353L931 352z"/>
<path style="fill:#70b1dc; stroke:none;" d="M932 352L933 353L932 352M663 353L664 354L663 353z"/>
<path style="fill:#c2def0; stroke:none;" d="M664 353L665 354L664 353M935 353L936 354L935 353z"/>
<path style="fill:#70b1dc; stroke:none;" d="M936 353L937 354L936 353M660 354L661 355L660 354z"/>
<path style="fill:#c2def0; stroke:none;" d="M661 354L662 355L661 354M938 354L939 355L938 354z"/>
<path style="fill:#70b1dc; stroke:none;" d="M939 354L940 355L939 354M657 355L658 356L657 355z"/>
<path style="fill:#c2def0; stroke:none;" d="M658 355L659 356L658 355M941 355L942 356L941 355z"/>
<path style="fill:#70b1dc; stroke:none;" d="M942 355L943 356L942 355M654 356L655 357L654 356z"/>
<path style="fill:#c2def0; stroke:none;" d="M655 356L656 357L655 356M944 356L945 357L944 356z"/>
<path style="fill:#70b1dc; stroke:none;" d="M945 356L946 357L945 356M651 357L652 358L651 357z"/>
<path style="fill:#c2def0; stroke:none;" d="M652 357L653 358L652 357M947 357L948 358L947 357z"/>
<path style="fill:#70b1dc; stroke:none;" d="M948 357L949 358L948 357M648 358L649 359L648 358z"/>
<path style="fill:#c2def0; stroke:none;" d="M649 358L650 359L649 358M950 358L951 359L950 358z"/>
<path style="fill:#70b1dc; stroke:none;" d="M951 358L952 359L951 358M645 359L646 360L645 359z"/>
<path style="fill:#c2def0; stroke:none;" d="M646 359L647 360L646 359M953 359L954 360L953 359z"/>
<path style="fill:#70b1dc; stroke:none;" d="M954 359L955 360L954 359M642 360L643 361L642 360z"/>
<path style="fill:#c2def0; stroke:none;" d="M643 360L644 361L643 360M956 360L957 361L956 360z"/>
<path style="fill:#70b1dc; stroke:none;" d="M957 360L958 361L957 360M639 361L640 362L639 361z"/>
<path style="fill:#c2def0; stroke:none;" d="M640 361L641 362L640 361M959 361L960 362L959 361z"/>
<path style="fill:#70b1dc; stroke:none;" d="M960 361L961 362L960 361M637 362L638 363L637 362M962 362L963 363L962 362M634 363L635 364L634 363z"/>
<path style="fill:#c2def0; stroke:none;" d="M635 363L636 364L635 363M964 363L965 364L964 363z"/>
<path style="fill:#70b1dc; stroke:none;" d="M965 363L966 364L965 363M631 364L632 365L631 364z"/>
<path style="fill:#c2def0; stroke:none;" d="M632 364L633 365L632 364M967 364L968 365L967 364z"/>
<path style="fill:#70b1dc; stroke:none;" d="M968 364L969 365L968 364M629 365L630 366L629 365z"/>
<path style="fill:#c2def0; stroke:none;" d="M630 365L631 366L630 365M969 365L970 366L969 365z"/>
<path style="fill:#70b1dc; stroke:none;" d="M970 365L971 366L970 365M626 366L627 367L626 366z"/>
<path style="fill:#c2def0; stroke:none;" d="M627 366L628 367L627 366M972 366L973 367L972 366z"/>
<path style="fill:#70b1dc; stroke:none;" d="M973 366L974 367L973 366M624 367L625 368L624 367z"/>
<path style="fill:#c2def0; stroke:none;" d="M625 367L626 368L625 367M974 367L975 368L974 367z"/>
<path style="fill:#70b1dc; stroke:none;" d="M975 367L976 368L975 367z"/>
<path style="fill:#c2def0; stroke:none;" d="M622 368L623 369L622 368M977 368L978 369L977 368z"/>
<path style="fill:#70b1dc; stroke:none;" d="M619 369L620 370L619 369z"/>
<path style="fill:#c2def0; stroke:none;" d="M620 369L621 370L620 369M979 369L980 370L979 369z"/>
<path style="fill:#70b1dc; stroke:none;" d="M980 369L981 370L980 369M617 370L618 371L617 370M982 370L983 371L982 370M614 371L615 372L614 371z"/>
<path style="fill:#c2def0; stroke:none;" d="M615 371L616 372L615 371M984 371L985 372L984 371z"/>
<path style="fill:#70b1dc; stroke:none;" d="M985 371L986 372L985 371M612 372L613 373L612 372z"/>
<path style="fill:#c2def0; stroke:none;" d="M613 372L614 373L613 372M986 372L987 373L986 372z"/>
<path style="fill:#70b1dc; stroke:none;" d="M987 372L988 373L987 372M610 373L611 374L610 373M989 373L990 374L989 373z"/>
<path style="fill:#c2def0; stroke:none;" d="M608 374L609 375L608 374M991 374L992 375L991 374z"/>
<path style="fill:#70b1dc; stroke:none;" d="M605 375L606 376L605 375z"/>
<path style="fill:#c2def0; stroke:none;" d="M606 375L607 376L606 375M993 375L994 376L993 375z"/>
<path style="fill:#70b1dc; stroke:none;" d="M603 376L604 377L603 376z"/>
<path style="fill:#c2def0; stroke:none;" d="M604 376L605 377L604 376M995 376L996 377L995 376z"/>
<path style="fill:#70b1dc; stroke:none;" d="M996 376L997 377L996 376M601 377L602 378L601 377z"/>
<path style="fill:#c2def0; stroke:none;" d="M602 377L603 378L602 377M997 377L998 378L997 377z"/>
<path style="fill:#70b1dc; stroke:none;" d="M998 377L999 378L998 377M599 378L600 379L599 378M1000 378L1001 379L1000 378M597 379L598 380L597 379M1002 379L1003 380L1002 379M595 380L596 381L595 380M1004 380L1005 381L1004 380M593 381L594 382L593 381M1006 381L1007 382L1006 381M591 382L592 383L591 382M1008 382L1009 383L1008 382M589 383L590 384L589 383M1010 383L1011 384L1010 383M587 384L588 385L587 384M1012 384L1013 385L1012 384M585 385L586 386L585 385M1014 385L1015 386L1014 385M583 386L584 387L583 386M1016 386L1017 387L1016 386M581 387L582 388L581 387z"/>
<path style="fill:#c2def0; stroke:none;" d="M582 387L583 388L582 387M1017 387L1018 388L1017 387z"/>
<path style="fill:#70b1dc; stroke:none;" d="M1018 387L1019 388L1018 387M579 388L580 389L579 388z"/>
<path style="fill:#c2def0; stroke:none;" d="M580 388L581 389L580 388M1019 388L1020 389L1019 388z"/>
<path style="fill:#70b1dc; stroke:none;" d="M1020 388L1021 389L1020 388M577 389L578 390L577 389z"/>
<path style="fill:#c2def0; stroke:none;" d="M578 389L579 390L578 389M1021 389L1022 390L1021 389M576 390L577 391L576 390M1023 390L1024 391L1023 390z"/>
<path style="fill:#70b1dc; stroke:none;" d="M574 391L575 392L574 391M1025 391L1026 392L1025 391M572 392L573 393L572 392M1027 392L1028 393L1027 392M570 393L571 394L570 393z"/>
<path style="fill:#c2def0; stroke:none;" d="M571 393L572 394L571 393M1028 393L1029 394L1028 393z"/>
<path style="fill:#70b1dc; stroke:none;" d="M1029 393L1030 394L1029 393z"/>
<path style="fill:#c2def0; stroke:none;" d="M569 394L570 395L569 394M1030 394L1031 395L1030 394M567 395L568 396L567 395M1032 395L1033 396L1032 395z"/>
<path style="fill:#70b1dc; stroke:none;" d="M565 396L566 397L565 396M1034 396L1035 397L1034 396M563 397L564 398L563 397z"/>
<path style="fill:#c2def0; stroke:none;" d="M564 397L565 398L564 397M1035 397L1036 398L1035 397z"/>
<path style="fill:#70b1dc; stroke:none;" d="M1036 397L1037 398L1036 397z"/>
<path style="fill:#c2def0; stroke:none;" d="M562 398L563 399L562 398M1037 398L1038 399L1037 398z"/>
<path style="fill:#70b1dc; stroke:none;" d="M560 399L561 400L560 399M1039 399L1040 400L1039 399M558 400L559 401L558 400z"/>
<path style="fill:#c2def0; stroke:none;" d="M1040 400L1041 401L1040 400z"/>
<path style="fill:#70b1dc; stroke:none;" d="M1041 400L1042 401L1041 400z"/>
<path style="fill:#c2def0; stroke:none;" d="M557 401L558 402L557 401M1042 401L1043 402L1042 401z"/>
<path style="fill:#70b1dc; stroke:none;" d="M555 402L556 403L555 402M1044 402L1045 403L1044 402z"/>
<path style="fill:#c2def0; stroke:none;" d="M554 403L555 404L554 403M1045 403L1046 404L1045 403z"/>
<path style="fill:#70b1dc; stroke:none;" d="M552 404L553 405L552 404M1047 404L1048 405L1047 404M550 405L551 406L550 405M1049 405L1050 406L1049 405z"/>
<path style="fill:#c2def0; stroke:none;" d="M549 406L550 407L549 406M1050 406L1051 407L1050 406z"/>
<path style="fill:#70b1dc; stroke:none;" d="M547 407L548 408L547 407M1052 407L1053 408L1052 407z"/>
<path style="fill:#c2def0; stroke:none;" d="M546 408L547 409L546 408M1053 408L1054 409L1053 408z"/>
<path style="fill:#70b1dc; stroke:none;" d="M544 409L545 410L544 409M1055 409L1056 410L1055 409z"/>
<path style="fill:#c2def0; stroke:none;" d="M543 410L544 411L543 410M1056 410L1057 411L1056 410z"/>
<path style="fill:#70b1dc; stroke:none;" d="M541 411L542 412L541 411M1058 411L1059 412L1058 411z"/>
<path style="fill:#c2def0; stroke:none;" d="M540 412L541 413L540 412M1059 412L1060 413L1059 412z"/>
<path style="fill:#70b1dc; stroke:none;" d="M538 413L539 414L538 413M1061 413L1062 414L1061 413z"/>
<path style="fill:#c2def0; stroke:none;" d="M537 414L538 415L537 414M1062 414L1063 415L1062 414z"/>
<path style="fill:#70b1dc; stroke:none;" d="M535 415L536 416L535 415M1064 415L1065 416L1064 415z"/>
<path style="fill:#c2def0; stroke:none;" d="M534 416L535 417L534 416M1065 416L1066 417L1065 416z"/>
<path style="fill:#70b1dc; stroke:none;" d="M532 417L533 418L532 417M1067 417L1068 418L1067 417z"/>
<path style="fill:#c2def0; stroke:none;" d="M531 418L532 419L531 418M1068 418L1069 419L1068 418M1069 419L1070 420L1069 419z"/>
<path style="fill:#70b1dc; stroke:none;" d="M528 420L529 421L528 420M1071 420L1072 421L1071 420z"/>
<path style="fill:#c2def0; stroke:none;" d="M527 421L528 422L527 421M1072 421L1073 422L1072 421z"/>
<path style="fill:#70b1dc; stroke:none;" d="M525 422L526 423L525 422M1074 422L1075 423L1074 422M524 423L525 424L524 423M1075 423L1076 424L1075 423z"/>
<path style="fill:#c2def0; stroke:none;" d="M523 424L524 425L523 424M1076 424L1077 425L1076 424z"/>
<path style="fill:#70b1dc; stroke:none;" d="M521 425L522 426L521 425M1078 425L1079 426L1078 425z"/>
<path style="fill:#c2def0; stroke:none;" d="M520 426L521 427L520 426M1079 426L1080 427L1079 426M519 427L520 428L519 427M1080 427L1081 428L1080 427z"/>
<path style="fill:#70b1dc; stroke:none;" d="M517 428L518 429L517 428M1082 428L1083 429L1082 428M516 429L517 430L516 429M1083 429L1084 430L1083 429z"/>
<path style="fill:#c2def0; stroke:none;" d="M515 430L516 431L515 430M1084 430L1085 431L1084 430z"/>
<path style="fill:#70b1dc; stroke:none;" d="M513 431L514 432L513 431M1086 431L1087 432L1086 431M512 432L513 433L512 432M1087 432L1088 433L1087 432z"/>
<path style="fill:#c2def0; stroke:none;" d="M511 433L512 434L511 433M1088 433L1089 434L1088 433M510 434L511 435L510 434M1089 434L1090 435L1089 434z"/>
<path style="fill:#70b1dc; stroke:none;" d="M508 435L509 436L508 435M1091 435L1092 436L1091 435M507 436L508 437L507 436M1092 436L1093 437L1092 436z"/>
<path style="fill:#c2def0; stroke:none;" d="M506 437L507 438L506 437M1093 437L1094 438L1093 437M505 438L506 439L505 438M1094 438L1095 439L1094 438z"/>
<path style="fill:#70b1dc; stroke:none;" d="M503 439L504 440L503 439M1096 439L1097 440L1096 439M502 440L503 441L502 440M1097 440L1098 441L1097 440z"/>
<path style="fill:#c2def0; stroke:none;" d="M501 441L502 442L501 441M1098 441L1099 442L1098 441M500 442L501 443L500 442M1099 442L1100 443L1099 442M499 443L500 444L499 443M1100 443L1101 444L1100 443z"/>
<path style="fill:#70b1dc; stroke:none;" d="M497 444L498 445L497 444M496 445L497 446L496 445M1103 445L1104 446L1103 445M495 446L496 447L495 446M1104 446L1105 447L1104 446z"/>
<path style="fill:#c2def0; stroke:none;" d="M494 447L495 448L494 447M1105 447L1106 448L1105 447M493 448L494 449L493 448M1106 448L1107 449L1106 448M492 449L493 450L492 449M1107 449L1108 450L1107 449z"/>
<path style="fill:#70b1dc; stroke:none;" d="M489 451L490 452L489 451M1110 451L1111 452L1110 451M488 452L489 453L488 452M1111 452L1112 453L1111 452M487 453L488 454L487 453M1112 453L1113 454L1112 453M486 454L487 455L486 454M1113 454L1114 455L1113 454z"/>
<path style="fill:#c2def0; stroke:none;" d="M485 455L486 456L485 455M1114 455L1115 456L1114 455M484 456L485 457L484 456M1115 456L1116 457L1115 456M483 457L484 458L483 457M1116 457L1117 458L1116 457M482 458L483 459L482 458M1117 458L1118 459L1117 458M481 459L482 460L481 459M1118 459L1119 460L1118 459z"/>
<path style="fill:#70b1dc; stroke:none;" d="M476 463L477 464L476 463M475 464L476 465L475 464M1124 464L1125 465L1124 464M474 465L475 466L474 465M1125 465L1126 466L1125 465M473 466L474 467L473 466M1126 466L1127 467L1126 466M472 467L473 468L472 467M1127 467L1128 468L1127 467M471 468L472 469L471 468M1128 468L1129 469L1128 468M470 469L471 470L470 469M1129 469L1130 470L1129 469M469 470L470 471L469 470M1130 470L1131 471L1130 470M468 471L469 472L468 471M1131 471L1132 472L1131 471M467 472L468 473L467 472M1132 472L1133 473L1132 472M466 473L467 474L466 473M1133 473L1134 474L1133 473M465 474L466 475L465 474M1134 474L1135 475L1134 474M464 475L465 476L464 475M1135 475L1136 476L1135 475M463 476L464 477L463 476z"/>
<path style="fill:#c2def0; stroke:none;" d="M459 481L460 482L459 481M1140 481L1141 482L1140 481M458 482L459 483L458 482M1141 482L1142 483L1141 482M457 483L458 484L457 483M1142 483L1143 484L1142 483M456 484L457 485L456 484M1143 484L1144 485L1143 484M455 485L456 486L455 485M1144 485L1145 486L1144 485z"/>
<path style="fill:#70b1dc; stroke:none;" d="M454 486L455 487L454 486M1145 486L1146 487L1145 486M453 487L454 488L453 487M1146 487L1147 488L1146 487M452 488L453 489L452 488M1147 488L1148 489L1147 488M451 489L452 490L451 489M1148 489L1149 490L1148 489z"/>
<path style="fill:#c2def0; stroke:none;" d="M449 492L450 493L449 492M1150 492L1151 493L1150 492M448 493L449 494L448 493M1151 493L1152 494L1151 493M447 494L448 495L447 494M1152 494L1153 495L1152 494z"/>
<path style="fill:#70b1dc; stroke:none;" d="M446 495L447 496L446 495M1153 495L1154 496L1153 495M445 496L446 497L445 496M1154 496L1155 497L1154 496M444 497L445 498L444 497z"/>
<path style="fill:#c2def0; stroke:none;" d="M443 499L444 500L443 499M1156 499L1157 500L1156 499M442 500L443 501L442 500M1157 500L1158 501L1157 500z"/>
<path style="fill:#70b1dc; stroke:none;" d="M441 501L442 502L441 501M1158 501L1159 502L1158 501M440 502L441 503L440 502M1159 502L1160 503L1159 502M439 503L440 504L439 503M1160 503L1161 504L1160 503z"/>
<path style="fill:#c2def0; stroke:none;" d="M438 505L439 506L438 505M1161 505L1162 506L1161 505M437 506L438 507L437 506M1162 506L1163 507L1162 506z"/>
<path style="fill:#70b1dc; stroke:none;" d="M436 507L437 508L436 507M1163 507L1164 508L1163 507M435 508L436 509L435 508M1164 508L1165 509L1164 508z"/>
<path style="fill:#c2def0; stroke:none;" d="M434 510L435 511L434 510M1165 510L1166 511L1165 510M433 511L434 512L433 511M1166 511L1167 512L1166 511z"/>
<path style="fill:#70b1dc; stroke:none;" d="M432 512L433 513L432 512M1167 512L1168 513L1167 512M431 513L432 514L431 513M1168 513L1169 514L1168 513z"/>
<path style="fill:#c2def0; stroke:none;" d="M430 515L431 516L430 515M1169 515L1170 516L1169 515z"/>
<path style="fill:#70b1dc; stroke:none;" d="M429 516L430 517L429 516M1170 516L1171 517L1170 516M428 517L429 518L428 517M1171 517L1172 518L1171 517z"/>
<path style="fill:#c2def0; stroke:none;" d="M427 519L428 520L427 519M1172 519L1173 520L1172 519M426 520L427 521L426 520M1173 520L1174 521L1173 520z"/>
<path style="fill:#70b1dc; stroke:none;" d="M425 521L426 522L425 521M1174 521L1175 522L1174 521z"/>
<path style="fill:#c2def0; stroke:none;" d="M424 523L425 524L424 523M1175 523L1176 524L1175 523z"/>
<path style="fill:#70b1dc; stroke:none;" d="M423 524L424 525L423 524M1176 524L1177 525L1176 524M422 525L423 526L422 525M1177 525L1178 526L1177 525z"/>
<path style="fill:#c2def0; stroke:none;" d="M421 527L422 528L421 527M1178 527L1179 528L1178 527z"/>
<path style="fill:#70b1dc; stroke:none;" d="M420 528L421 529L420 528M1179 528L1180 529L1179 528z"/>
<path style="fill:#c2def0; stroke:none;" d="M1180 530L1181 531L1180 530M418 531L419 532L418 531M1181 531L1182 532L1181 531z"/>
<path style="fill:#70b1dc; stroke:none;" d="M417 532L418 533L417 532M1182 532L1183 533L1182 532z"/>
<path style="fill:#c2def0; stroke:none;" d="M416 534L417 535L416 534M1183 534L1184 535L1183 534z"/>
<path style="fill:#70b1dc; stroke:none;" d="M415 535L416 536L415 535M1184 535L1185 536L1184 535z"/>
<path style="fill:#c2def0; stroke:none;" d="M414 537L415 538L414 537M1185 537L1186 538L1185 537z"/>
<path style="fill:#70b1dc; stroke:none;" d="M413 538L414 539L413 538M1186 538L1187 539L1186 538z"/>
<path style="fill:#c2def0; stroke:none;" d="M412 540L413 541L412 540M1187 540L1188 541L1187 540z"/>
<path style="fill:#70b1dc; stroke:none;" d="M411 541L412 542L411 541M1188 541L1189 542L1188 541z"/>
<path style="fill:#c2def0; stroke:none;" d="M410 543L411 544L410 543M1189 543L1190 544L1189 543z"/>
<path style="fill:#70b1dc; stroke:none;" d="M409 544L410 545L409 544M1190 544L1191 545L1190 544z"/>
<path style="fill:#c2def0; stroke:none;" d="M408 546L409 547L408 546M1191 546L1192 547L1191 546z"/>
<path style="fill:#70b1dc; stroke:none;" d="M407 547L408 548L407 547M1192 547L1193 548L1192 547z"/>
<path style="fill:#c2def0; stroke:none;" d="M406 549L407 550L406 549M1193 549L1194 550L1193 549z"/>
<path style="fill:#70b1dc; stroke:none;" d="M405 550L406 551L405 550M1194 550L1195 551L1194 550M404 552L405 553L404 552M1195 552L1196 553L1195 552z"/>
<path style="fill:#c2def0; stroke:none;" d="M403 554L404 555L403 554M1196 554L1197 555L1196 554z"/>
<path style="fill:#70b1dc; stroke:none;" d="M402 555L403 556L402 555M1197 555L1198 556L1197 555z"/>
<path style="fill:#c2def0; stroke:none;" d="M401 557L402 558L401 557M1198 557L1199 558L1198 557z"/>
<path style="fill:#70b1dc; stroke:none;" d="M400 558L401 559L400 558M1199 558L1200 559L1199 558z"/>
<path style="fill:#c2def0; stroke:none;" d="M1199 559L1200 560L1199 559z"/>
<path style="fill:#70b1dc; stroke:none;" d="M399 560L400 561L399 560M1200 560L1201 561L1200 560z"/>
<path style="fill:#c2def0; stroke:none;" d="M398 562L399 563L398 562z"/>
<path style="fill:#70b1dc; stroke:none;" d="M1201 562L1202 563L1201 562M397 563L398 564L397 563M1200 563L1201 564L1200 563z"/>
<path style="fill:#c2def0; stroke:none;" d="M397 564L398 565L397 564z"/>
<path style="fill:#70b1dc; stroke:none;" d="M1198 564L1199 565L1198 564M396 565L397 566L396 565z"/>
<path style="fill:#c2def0; stroke:none;" d="M1196 565L1197 566L1196 565M790 566L790 567L810 567L790 566M1194 566L1195 567L1194 566M395 567L396 568L395 567M776 567L776 568L780 568L776 567z"/>
<path style="fill:#70b1dc; stroke:none;" d="M780 567L780 568L784 568L780 567M816 567L816 568L820 568L816 567z"/>
<path style="fill:#c2def0; stroke:none;" d="M820 567L820 568L824 568L820 567z"/>
<path style="fill:#70b1dc; stroke:none;" d="M1193 567L1194 568L1193 567z"/>
<path style="fill:#c2def0; stroke:none;" d="M768 568L768 569L771 569L768 568z"/>
<path style="fill:#70b1dc; stroke:none;" d="M771.667 568.333L772.333 568.667L771.667 568.333M827.667 568.333L828.333 568.667L827.667 568.333z"/>
<path style="fill:#c2def0; stroke:none;" d="M829 568L829 569L832 569L829 568z"/>
<path style="fill:#70b1dc; stroke:none;" d="M1191 568L1192 569L1191 568z"/>
<path style="fill:#c2def0; stroke:none;" d="M394 569L395 570L394 569M762 569L763 570L762 569z"/>
<path style="fill:#70b1dc; stroke:none;" d="M763.667 569.333L764.333 569.667L763.667 569.333M835.667 569.333L836.333 569.667L835.667 569.333z"/>
<path style="fill:#c2def0; stroke:none;" d="M837 569L838 570L837 569M1189 569L1190 570L1189 569z"/>
<path style="fill:#70b1dc; stroke:none;" d="M393 570L394 571L393 570z"/>
<path style="fill:#c2def0; stroke:none;" d="M756.667 570.333L757.333 570.667L756.667 570.333z"/>
<path style="fill:#70b1dc; stroke:none;" d="M758.667 570.333L759.333 570.667L758.667 570.333M840.667 570.333L841.333 570.667L840.667 570.333z"/>
<path style="fill:#c2def0; stroke:none;" d="M842.667 570.333L843.333 570.667L842.667 570.333M1187 570L1188 571L1187 570M393 571L394 572L393 571M751 571L752 572L751 571z"/>
<path style="fill:#70b1dc; stroke:none;" d="M752.667 571.333L753.333 571.667L752.667 571.333M846.667 571.333L847.333 571.667L846.667 571.333z"/>
<path style="fill:#c2def0; stroke:none;" d="M848 571L849 572L848 571z"/>
<path style="fill:#70b1dc; stroke:none;" d="M1186 571L1187 572L1186 571M392 572L393 573L392 572z"/>
<path style="fill:#c2def0; stroke:none;" d="M747 572L748 573L747 572z"/>
<path style="fill:#70b1dc; stroke:none;" d="M748 572L749 573L748 572M851 572L852 573L851 572z"/>
<path style="fill:#c2def0; stroke:none;" d="M852 572L853 573L852 572z"/>
<path style="fill:#70b1dc; stroke:none;" d="M1184 572L1185 573L1184 572z"/>
<path style="fill:#c2def0; stroke:none;" d="M742.667 573.333L743.333 573.667L742.667 573.333z"/>
<path style="fill:#70b1dc; stroke:none;" d="M744 573L745 574L744 573M855 573L856 574L855 573z"/>
<path style="fill:#c2def0; stroke:none;" d="M856.667 573.333L857.333 573.667L856.667 573.333M1182 573L1183 574L1182 573z"/>
<path style="fill:#70b1dc; stroke:none;" d="M391 574L392 575L391 574z"/>
<path style="fill:#c2def0; stroke:none;" d="M739 574L740 575L739 574z"/>
<path style="fill:#70b1dc; stroke:none;" d="M740 574L741 575L740 574M859 574L860 575L859 574z"/>
<path style="fill:#c2def0; stroke:none;" d="M860 574L861 575L860 574M1180 574L1181 575L1180 574M735 575L736 576L735 575z"/>
<path style="fill:#70b1dc; stroke:none;" d="M736 575L737 576L736 575M863 575L864 576L863 575z"/>
<path style="fill:#c2def0; stroke:none;" d="M864 575L865 576L864 575z"/>
<path style="fill:#70b1dc; stroke:none;" d="M1179 575L1180 576L1179 575z"/>
<path style="fill:#c2def0; stroke:none;" d="M390 576L391 577L390 576M732 576L733 577L732 576z"/>
<path style="fill:#70b1dc; stroke:none;" d="M733 576L734 577L733 576M866 576L867 577L866 576z"/>
<path style="fill:#c2def0; stroke:none;" d="M867 576L868 577L867 576z"/>
<path style="fill:#70b1dc; stroke:none;" d="M1177 576L1178 577L1177 576M389 577L390 578L389 577M729 577L730 578L729 577M870 577L871 578L870 577z"/>
<path style="fill:#c2def0; stroke:none;" d="M1175 577L1176 578L1175 577M389 578L390 579L389 578z"/>
<path style="fill:#70b1dc; stroke:none;" d="M726 578L727 579L726 578M873 578L874 579L873 578z"/>
<path style="fill:#c2def0; stroke:none;" d="M1173 578L1174 579L1173 578z"/>
<path style="fill:#70b1dc; stroke:none;" d="M388 579L389 580L388 579M723 579L724 580L723 579M875.667 579.333L876.333 579.667L875.667 579.333M1172 579L1173 580L1172 579z"/>
<path style="fill:#c2def0; stroke:none;" d="M388 580L389 581L388 580z"/>
<path style="fill:#70b1dc; stroke:none;" d="M720.667 580.333L721.333 580.667L720.667 580.333M878 580L879 581L878 580z"/>
<path style="fill:#c2def0; stroke:none;" d="M879 580L880 581L879 580z"/>
<path style="fill:#70b1dc; stroke:none;" d="M1170 580L1171 581L1170 580M387 581L388 582L387 581z"/>
<path style="fill:#c2def0; stroke:none;" d="M717 581L718 582L717 581z"/>
<path style="fill:#70b1dc; stroke:none;" d="M718 581L719 582L718 581M881 581L882 582L881 581z"/>
<path style="fill:#c2def0; stroke:none;" d="M882 581L883 582L882 581M1168 581L1169 582L1168 581M387 582L388 583L387 582z"/>
<path style="fill:#70b1dc; stroke:none;" d="M715 582L716 583L715 582M884 582L885 583L884 582z"/>
<path style="fill:#c2def0; stroke:none;" d="M1166 582L1167 583L1166 582z"/>
<path style="fill:#70b1dc; stroke:none;" d="M386 583L387 584L386 583z"/>
<path style="fill:#c2def0; stroke:none;" d="M712 583L713 584L712 583z"/>
<path style="fill:#70b1dc; stroke:none;" d="M713 583L714 584L713 583M886 583L887 584L886 583z"/>
<path style="fill:#c2def0; stroke:none;" d="M887 583L888 584L887 583z"/>
<path style="fill:#70b1dc; stroke:none;" d="M1165 583L1166 584L1165 583M710 584L711 585L710 584M889 584L890 585L889 584M1163 584L1164 585L1163 584M385 585L386 586L385 585z"/>
<path style="fill:#c2def0; stroke:none;" d="M707 585L708 586L707 585z"/>
<path style="fill:#70b1dc; stroke:none;" d="M708 585L709 586L708 585M891 585L892 586L891 585z"/>
<path style="fill:#c2def0; stroke:none;" d="M892 585L893 586L892 585M1161 585L1162 586L1161 585M705 586L706 587L705 586z"/>
<path style="fill:#70b1dc; stroke:none;" d="M706 586L707 587L706 586M893 586L894 587L893 586z"/>
<path style="fill:#c2def0; stroke:none;" d="M894 586L895 587L894 586M1159 586L1160 587L1159 586z"/>
<path style="fill:#70b1dc; stroke:none;" d="M384 587L385 588L384 587M703 587L704 588L703 587z"/>
<path style="fill:#c2def0; stroke:none;" d="M896 587L897 588L896 587z"/>
<path style="fill:#70b1dc; stroke:none;" d="M1158 587L1159 588L1158 587M701 588L702 589L701 588M898 588L899 589L898 588M1156 588L1157 589L1156 588M383 589L384 590L383 589z"/>
<path style="fill:#c2def0; stroke:none;" d="M698 589L699 590L698 589z"/>
<path style="fill:#70b1dc; stroke:none;" d="M699 589L700 590L699 589M900 589L901 590L900 589z"/>
<path style="fill:#c2def0; stroke:none;" d="M901 589L902 590L901 589M1154 589L1155 590L1154 589z"/>
<path style="fill:#70b1dc; stroke:none;" d="M697 590L698 591L697 590M902 590L903 591L902 590z"/>
<path style="fill:#c2def0; stroke:none;" d="M1152 590L1153 591L1152 590z"/>
<path style="fill:#70b1dc; stroke:none;" d="M382 591L383 592L382 591M695 591L696 592L695 591M904 591L905 592L904 591M1151 591L1152 592L1151 591M693 592L694 593L693 592M906 592L907 593L906 592M1149 592L1150 593L1149 592M381 593L382 594L381 593M691 593L692 594L691 593M908 593L909 594L908 593z"/>
<path style="fill:#c2def0; stroke:none;" d="M1147 593L1148 594L1147 593z"/>
<path style="fill:#70b1dc; stroke:none;" d="M689 594L690 595L689 594M910 594L911 595L910 594z"/>
<path style="fill:#c2def0; stroke:none;" d="M1145 594L1146 595L1145 594z"/>
<path style="fill:#70b1dc; stroke:none;" d="M380 595L381 596L380 595M687 595L688 596L687 595z"/>
<path style="fill:#c2def0; stroke:none;" d="M912 595L913 596L912 595z"/>
<path style="fill:#70b1dc; stroke:none;" d="M1144 595L1145 596L1144 595z"/>
<path style="fill:#c2def0; stroke:none;" d="M685 596L686 597L685 596M914 596L915 597L914 596z"/>
<path style="fill:#70b1dc; stroke:none;" d="M1142 596L1143 597L1142 596M379 597L380 598L379 597z"/>
<path style="fill:#c2def0; stroke:none;" d="M683 597L684 598L683 597z"/>
<path style="fill:#70b1dc; stroke:none;" d="M684 597L685 598L684 597M915 597L916 598L915 597z"/>
<path style="fill:#c2def0; stroke:none;" d="M1140 597L1141 598L1140 597z"/>
<path style="fill:#70b1dc; stroke:none;" d="M682 598L683 599L682 598M917 598L918 599L917 598z"/>
<path style="fill:#c2def0; stroke:none;" d="M1138 598L1139 599L1138 598z"/>
<path style="fill:#70b1dc; stroke:none;" d="M378 599L379 600L378 599z"/>
<path style="fill:#c2def0; stroke:none;" d="M680 599L681 600L680 599M919 599L920 600L919 599z"/>
<path style="fill:#70b1dc; stroke:none;" d="M1137 599L1138 600L1137 599z"/>
<path style="fill:#c2def0; stroke:none;" d="M678 600L679 601L678 600M921 600L922 601L921 600z"/>
<path style="fill:#70b1dc; stroke:none;" d="M1135 600L1136 601L1135 600M377 601L378 602L377 601M677 601L678 602L677 601M922 601L923 602L922 601z"/>
<path style="fill:#c2def0; stroke:none;" d="M1133 601L1134 602L1133 601M377 602L378 603L377 602M675 602L676 603L675 602M924 602L925 603L924 602M1131 602L1132 603L1131 602z"/>
<path style="fill:#70b1dc; stroke:none;" d="M376 603L377 604L376 603M674 603L675 604L674 603M925 603L926 604L925 603M1130 603L1131 604L1130 603z"/>
<path style="fill:#c2def0; stroke:none;" d="M376 604L377 605L376 604M672 604L673 605L672 604M927 604L928 605L927 604z"/>
<path style="fill:#70b1dc; stroke:none;" d="M1128 604L1129 605L1128 604M375 605L376 606L375 605M671 605L672 606L671 605M928 605L929 606L928 605z"/>
<path style="fill:#c2def0; stroke:none;" d="M1126 605L1127 606L1126 605M375 606L376 607L375 606M669 606L670 607L669 606M930 606L931 607L930 606M1124 606L1125 607L1124 606z"/>
<path style="fill:#70b1dc; stroke:none;" d="M668 607L669 608L668 607M931 607L932 608L931 607M1123 607L1124 608L1123 607z"/>
<path style="fill:#c2def0; stroke:none;" d="M374 608L375 609L374 608M666 608L667 609L666 608M933 608L934 609L933 608z"/>
<path style="fill:#70b1dc; stroke:none;" d="M1121 608L1122 609L1121 608M665 609L666 610L665 609M934 609L935 610L934 609z"/>
<path style="fill:#c2def0; stroke:none;" d="M1119 609L1120 610L1119 609z"/>
<path style="fill:#70b1dc; stroke:none;" d="M373 610L374 611L373 610z"/>
<path style="fill:#c2def0; stroke:none;" d="M663 610L664 611L663 610M936 610L937 611L936 610M1117 610L1118 611L1117 610z"/>
<path style="fill:#70b1dc; stroke:none;" d="M662 611L663 612L662 611M937 611L938 612L937 611M1116 611L1117 612L1116 611M372 612L373 613L372 612M661 612L662 613L661 612M938 612L939 613L938 612M1114 612L1115 613L1114 612z"/>
<path style="fill:#c2def0; stroke:none;" d="M372 613L373 614L372 613M659 613L660 614L659 613M940 613L941 614L940 613M1112 613L1113 614L1112 613z"/>
<path style="fill:#70b1dc; stroke:none;" d="M371 614L372 615L371 614M658 614L659 615L658 614M941 614L942 615L941 614z"/>
<path style="fill:#c2def0; stroke:none;" d="M1110 614L1111 615L1110 614M371 615L372 616L371 615z"/>
<path style="fill:#70b1dc; stroke:none;" d="M657 615L658 616L657 615M942 615L943 616L942 615M1109 615L1110 616L1109 615z"/>
<path style="fill:#c2def0; stroke:none;" d="M655 616L656 617L655 616M944 616L945 617L944 616z"/>
<path style="fill:#70b1dc; stroke:none;" d="M1107 616L1108 617L1107 616M370 617L371 618L370 617z"/>
<path style="fill:#c2def0; stroke:none;" d="M654 617L655 618L654 617M945 617L946 618L945 617M1105 617L1106 618L1105 617z"/>
<path style="fill:#70b1dc; stroke:none;" d="M653 618L654 619L653 618M946 618L947 619L946 618z"/>
<path style="fill:#c2def0; stroke:none;" d="M1103 618L1104 619L1103 618z"/>
<path style="fill:#70b1dc; stroke:none;" d="M369 619L370 620L369 619M652 619L653 620L652 619M947 619L948 620L947 619M1102 619L1103 620L1102 619z"/>
<path style="fill:#c2def0; stroke:none;" d="M369 620L370 621L369 620M650 620L651 621L650 620M949 620L950 621L949 620z"/>
<path style="fill:#70b1dc; stroke:none;" d="M1100 620L1101 621L1100 620z"/>
<path style="fill:#c2def0; stroke:none;" d="M649 621L650 622L649 621M950 621L951 622L950 621M1098 621L1099 622L1098 621M368 622L369 623L368 622M648 622L649 623L648 622M951 622L952 623L951 622M1096 622L1097 623L1096 622z"/>
<path style="fill:#70b1dc; stroke:none;" d="M647 623L648 624L647 623M952 623L953 624L952 623M1095 623L1096 624L1095 623M367 624L368 625L367 624M646 624L647 625L646 624M953 624L954 625L953 624M1093 624L1094 625L1093 624z"/>
<path style="fill:#c2def0; stroke:none;" d="M367 625L368 626L367 625z"/>
<path style="fill:#70b1dc; stroke:none;" d="M645 625L646 626L645 625M954 625L955 626L954 625z"/>
<path style="fill:#c2def0; stroke:none;" d="M1091 625L1092 626L1091 625z"/>
<path style="fill:#70b1dc; stroke:none;" d="M366 626L367 627L366 626z"/>
<path style="fill:#c2def0; stroke:none;" d="M1089 626L1090 627L1089 626M366 627L367 628L366 627M642 627L643 628L642 627M957 627L958 628L957 627z"/>
<path style="fill:#70b1dc; stroke:none;" d="M1088 627L1089 628L1088 627z"/>
<path style="fill:#c2def0; stroke:none;" d="M641 628L642 629L641 628M958 628L959 629L958 628z"/>
<path style="fill:#70b1dc; stroke:none;" d="M1086 628L1087 629L1086 628M365 629L366 630L365 629z"/>
<path style="fill:#c2def0; stroke:none;" d="M640 629L641 630L640 629M959 629L960 630L959 629M1084 629L1085 630L1084 629M639 630L640 631L639 630M960 630L961 631L960 630M1082 630L1083 631L1082 630z"/>
<path style="fill:#70b1dc; stroke:none;" d="M364 631L365 632L364 631z"/>
<path style="fill:#c2def0; stroke:none;" d="M638 631L639 632L638 631M961 631L962 632L961 631z"/>
<path style="fill:#70b1dc; stroke:none;" d="M1081 631L1082 632L1081 631z"/>
<path style="fill:#c2def0; stroke:none;" d="M364 632L365 633L364 632M637 632L638 633L637 632M962 632L963 633L962 632z"/>
<path style="fill:#70b1dc; stroke:none;" d="M1079 632L1080 633L1079 632z"/>
<path style="fill:#c2def0; stroke:none;" d="M636 633L637 634L636 633M963 633L964 634L963 633M1077 633L1078 634L1077 633z"/>
<path style="fill:#70b1dc; stroke:none;" d="M363 634L364 635L363 634z"/>
<path style="fill:#c2def0; stroke:none;" d="M635 634L636 635L635 634M964 634L965 635L964 634M1075 634L1076 635L1075 634M363 635L364 636L363 635M634 635L635 636L634 635M965 635L966 636L965 635z"/>
<path style="fill:#70b1dc; stroke:none;" d="M1074 635L1075 636L1074 635z"/>
<path style="fill:#c2def0; stroke:none;" d="M633 636L634 637L633 636M966 636L967 637L966 636z"/>
<path style="fill:#70b1dc; stroke:none;" d="M1072 636L1073 637L1072 636M362 637L363 638L362 637z"/>
<path style="fill:#c2def0; stroke:none;" d="M632 637L633 638L632 637M967 637L968 638L967 637M1070 637L1071 638L1070 637M631 638L632 639L631 638M968 638L969 639L968 638M1068 638L1069 639L1068 638z"/>
<path style="fill:#70b1dc; stroke:none;" d="M361 639L362 640L361 639z"/>
<path style="fill:#c2def0; stroke:none;" d="M630 639L631 640L630 639M969 639L970 640L969 639z"/>
<path style="fill:#70b1dc; stroke:none;" d="M1067 639L1068 640L1067 639z"/>
<path style="fill:#c2def0; stroke:none;" d="M361 640L362 641L361 640M629 640L630 641L629 640M970 640L971 641L970 640z"/>
<path style="fill:#70b1dc; stroke:none;" d="M1065 640L1066 641L1065 640z"/>
<path style="fill:#c2def0; stroke:none;" d="M628 641L629 642L628 641M971 641L972 642L971 641M1063 641L1064 642L1063 641z"/>
<path style="fill:#70b1dc; stroke:none;" d="M360 642L361 643L360 642z"/>
<path style="fill:#c2def0; stroke:none;" d="M627 642L628 643L627 642M972 642L973 643L972 642M1061 642L1062 643L1061 642M360 643L361 644L360 643z"/>
<path style="fill:#70b1dc; stroke:none;" d="M1060 643L1061 644L1060 643M1058 644L1059 645L1058 644M359 645L360 646L359 645M625 645L626 646L625 645M974 645L975 646L974 645z"/>
<path style="fill:#c2def0; stroke:none;" d="M1056 645L1057 646L1056 645M359 646L360 647L359 646z"/>
<path style="fill:#70b1dc; stroke:none;" d="M624 646L625 647L624 646M975 646L976 647L975 646z"/>
<path style="fill:#c2def0; stroke:none;" d="M1054 646L1055 647L1054 646z"/>
<path style="fill:#70b1dc; stroke:none;" d="M623 647L624 648L623 647M976 647L977 648L976 647M1053 647L1054 648L1053 647M358 648L359 649L358 648z"/>
<path style="fill:#c2def0; stroke:none;" d="M622 648L623 649L622 648M977 648L978 649L977 648z"/>
<path style="fill:#70b1dc; stroke:none;" d="M1051 648L1052 649L1051 648z"/>
<path style="fill:#c2def0; stroke:none;" d="M358 649L359 650L358 649M621 649L622 650L621 649M978 649L979 650L978 649M1049 649L1050 650L1049 649M620 650L621 651L620 650M979 650L980 651L979 650M1047 650L1048 651L1047 650z"/>
<path style="fill:#70b1dc; stroke:none;" d="M357 651L358 652L357 651M1046 651L1047 652L1046 651z"/>
<path style="fill:#c2def0; stroke:none;" d="M357 652L358 653L357 652z"/>
<path style="fill:#70b1dc; stroke:none;" d="M619 652L620 653L619 652M980 652L981 653L980 652M1044 652L1045 653L1044 652M618 653L619 654L618 653M981 653L982 654L981 653z"/>
<path style="fill:#c2def0; stroke:none;" d="M1042 653L1043 654L1042 653z"/>
<path style="fill:#70b1dc; stroke:none;" d="M356 654L357 655L356 654z"/>
<path style="fill:#c2def0; stroke:none;" d="M617 654L618 655L617 654M982 654L983 655L982 654M1040 654L1041 655L1040 654M356 655L357 656L356 655M616 655L617 656L616 655M983 655L984 656L983 655z"/>
<path style="fill:#70b1dc; stroke:none;" d="M1039 655L1040 656L1039 655M1037 656L1038 657L1037 656M355 657L356 658L355 657M615 657L616 658L615 657M984 657L985 658L984 657z"/>
<path style="fill:#c2def0; stroke:none;" d="M1035 657L1036 658L1035 657M355 658L356 659L355 658z"/>
<path style="fill:#70b1dc; stroke:none;" d="M614 658L615 659L614 658M985 658L986 659L985 658z"/>
<path style="fill:#c2def0; stroke:none;" d="M1033 658L1034 659L1033 658M613 659L614 660L613 659M986 659L987 660L986 659z"/>
<path style="fill:#70b1dc; stroke:none;" d="M1032 659L1033 660L1032 659M354 660L355 661L354 660M1030 660L1031 661L1030 660z"/>
<path style="fill:#c2def0; stroke:none;" d="M354 661L355 662L354 661z"/>
<path style="fill:#70b1dc; stroke:none;" d="M612 661L613 662L612 661M987 661L988 662L987 661z"/>
<path style="fill:#c2def0; stroke:none;" d="M1028 661L1029 662L1028 661z"/>
<path style="fill:#70b1dc; stroke:none;" d="M611 662L612 663L611 662M988 662L989 663L988 662z"/>
<path style="fill:#c2def0; stroke:none;" d="M1026 662L1027 663L1026 662z"/>
<path style="fill:#70b1dc; stroke:none;" d="M353 663L354 664L353 663z"/>
<path style="fill:#c2def0; stroke:none;" d="M610 663L611 664L610 663M989 663L990 664L989 663z"/>
<path style="fill:#70b1dc; stroke:none;" d="M1025 663L1026 664L1025 663z"/>
<path style="fill:#c2def0; stroke:none;" d="M353 664L354 665L353 664z"/>
<path style="fill:#70b1dc; stroke:none;" d="M1023 664L1024 665L1023 664M609 665L610 666L609 665M990 665L991 666L990 665z"/>
<path style="fill:#c2def0; stroke:none;" d="M1021 665L1022 666L1021 665M608 666L609 667L608 666M991 666L992 667L991 666M1019 666L1020 667L1019 666z"/>
<path style="fill:#70b1dc; stroke:none;" d="M352 667L353 668L352 667M1018 667L1019 668L1018 667z"/>
<path style="fill:#c2def0; stroke:none;" d="M352 668L353 669L352 668z"/>
<path style="fill:#70b1dc; stroke:none;" d="M607 668L608 669L607 668M992 668L993 669L992 668M1016 668L1017 669L1016 668z"/>
<path style="fill:#c2def0; stroke:none;" d="M606 669L607 670L606 669M993 669L994 670L993 669M1014 669L1015 670L1014 669z"/>
<path style="fill:#70b1dc; stroke:none;" d="M351 670L352 671L351 670z"/>
<path style="fill:#c2def0; stroke:none;" d="M1012 670L1013 671L1012 670M351 671L352 672L351 671z"/>
<path style="fill:#70b1dc; stroke:none;" d="M605 671L606 672L605 671M994 671L995 672L994 671M1011 671L1012 672L1011 671z"/>
<path style="fill:#c2def0; stroke:none;" d="M604 672L605 673L604 672M995 672L996 673L995 672z"/>
<path style="fill:#70b1dc; stroke:none;" d="M1009 672L1010 673L1009 672M350.333 673.667L350.667 674.333L350.333 673.667z"/>
<path style="fill:#c2def0; stroke:none;" d="M1007 673L1008 674L1007 673z"/>
<path style="fill:#70b1dc; stroke:none;" d="M603 674L604 675L603 674M996 674L997 675L996 674z"/>
<path style="fill:#c2def0; stroke:none;" d="M1005 674L1006 675L1005 674z"/>
<path style="fill:#70b1dc; stroke:none;" d="M1006 674L1007 675L1006 674z"/>
<path style="fill:#c2def0; stroke:none;" d="M350 675L351 676L350 675M602 675L603 676L602 675M997 675L998 676L997 675z"/>
<path style="fill:#70b1dc; stroke:none;" d="M1004 675L1005 676L1004 675M1002 676L1003 677L1002 676M349 677L350 678L349 677M601 677L602 678L601 677M998 677L999 678L998 677z"/>
<path style="fill:#c2def0; stroke:none;" d="M1000 677L1001 678L1000 677M349 678L350 679L349 678M600 678L601 679L600 678M599 680L600 681L599 680z"/>
<path style="fill:#70b1dc; stroke:none;" d="M348 681L349 682L348 681z"/>
<path style="fill:#c2def0; stroke:none;" d="M348 682L349 683L348 682z"/>
<path style="fill:#70b1dc; stroke:none;" d="M598 682L599 683L598 682M597 684L598 685L597 684M347 685L348 686L347 685z"/>
<path style="fill:#c2def0; stroke:none;" d="M596 685L597 686L596 685M347 686L348 687L347 686M595 687L596 688L595 687z"/>
<path style="fill:#70b1dc; stroke:none;" d="M346 689L347 690L346 689M594 689L595 690L594 689z"/>
<path style="fill:#c2def0; stroke:none;" d="M346 690L347 691L346 690z"/>
<path style="fill:#70b1dc; stroke:none;" d="M593 691L594 692L593 691M345 693L346 694L345 693M592 693L593 694L592 693z"/>
<path style="fill:#c2def0; stroke:none;" d="M345 694L346 695L345 694z"/>
<path style="fill:#70b1dc; stroke:none;" d="M591 695L592 696L591 695M344.333 697.667L344.667 698.333L344.333 697.667M590 697L591 698L590 697z"/>
<path style="fill:#c2def0; stroke:none;" d="M589 698L590 699L589 698M344 699L345 700L344 699z"/>
<path style="fill:#70b1dc; stroke:none;" d="M589 699L590 700L589 699z"/>
<path style="fill:#c2def0; stroke:none;" d="M1033 700L1033 767L1034 767L1034 721L1033 700z"/>
<path style="fill:#ffffff; stroke:none;" d="M1034 700L1034 767L967 767L967 833L1034 833L1034 900L1100 900L1100 833L1166 833L1166 767L1100 767L1100 700L1034 700z"/>
<path style="fill:#70b1dc; stroke:none;" d="M1266 700L1266 766L1200 766L1200 767L1267 767L1267 721L1266 700z"/>
<path style="fill:#ffffff; stroke:none;" d="M1267 700L1267 767L1200 767L1200 833L1267 833L1267 900L1333 900L1333 833L1400 833L1400 767L1333 767L1333 700L1267 700z"/>
<path style="fill:#70b1dc; stroke:none;" d="M1333 700L1333 767L1400 767L1400 766L1334 766L1334 721L1333 700M588 701L589 702L588 701M343 702L344 703L343 702z"/>
<path style="fill:#c2def0; stroke:none;" d="M343.333 703.667L343.667 704.333L343.333 703.667M587 703L588 704L587 703M586 705L587 706L586 705z"/>
<path style="fill:#70b1dc; stroke:none;" d="M342.333 706.667L342.667 707.333L342.333 706.667z"/>
<path style="fill:#c2def0; stroke:none;" d="M585 707L586 708L585 707M342.333 708.667L342.667 709.333L342.333 708.667z"/>
<path style="fill:#70b1dc; stroke:none;" d="M585 708L586 709L585 708M584 710L585 711L584 710M341.333 711.667L341.667 712.333L341.333 711.667z"/>
<path style="fill:#c2def0; stroke:none;" d="M583 712L584 713L583 712M341.333 713.667L341.667 714.333L341.333 713.667z"/>
<path style="fill:#70b1dc; stroke:none;" d="M583 713L584 714L583 713M582 715L583 716L582 715M340.333 717.667L340.667 718.333L340.333 717.667z"/>
<path style="fill:#c2def0; stroke:none;" d="M581 717L582 718L581 717z"/>
<path style="fill:#70b1dc; stroke:none;" d="M581 718L582 719L581 718z"/>
<path style="fill:#c2def0; stroke:none;" d="M340 719L341 720L340 719M580 720L581 721L580 720z"/>
<path style="fill:#70b1dc; stroke:none;" d="M580 721L581 722L580 721M339.333 723.667L339.667 724.333L339.333 723.667M579.333 723.667L579.667 724.333L579.333 723.667z"/>
<path style="fill:#c2def0; stroke:none;" d="M339 725L340 726L339 725z"/>
<path style="fill:#70b1dc; stroke:none;" d="M578 726L579 727L578 726M338.333 729.667L338.667 730.333L338.333 729.667M577 729L578 730L577 729z"/>
<path style="fill:#c2def0; stroke:none;" d="M338.333 731.667L338.667 732.333L338.333 731.667M576 732L577 733L576 732z"/>
<path style="fill:#70b1dc; stroke:none;" d="M576 733L577 734L576 733z"/>
<path style="fill:#c2def0; stroke:none;" d="M575 735L576 736L575 735z"/>
<path style="fill:#70b1dc; stroke:none;" d="M337.333 736.667L337.667 737.333L337.333 736.667M575 736L576 737L575 736z"/>
<path style="fill:#c2def0; stroke:none;" d="M337.333 738.667L337.667 739.333L337.333 738.667M574 739L575 740L574 739z"/>
<path style="fill:#70b1dc; stroke:none;" d="M574 740L575 741L574 740z"/>
<path style="fill:#c2def0; stroke:none;" d="M573.333 742.667L573.667 743.333L573.333 742.667z"/>
<path style="fill:#70b1dc; stroke:none;" d="M336 743L336 746L337 746L336 743M573 744L574 745L573 744z"/>
<path style="fill:#c2def0; stroke:none;" d="M336 746L336 749L337 749L336 746M572 747L573 748L572 747z"/>
<path style="fill:#70b1dc; stroke:none;" d="M572 748L573 749L572 748z"/>
<path style="fill:#c2def0; stroke:none;" d="M571 751L572 752L571 751z"/>
<path style="fill:#70b1dc; stroke:none;" d="M335 752L335 756L336 756L335 752M571.333 752.667L571.667 753.333L571.333 752.667z"/>
<path style="fill:#c2def0; stroke:none;" d="M335 756L335 759L336 759L335 756M570.333 756.667L570.667 757.333L570.333 756.667z"/>
<path style="fill:#70b1dc; stroke:none;" d="M570.333 758.667L570.667 759.333L570.333 758.667z"/>
<path style="fill:#c2def0; stroke:none;" d="M569 762L570 763L569 762z"/>
<path style="fill:#70b1dc; stroke:none;" d="M334 763L334 768L335 768L334 763M569.333 763.667L569.667 764.333L569.333 763.667M967 766L967 767L1033 767L1012 766L967 766M1100 766L1100 767L1166 767L1145 766L1100 766M966 767L966 833L967 833L967 788L966 767z"/>
<path style="fill:#c2def0; stroke:none;" d="M1166 767L1166 833L1167 833L1167 788L1166 767M334 768L334 773L335 773L334 768M568.333 768.667L568.667 769.333L568.333 768.667z"/>
<path style="fill:#70b1dc; stroke:none;" d="M568 770L568 773L569 773L568 770z"/>
<path style="fill:#c2def0; stroke:none;" d="M567 776L567 780L568 780L567 776z"/>
<path style="fill:#70b1dc; stroke:none;" d="M567 780L567 784L568 784L567 780M333 781L333 795L334 795L333 781z"/>
<path style="fill:#c2def0; stroke:none;" d="M566 791L566 809L567 809L566 791M333 795L333 805L334 805L333 795z"/>
<path style="fill:#70b1dc; stroke:none;" d="M333 805L333 819L334 819L333 805M567 816L567 820L568 820L567 816z"/>
<path style="fill:#c2def0; stroke:none;" d="M567 820L567 824L568 824L567 820M334 827L334 832L335 832L334 827z"/>
<path style="fill:#70b1dc; stroke:none;" d="M568 827L568 830L569 830L568 827z"/>
<path style="fill:#c2def0; stroke:none;" d="M568.333 830.667L568.667 831.333L568.333 830.667z"/>
<path style="fill:#70b1dc; stroke:none;" d="M334 832L334 837L335 837L334 832M967 833L967 834L1033 834L1012 833L967 833z"/>
<path style="fill:#c2def0; stroke:none;" d="M1033 833L1033 900L1034 900L1034 854L1033 833z"/>
<path style="fill:#70b1dc; stroke:none;" d="M1100 833L1100 834L1166 834L1145 833L1100 833M1200 833L1200 834L1266 834L1266 900L1267 900L1267 833L1200 833M1333 833L1333 900L1334 900L1334 834L1400 834L1379 833L1333 833M569.333 835.667L569.667 836.333L569.333 835.667z"/>
<path style="fill:#c2def0; stroke:none;" d="M569 837L570 838L569 837z"/>
<path style="fill:#70b1dc; stroke:none;" d="M570.333 840.667L570.667 841.333L570.333 840.667z"/>
<path style="fill:#c2def0; stroke:none;" d="M335 841L335 844L336 844L335 841M570.333 842.667L570.667 843.333L570.333 842.667z"/>
<path style="fill:#70b1dc; stroke:none;" d="M335 844L335 848L336 848L335 844M571.333 846.667L571.667 847.333L571.333 846.667z"/>
<path style="fill:#c2def0; stroke:none;" d="M571 848L572 849L571 848M336 851L336 854L337 854L336 851z"/>
<path style="fill:#70b1dc; stroke:none;" d="M572 851L573 852L572 851z"/>
<path style="fill:#c2def0; stroke:none;" d="M572 852L573 853L572 852z"/>
<path style="fill:#70b1dc; stroke:none;" d="M336 854L336 857L337 857L336 854M573 855L574 856L573 855z"/>
<path style="fill:#c2def0; stroke:none;" d="M573.333 856.667L573.667 857.333L573.333 856.667z"/>
<path style="fill:#70b1dc; stroke:none;" d="M574 859L575 860L574 859z"/>
<path style="fill:#c2def0; stroke:none;" d="M337.333 860.667L337.667 861.333L337.333 860.667M574 860L575 861L574 860z"/>
<path style="fill:#70b1dc; stroke:none;" d="M337.333 862.667L337.667 863.333L337.333 862.667M575 863L576 864L575 863z"/>
<path style="fill:#c2def0; stroke:none;" d="M575 864L576 865L575 864z"/>
<path style="fill:#70b1dc; stroke:none;" d="M576 866L577 867L576 866z"/>
<path style="fill:#c2def0; stroke:none;" d="M338.333 867.667L338.667 868.333L338.333 867.667M576 867L577 868L576 867z"/>
<path style="fill:#70b1dc; stroke:none;" d="M338.333 869.667L338.667 870.333L338.333 869.667M577 870L578 871L577 870M578 873L579 874L578 873z"/>
<path style="fill:#c2def0; stroke:none;" d="M339 874L340 875L339 874z"/>
<path style="fill:#70b1dc; stroke:none;" d="M339.333 875.667L339.667 876.333L339.333 875.667M579.333 875.667L579.667 876.333L579.333 875.667M580 878L581 879L580 878z"/>
<path style="fill:#c2def0; stroke:none;" d="M580 879L581 880L580 879M340 880L341 881L340 880z"/>
<path style="fill:#70b1dc; stroke:none;" d="M340.333 881.667L340.667 882.333L340.333 881.667M581 881L582 882L581 881z"/>
<path style="fill:#c2def0; stroke:none;" d="M581 882L582 883L581 882z"/>
<path style="fill:#70b1dc; stroke:none;" d="M582 884L583 885L582 884z"/>
<path style="fill:#c2def0; stroke:none;" d="M341.333 885.667L341.667 886.333L341.333 885.667z"/>
<path style="fill:#70b1dc; stroke:none;" d="M583 886L584 887L583 886M341.333 887.667L341.667 888.333L341.333 887.667z"/>
<path style="fill:#c2def0; stroke:none;" d="M583 887L584 888L583 887z"/>
<path style="fill:#70b1dc; stroke:none;" d="M584 889L585 890L584 889z"/>
<path style="fill:#c2def0; stroke:none;" d="M342.333 890.667L342.667 891.333L342.333 890.667z"/>
<path style="fill:#70b1dc; stroke:none;" d="M585 891L586 892L585 891M342.333 892.667L342.667 893.333L342.333 892.667z"/>
<path style="fill:#c2def0; stroke:none;" d="M585 892L586 893L585 892z"/>
<path style="fill:#70b1dc; stroke:none;" d="M586 893L587 894L586 893z"/>
<path style="fill:#c2def0; stroke:none;" d="M586 894L587 895L586 894M343.333 895.667L343.667 896.333L343.333 895.667M587 896L588 897L587 896z"/>
<path style="fill:#70b1dc; stroke:none;" d="M343 897L344 898L343 897M588 898L589 899L588 898z"/>
<path style="fill:#c2def0; stroke:none;" d="M344 900L345 901L344 900z"/>
<path style="fill:#70b1dc; stroke:none;" d="M589 900L590 901L589 900M344.333 901.667L344.667 902.333L344.333 901.667z"/>
<path style="fill:#c2def0; stroke:none;" d="M589 901L590 902L589 901z"/>
<path style="fill:#70b1dc; stroke:none;" d="M590 902L591 903L590 902M591 904L592 905L591 904z"/>
<path style="fill:#c2def0; stroke:none;" d="M345 905L346 906L345 905z"/>
<path style="fill:#70b1dc; stroke:none;" d="M345 906L346 907L345 906M592 906L593 907L592 906M593 908L594 909L593 908z"/>
<path style="fill:#c2def0; stroke:none;" d="M346 909L347 910L346 909z"/>
<path style="fill:#70b1dc; stroke:none;" d="M346 910L347 911L346 910M594 910L595 911L594 910M595 912L596 913L595 912z"/>
<path style="fill:#c2def0; stroke:none;" d="M347 913L348 914L347 913z"/>
<path style="fill:#70b1dc; stroke:none;" d="M347 914L348 915L347 914z"/>
<path style="fill:#c2def0; stroke:none;" d="M596 914L597 915L596 914z"/>
<path style="fill:#70b1dc; stroke:none;" d="M597 915L598 916L597 915z"/>
<path style="fill:#c2def0; stroke:none;" d="M597 916L598 917L597 916M348 917L349 918L348 917z"/>
<path style="fill:#70b1dc; stroke:none;" d="M598 917L599 918L598 917M348 918L349 919L348 918z"/>
<path style="fill:#c2def0; stroke:none;" d="M1001 918L1002 919L1001 918z"/>
<path style="fill:#70b1dc; stroke:none;" d="M599 919L600 920L599 919z"/>
<path style="fill:#c2def0; stroke:none;" d="M1000 919L1001 920L1000 919z"/>
<path style="fill:#70b1dc; stroke:none;" d="M1003 919L1004 920L1003 919M1005 920L1006 921L1005 920z"/>
<path style="fill:#c2def0; stroke:none;" d="M349 921L350 922L349 921M600 921L601 922L600 921M999 921L1000 922L999 921z"/>
<path style="fill:#70b1dc; stroke:none;" d="M1007 921L1008 922L1007 921M349 922L350 923L349 922M601 922L602 923L601 922M998 922L999 923L998 922z"/>
<path style="fill:#c2def0; stroke:none;" d="M1008 922L1009 923L1008 922z"/>
<path style="fill:#70b1dc; stroke:none;" d="M1009 922L1010 923L1009 922z"/>
<path style="fill:#c2def0; stroke:none;" d="M1010 923L1011 924L1010 923M350 924L351 925L350 924M602 924L603 925L602 924M997 924L998 925L997 924M1012 924L1013 925L1012 924z"/>
<path style="fill:#70b1dc; stroke:none;" d="M350.333 925.667L350.667 926.333L350.333 925.667M603 925L604 926L603 925M996 925L997 926L996 925M1014 925L1015 926L1014 925M1016 926L1017 927L1016 926z"/>
<path style="fill:#c2def0; stroke:none;" d="M604 927L605 928L604 927M995 927L996 928L995 927M1017 927L1018 928L1017 927z"/>
<path style="fill:#70b1dc; stroke:none;" d="M1018 927L1019 928L1018 927z"/>
<path style="fill:#c2def0; stroke:none;" d="M351 928L352 929L351 928z"/>
<path style="fill:#70b1dc; stroke:none;" d="M605 928L606 929L605 928M994 928L995 929L994 928z"/>
<path style="fill:#c2def0; stroke:none;" d="M1019 928L1020 929L1019 928z"/>
<path style="fill:#70b1dc; stroke:none;" d="M351 929L352 930L351 929z"/>
<path style="fill:#c2def0; stroke:none;" d="M1021 929L1022 930L1021 929z"/>
<path style="fill:#70b1dc; stroke:none;" d="M606 930L607 931L606 930M993 930L994 931L993 930M1023 930L1024 931L1023 930z"/>
<path style="fill:#c2def0; stroke:none;" d="M352 931L353 932L352 931z"/>
<path style="fill:#70b1dc; stroke:none;" d="M607 931L608 932L607 931M992 931L993 932L992 931M1025 931L1026 932L1025 931M352 932L353 933L352 932M1027 932L1028 933L1027 932z"/>
<path style="fill:#c2def0; stroke:none;" d="M608 933L609 934L608 933M991 933L992 934L991 933M1028 933L1029 934L1028 933z"/>
<path style="fill:#70b1dc; stroke:none;" d="M1029 933L1030 934L1029 933M609 934L610 935L609 934M990 934L991 935L990 934z"/>
<path style="fill:#c2def0; stroke:none;" d="M1030 934L1031 935L1030 934M353 935L354 936L353 935M1032 935L1033 936L1032 935z"/>
<path style="fill:#70b1dc; stroke:none;" d="M353 936L354 937L353 936z"/>
<path style="fill:#c2def0; stroke:none;" d="M610 936L611 937L610 936M989 936L990 937L989 936z"/>
<path style="fill:#70b1dc; stroke:none;" d="M1034 936L1035 937L1034 936M611 937L612 938L611 937M988 937L989 938L988 937M1036 937L1037 938L1036 937z"/>
<path style="fill:#c2def0; stroke:none;" d="M354 938L355 939L354 938z"/>
<path style="fill:#70b1dc; stroke:none;" d="M612 938L613 939L612 938M987 938L988 939L987 938z"/>
<path style="fill:#c2def0; stroke:none;" d="M1037 938L1038 939L1037 938z"/>
<path style="fill:#70b1dc; stroke:none;" d="M1038 938L1039 939L1038 938M354 939L355 940L354 939z"/>
<path style="fill:#c2def0; stroke:none;" d="M1039 939L1040 940L1039 939M613 940L614 941L613 940M986 940L987 941L986 940M1041 940L1042 941L1041 940M355 941L356 942L355 941z"/>
<path style="fill:#70b1dc; stroke:none;" d="M614 941L615 942L614 941M985 941L986 942L985 941M1043 941L1044 942L1043 941M355 942L356 943L355 942M615 942L616 943L615 942M984 942L985 943L984 942M1045 942L1046 943L1045 942M1047 943L1048 944L1047 943z"/>
<path style="fill:#c2def0; stroke:none;" d="M356 944L357 945L356 944M616 944L617 945L616 944M983 944L984 945L983 944M1048 944L1049 945L1048 944z"/>
<path style="fill:#70b1dc; stroke:none;" d="M1049 944L1050 945L1049 944M356 945L357 946L356 945z"/>
<path style="fill:#c2def0; stroke:none;" d="M617 945L618 946L617 945M982 945L983 946L982 945M1050 945L1051 946L1050 945z"/>
<path style="fill:#70b1dc; stroke:none;" d="M618 946L619 947L618 946M981 946L982 947L981 946z"/>
<path style="fill:#c2def0; stroke:none;" d="M1052 946L1053 947L1052 946M357 947L358 948L357 947z"/>
<path style="fill:#70b1dc; stroke:none;" d="M619 947L620 948L619 947M980 947L981 948L980 947M1054 947L1055 948L1054 947M357 948L358 949L357 948M1056 948L1057 949L1056 948z"/>
<path style="fill:#c2def0; stroke:none;" d="M620 949L621 950L620 949M979 949L980 950L979 949M1057 949L1058 950L1057 949z"/>
<path style="fill:#70b1dc; stroke:none;" d="M1058 949L1059 950L1058 949z"/>
<path style="fill:#c2def0; stroke:none;" d="M358 950L359 951L358 950M621 950L622 951L621 950M978 950L979 951L978 950M1059 950L1060 951L1059 950z"/>
<path style="fill:#70b1dc; stroke:none;" d="M358 951L359 952L358 951z"/>
<path style="fill:#c2def0; stroke:none;" d="M622 951L623 952L622 951M977 951L978 952L977 951M1061 951L1062 952L1061 951z"/>
<path style="fill:#70b1dc; stroke:none;" d="M623 952L624 953L623 952M976 952L977 953L976 952M1063 952L1064 953L1063 952z"/>
<path style="fill:#c2def0; stroke:none;" d="M359 953L360 954L359 953z"/>
<path style="fill:#70b1dc; stroke:none;" d="M624 953L625 954L624 953M975 953L976 954L975 953M1065 953L1066 954L1065 953M359 954L360 955L359 954M625 954L626 955L625 954M974 954L975 955L974 954M1067 954L1068 955L1067 954z"/>
<path style="fill:#c2def0; stroke:none;" d="M1068 955L1069 956L1068 955z"/>
<path style="fill:#70b1dc; stroke:none;" d="M1069 955L1070 956L1069 955z"/>
<path style="fill:#c2def0; stroke:none;" d="M360 956L361 957L360 956M1070 956L1071 957L1070 956z"/>
<path style="fill:#70b1dc; stroke:none;" d="M360 957L361 958L360 957z"/>
<path style="fill:#c2def0; stroke:none;" d="M627 957L628 958L627 957M972 957L973 958L972 957M1072 957L1073 958L1072 957M628 958L629 959L628 958M971 958L972 959L971 958z"/>
<path style="fill:#70b1dc; stroke:none;" d="M1074 958L1075 959L1074 958z"/>
<path style="fill:#c2def0; stroke:none;" d="M361 959L362 960L361 959M629 959L630 960L629 959M970 959L971 960L970 959z"/>
<path style="fill:#70b1dc; stroke:none;" d="M1076 959L1077 960L1076 959M361 960L362 961L361 960z"/>
<path style="fill:#c2def0; stroke:none;" d="M630 960L631 961L630 960M969 960L970 961L969 960M1077 960L1078 961L1077 960z"/>
<path style="fill:#70b1dc; stroke:none;" d="M1078 960L1079 961L1078 960z"/>
<path style="fill:#c2def0; stroke:none;" d="M631 961L632 962L631 961M968 961L969 962L968 961M1079 961L1080 962L1079 961z"/>
<path style="fill:#70b1dc; stroke:none;" d="M362 962L363 963L362 962z"/>
<path style="fill:#c2def0; stroke:none;" d="M632 962L633 963L632 962M967 962L968 963L967 962M1081 962L1082 963L1081 962M633 963L634 964L633 963M966 963L967 964L966 963z"/>
<path style="fill:#70b1dc; stroke:none;" d="M1083 963L1084 964L1083 963z"/>
<path style="fill:#c2def0; stroke:none;" d="M363 964L364 965L363 964z"/>
<path style="fill:#70b1dc; stroke:none;" d="M634 964L635 965L634 964M965 964L966 965L965 964M1085 964L1086 965L1085 964M363 965L364 966L363 965M635 965L636 966L635 965M964 965L965 966L964 965M1087 965L1088 966L1087 965z"/>
<path style="fill:#c2def0; stroke:none;" d="M636 966L637 967L636 966M963 966L964 967L963 966M1088 966L1089 967L1088 966z"/>
<path style="fill:#70b1dc; stroke:none;" d="M1089 966L1090 967L1089 966z"/>
<path style="fill:#c2def0; stroke:none;" d="M364 967L365 968L364 967M637 967L638 968L637 967M962 967L963 968L962 967M1090 967L1091 968L1090 967z"/>
<path style="fill:#70b1dc; stroke:none;" d="M364 968L365 969L364 968z"/>
<path style="fill:#c2def0; stroke:none;" d="M638 968L639 969L638 968M961 968L962 969L961 968z"/>
<path style="fill:#70b1dc; stroke:none;" d="M1092 968L1093 969L1092 968z"/>
<path style="fill:#c2def0; stroke:none;" d="M365 969L366 970L365 969M639 969L640 970L639 969M960 969L961 970L960 969z"/>
<path style="fill:#70b1dc; stroke:none;" d="M1094 969L1095 970L1094 969M365 970L366 971L365 970z"/>
<path style="fill:#c2def0; stroke:none;" d="M640 970L641 971L640 970M959 970L960 971L959 970z"/>
<path style="fill:#70b1dc; stroke:none;" d="M1096 970L1097 971L1096 970z"/>
<path style="fill:#c2def0; stroke:none;" d="M641 971L642 972L641 971M958 971L959 972L958 971M1097 971L1098 972L1097 971z"/>
<path style="fill:#70b1dc; stroke:none;" d="M1098 971L1099 972L1098 971z"/>
<path style="fill:#c2def0; stroke:none;" d="M366 972L367 973L366 972M642 972L643 973L642 972M957 972L958 973L957 972M1099 972L1100 973L1099 972z"/>
<path style="fill:#70b1dc; stroke:none;" d="M366 973L367 974L366 973z"/>
<path style="fill:#c2def0; stroke:none;" d="M1101 973L1102 974L1101 973M367 974L368 975L367 974z"/>
<path style="fill:#70b1dc; stroke:none;" d="M645 974L646 975L645 974M954 974L955 975L954 974M1103 974L1104 975L1103 974M367 975L368 976L367 975M646 975L647 976L646 975M953 975L954 976L953 975M1105 975L1106 976L1105 975M647 976L648 977L647 976M952 976L953 977L952 976z"/>
<path style="fill:#c2def0; stroke:none;" d="M1106 976L1107 977L1106 976z"/>
<path style="fill:#70b1dc; stroke:none;" d="M1107 976L1108 977L1107 976z"/>
<path style="fill:#c2def0; stroke:none;" d="M368 977L369 978L368 977M648 977L649 978L648 977M951 977L952 978L951 977M1108 977L1109 978L1108 977z"/>
<path style="fill:#70b1dc; stroke:none;" d="M1109 977L1110 978L1109 977z"/>
<path style="fill:#c2def0; stroke:none;" d="M649 978L650 979L649 978M950 978L951 979L950 978M1110 978L1111 979L1110 978M369 979L370 980L369 979M650 979L651 980L650 979M949 979L950 980L949 979z"/>
<path style="fill:#70b1dc; stroke:none;" d="M1112 979L1113 980L1112 979M369 980L370 981L369 980M652 980L653 981L652 980M947 980L948 981L947 980M1114 980L1115 981L1114 980M653 981L654 982L653 981M946 981L947 982L946 981M1116 981L1117 982L1116 981M370 982L371 983L370 982z"/>
<path style="fill:#c2def0; stroke:none;" d="M654 982L655 983L654 982M945 982L946 983L945 982M1117 982L1118 983L1117 982z"/>
<path style="fill:#70b1dc; stroke:none;" d="M1118 982L1119 983L1118 982z"/>
<path style="fill:#c2def0; stroke:none;" d="M655 983L656 984L655 983M944 983L945 984L944 983M1119 983L1120 984L1119 983M371 984L372 985L371 984z"/>
<path style="fill:#70b1dc; stroke:none;" d="M657 984L658 985L657 984M942 984L943 985L942 984z"/>
<path style="fill:#c2def0; stroke:none;" d="M1121 984L1122 985L1121 984z"/>
<path style="fill:#70b1dc; stroke:none;" d="M371 985L372 986L371 985M658 985L659 986L658 985M941 985L942 986L941 985M1123 985L1124 986L1123 985z"/>
<path style="fill:#c2def0; stroke:none;" d="M372 986L373 987L372 986M659 986L660 987L659 986M940 986L941 987L940 986z"/>
<path style="fill:#70b1dc; stroke:none;" d="M1125 986L1126 987L1125 986M372 987L373 988L372 987M661 987L662 988L661 987M938 987L939 988L938 987z"/>
<path style="fill:#c2def0; stroke:none;" d="M1126 987L1127 988L1126 987z"/>
<path style="fill:#70b1dc; stroke:none;" d="M1127 987L1128 988L1127 987M662 988L663 989L662 988M937 988L938 989L937 988z"/>
<path style="fill:#c2def0; stroke:none;" d="M1128 988L1129 989L1128 988z"/>
<path style="fill:#70b1dc; stroke:none;" d="M373 989L374 990L373 989z"/>
<path style="fill:#c2def0; stroke:none;" d="M663 989L664 990L663 989M936 989L937 990L936 989M1130 989L1131 990L1130 989z"/>
<path style="fill:#70b1dc; stroke:none;" d="M665 990L666 991L665 990M934 990L935 991L934 990M1132 990L1133 991L1132 990z"/>
<path style="fill:#c2def0; stroke:none;" d="M374 991L375 992L374 991M666 991L667 992L666 991M933 991L934 992L933 991z"/>
<path style="fill:#70b1dc; stroke:none;" d="M1134 991L1135 992L1134 991M668 992L669 993L668 992M931 992L932 993L931 992M1136 992L1137 993L1136 992z"/>
<path style="fill:#c2def0; stroke:none;" d="M375 993L376 994L375 993z"/>
<path style="fill:#70b1dc; stroke:none;" d="M669 993L670 994L669 993M930 993L931 994L930 993z"/>
<path style="fill:#c2def0; stroke:none;" d="M1137 993L1138 994L1137 993z"/>
<path style="fill:#70b1dc; stroke:none;" d="M1138 993L1139 994L1138 993M375 994L376 995L375 994M671 994L672 995L671 994M928 994L929 995L928 994z"/>
<path style="fill:#c2def0; stroke:none;" d="M1139 994L1140 995L1139 994M376 995L377 996L376 995M672 995L673 996L672 995M927 995L928 996L927 995M1141 995L1142 996L1141 995z"/>
<path style="fill:#70b1dc; stroke:none;" d="M376 996L377 997L376 996M674 996L675 997L674 996M925 996L926 997L925 996M1143 996L1144 997L1143 996z"/>
<path style="fill:#c2def0; stroke:none;" d="M377 997L378 998L377 997M675 997L676 998L675 997M924 997L925 998L924 997z"/>
<path style="fill:#70b1dc; stroke:none;" d="M1145 997L1146 998L1145 997M377 998L378 999L377 998M677 998L678 999L677 998M922 998L923 999L922 998z"/>
<path style="fill:#c2def0; stroke:none;" d="M1146 998L1147 999L1146 998z"/>
<path style="fill:#70b1dc; stroke:none;" d="M1147 998L1148 999L1147 998z"/>
<path style="fill:#c2def0; stroke:none;" d="M678 999L679 1000L678 999M921 999L922 1000L921 999M1148 999L1149 1000L1148 999z"/>
<path style="fill:#70b1dc; stroke:none;" d="M378 1000L379 1001L378 1000z"/>
<path style="fill:#c2def0; stroke:none;" d="M680 1000L681 1001L680 1000M919 1000L920 1001L919 1000M1150 1000L1151 1001L1150 1000z"/>
<path style="fill:#70b1dc; stroke:none;" d="M682 1001L683 1002L682 1001M917 1001L918 1002L917 1001M1152 1001L1153 1002L1152 1001M379 1002L380 1003L379 1002M684 1002L685 1003L684 1002M915 1002L916 1003L915 1002M1154 1002L1155 1003L1154 1002z"/>
<path style="fill:#c2def0; stroke:none;" d="M685 1003L686 1004L685 1003M914 1003L915 1004L914 1003z"/>
<path style="fill:#70b1dc; stroke:none;" d="M1156 1003L1157 1004L1156 1003M380 1004L381 1005L380 1004M687 1004L688 1005L687 1004M912 1004L913 1005L912 1004z"/>
<path style="fill:#c2def0; stroke:none;" d="M1157 1004L1158 1005L1157 1004z"/>
<path style="fill:#70b1dc; stroke:none;" d="M1158 1004L1159 1005L1158 1004M689 1005L690 1006L689 1005M910 1005L911 1006L910 1005z"/>
<path style="fill:#c2def0; stroke:none;" d="M1159 1005L1160 1006L1159 1005z"/>
<path style="fill:#70b1dc; stroke:none;" d="M381 1006L382 1007L381 1006M691 1006L692 1007L691 1006M908 1006L909 1007L908 1006z"/>
<path style="fill:#c2def0; stroke:none;" d="M1161 1006L1162 1007L1161 1006z"/>
<path style="fill:#70b1dc; stroke:none;" d="M693 1007L694 1008L693 1007M906 1007L907 1008L906 1007M1163 1007L1164 1008L1163 1007M382 1008L383 1009L382 1008M695 1008L696 1009L695 1008M904 1008L905 1009L904 1008M1165 1008L1166 1009L1165 1008M697 1009L698 1010L697 1009M902 1009L903 1010L902 1009z"/>
<path style="fill:#c2def0; stroke:none;" d="M1166 1009L1167 1010L1166 1009z"/>
<path style="fill:#70b1dc; stroke:none;" d="M1167 1009L1168 1010L1167 1009M383 1010L384 1011L383 1010z"/>
<path style="fill:#c2def0; stroke:none;" d="M698 1010L699 1011L698 1010z"/>
<path style="fill:#70b1dc; stroke:none;" d="M699 1010L700 1011L699 1010M900 1010L901 1011L900 1010z"/>
<path style="fill:#c2def0; stroke:none;" d="M1168 1010L1169 1011L1168 1010z"/>
<path style="fill:#70b1dc; stroke:none;" d="M701 1011L702 1012L701 1011M898 1011L899 1012L898 1011z"/>
<path style="fill:#c2def0; stroke:none;" d="M1170 1011L1171 1012L1170 1011z"/>
<path style="fill:#70b1dc; stroke:none;" d="M384 1012L385 1013L384 1012M703 1012L704 1013L703 1012M896 1012L897 1013L896 1012M1172 1012L1173 1013L1172 1012z"/>
<path style="fill:#c2def0; stroke:none;" d="M705 1013L706 1014L705 1013M894 1013L895 1014L894 1013z"/>
<path style="fill:#70b1dc; stroke:none;" d="M1174 1013L1175 1014L1174 1013M385 1014L386 1015L385 1014z"/>
<path style="fill:#c2def0; stroke:none;" d="M707 1014L708 1015L707 1014z"/>
<path style="fill:#70b1dc; stroke:none;" d="M708 1014L709 1015L708 1014M891 1014L892 1015L891 1014z"/>
<path style="fill:#c2def0; stroke:none;" d="M892 1014L893 1015L892 1014z"/>
<path style="fill:#70b1dc; stroke:none;" d="M1176 1014L1177 1015L1176 1014M710 1015L711 1016L710 1015M889 1015L890 1016L889 1015z"/>
<path style="fill:#c2def0; stroke:none;" d="M1177 1015L1178 1016L1177 1015z"/>
<path style="fill:#70b1dc; stroke:none;" d="M1178 1015L1179 1016L1178 1015M386 1016L387 1017L386 1016z"/>
<path style="fill:#c2def0; stroke:none;" d="M712 1016L713 1017L712 1016z"/>
<path style="fill:#70b1dc; stroke:none;" d="M713 1016L714 1017L713 1016M886 1016L887 1017L886 1016z"/>
<path style="fill:#c2def0; stroke:none;" d="M887 1016L888 1017L887 1016M1179 1016L1180 1017L1179 1016M387 1017L388 1018L387 1017z"/>
<path style="fill:#70b1dc; stroke:none;" d="M715 1017L716 1018L715 1017M884 1017L885 1018L884 1017z"/>
<path style="fill:#c2def0; stroke:none;" d="M1181 1017L1182 1018L1181 1017z"/>
<path style="fill:#70b1dc; stroke:none;" d="M387 1018L388 1019L387 1018z"/>
<path style="fill:#c2def0; stroke:none;" d="M717 1018L718 1019L717 1018z"/>
<path style="fill:#70b1dc; stroke:none;" d="M718 1018L719 1019L718 1018M881 1018L882 1019L881 1018z"/>
<path style="fill:#c2def0; stroke:none;" d="M882 1018L883 1019L882 1018z"/>
<path style="fill:#70b1dc; stroke:none;" d="M1183 1018L1184 1019L1183 1018z"/>
<path style="fill:#c2def0; stroke:none;" d="M388 1019L389 1020L388 1019z"/>
<path style="fill:#70b1dc; stroke:none;" d="M720 1019L721 1020L720 1019M878.667 1019.33L879.333 1019.67L878.667 1019.33M1185 1019L1186 1020L1185 1019M388 1020L389 1021L388 1020M723 1020L724 1021L723 1020M876 1020L877 1021L876 1020z"/>
<path style="fill:#c2def0; stroke:none;" d="M1186 1020L1187 1021L1186 1020z"/>
<path style="fill:#70b1dc; stroke:none;" d="M1187 1020L1188 1021L1187 1020z"/>
<path style="fill:#c2def0; stroke:none;" d="M389 1021L390 1022L389 1021z"/>
<path style="fill:#70b1dc; stroke:none;" d="M726 1021L727 1022L726 1021M873 1021L874 1022L873 1021z"/>
<path style="fill:#c2def0; stroke:none;" d="M1188 1021L1189 1022L1188 1021z"/>
<path style="fill:#70b1dc; stroke:none;" d="M729 1022L730 1023L729 1022M870 1022L871 1023L870 1022z"/>
<path style="fill:#c2def0; stroke:none;" d="M1190 1022L1191 1023L1190 1022M390 1023L391 1024L390 1023M732 1023L733 1024L732 1023z"/>
<path style="fill:#70b1dc; stroke:none;" d="M733 1023L734 1024L733 1023M866 1023L867 1024L866 1023z"/>
<path style="fill:#c2def0; stroke:none;" d="M867 1023L868 1024L867 1023z"/>
<path style="fill:#70b1dc; stroke:none;" d="M1192 1023L1193 1024L1192 1023z"/>
<path style="fill:#c2def0; stroke:none;" d="M735 1024L736 1025L735 1024z"/>
<path style="fill:#70b1dc; stroke:none;" d="M736 1024L737 1025L736 1024M863 1024L864 1025L863 1024z"/>
<path style="fill:#c2def0; stroke:none;" d="M864 1024L865 1025L864 1024z"/>
<path style="fill:#70b1dc; stroke:none;" d="M1194 1024L1195 1025L1194 1024M391 1025L392 1026L391 1025z"/>
<path style="fill:#c2def0; stroke:none;" d="M739 1025L740 1026L739 1025z"/>
<path style="fill:#70b1dc; stroke:none;" d="M740 1025L741 1026L740 1025M859 1025L860 1026L859 1025z"/>
<path style="fill:#c2def0; stroke:none;" d="M860 1025L861 1026L860 1025z"/>
<path style="fill:#70b1dc; stroke:none;" d="M1196 1025L1197 1026L1196 1025z"/>
<path style="fill:#c2def0; stroke:none;" d="M742 1026L743 1027L742 1026z"/>
<path style="fill:#70b1dc; stroke:none;" d="M743.667 1026.33L744.333 1026.67L743.667 1026.33M855.667 1026.33L856.333 1026.67L855.667 1026.33z"/>
<path style="fill:#c2def0; stroke:none;" d="M857 1026L858 1027L857 1026M1197 1026L1198 1027L1197 1026z"/>
<path style="fill:#70b1dc; stroke:none;" d="M1198 1026L1199 1027L1198 1026M392 1027L393 1028L392 1027z"/>
<path style="fill:#c2def0; stroke:none;" d="M747 1027L748 1028L747 1027z"/>
<path style="fill:#70b1dc; stroke:none;" d="M748 1027L749 1028L748 1027M851 1027L852 1028L851 1027z"/>
<path style="fill:#c2def0; stroke:none;" d="M852 1027L853 1028L852 1027M1199 1027L1200 1028L1199 1027M393 1028L394 1029L393 1028M751 1028L752 1029L751 1028z"/>
<path style="fill:#70b1dc; stroke:none;" d="M752.667 1028.33L753.333 1028.67L752.667 1028.33M846.667 1028.33L847.333 1028.67L846.667 1028.33z"/>
<path style="fill:#c2def0; stroke:none;" d="M848 1028L849 1029L848 1028M1201 1028L1202 1029L1201 1028z"/>
<path style="fill:#70b1dc; stroke:none;" d="M393 1029L394 1030L393 1029z"/>
<path style="fill:#c2def0; stroke:none;" d="M756 1029L757 1030L756 1029z"/>
<path style="fill:#70b1dc; stroke:none;" d="M757.667 1029.33L758.333 1029.67L757.667 1029.33M841.667 1029.33L842.333 1029.67L841.667 1029.33z"/>
<path style="fill:#c2def0; stroke:none;" d="M843 1029L844 1030L843 1029z"/>
<path style="fill:#70b1dc; stroke:none;" d="M1203 1029L1204 1030L1203 1029z"/>
<path style="fill:#c2def0; stroke:none;" d="M394 1030L395 1031L394 1030M762 1030L763 1031L762 1030z"/>
<path style="fill:#70b1dc; stroke:none;" d="M763.667 1030.33L764.333 1030.67L763.667 1030.33M835.667 1030.33L836.333 1030.67L835.667 1030.33z"/>
<path style="fill:#c2def0; stroke:none;" d="M837 1030L838 1031L837 1030z"/>
<path style="fill:#70b1dc; stroke:none;" d="M1205 1030L1206 1031L1205 1030z"/>
<path style="fill:#c2def0; stroke:none;" d="M768.667 1031.33L769.333 1031.67L768.667 1031.33z"/>
<path style="fill:#70b1dc; stroke:none;" d="M770 1031L770 1032L773 1032L770 1031M827 1031L827 1032L830 1032L827 1031z"/>
<path style="fill:#c2def0; stroke:none;" d="M830.667 1031.33L831.333 1031.67L830.667 1031.33z"/>
<path style="fill:#70b1dc; stroke:none;" d="M395 1032L396 1033L395 1032z"/>
<path style="fill:#c2def0; stroke:none;" d="M776 1032L776 1033L779 1033L776 1032z"/>
<path style="fill:#70b1dc; stroke:none;" d="M779 1032L779 1033L784 1033L779 1032M816 1032L816 1033L821 1033L816 1032z"/>
<path style="fill:#c2def0; stroke:none;" d="M821 1032L821 1033L824 1033L821 1032z"/>
<path style="fill:#70b1dc; stroke:none;" d="M1204 1032L1205 1033L1204 1032z"/>
<path style="fill:#c2def0; stroke:none;" d="M790 1033L790 1034L810 1034L790 1033z"/>
<path style="fill:#70b1dc; stroke:none;" d="M396 1034L397 1035L396 1034M1203 1034L1204 1035L1203 1034z"/>
<path style="fill:#c2def0; stroke:none;" d="M397 1035L398 1036L397 1035M1202 1035L1203 1036L1202 1035M398 1037L399 1038L398 1037M1201 1037L1202 1038L1201 1037z"/>
<path style="fill:#70b1dc; stroke:none;" d="M399 1039L400 1040L399 1039M1200 1039L1201 1040L1200 1039z"/>
<path style="fill:#c2def0; stroke:none;" d="M400 1040L401 1041L400 1040M1199 1040L1200 1041L1199 1040z"/>
<path style="fill:#70b1dc; stroke:none;" d="M400 1041L401 1042L400 1041M1199 1041L1200 1042L1199 1041z"/>
<path style="fill:#c2def0; stroke:none;" d="M401 1042L402 1043L401 1042M1198 1042L1199 1043L1198 1042z"/>
<path style="fill:#70b1dc; stroke:none;" d="M402 1044L403 1045L402 1044M1197 1044L1198 1045L1197 1044z"/>
<path style="fill:#c2def0; stroke:none;" d="M403 1045L404 1046L403 1045M1196 1045L1197 1046L1196 1045z"/>
<path style="fill:#70b1dc; stroke:none;" d="M404 1047L405 1048L404 1047M1195 1047L1196 1048L1195 1047M405 1049L406 1050L405 1049M1194 1049L1195 1050L1194 1049z"/>
<path style="fill:#c2def0; stroke:none;" d="M406 1050L407 1051L406 1050M1193 1050L1194 1051L1193 1050z"/>
<path style="fill:#70b1dc; stroke:none;" d="M407 1052L408 1053L407 1052M1192 1052L1193 1053L1192 1052z"/>
<path style="fill:#c2def0; stroke:none;" d="M408 1053L409 1054L408 1053M1191 1053L1192 1054L1191 1053z"/>
<path style="fill:#70b1dc; stroke:none;" d="M409 1055L410 1056L409 1055M1190 1055L1191 1056L1190 1055z"/>
<path style="fill:#c2def0; stroke:none;" d="M410 1056L411 1057L410 1056M1189 1056L1190 1057L1189 1056z"/>
<path style="fill:#70b1dc; stroke:none;" d="M411 1058L412 1059L411 1058M1188 1058L1189 1059L1188 1058z"/>
<path style="fill:#c2def0; stroke:none;" d="M412 1059L413 1060L412 1059M1187 1059L1188 1060L1187 1059z"/>
<path style="fill:#70b1dc; stroke:none;" d="M413 1061L414 1062L413 1061M1186 1061L1187 1062L1186 1061z"/>
<path style="fill:#c2def0; stroke:none;" d="M414 1062L415 1063L414 1062M1185 1062L1186 1063L1185 1062z"/>
<path style="fill:#70b1dc; stroke:none;" d="M415 1064L416 1065L415 1064M1184 1064L1185 1065L1184 1064z"/>
<path style="fill:#c2def0; stroke:none;" d="M416 1065L417 1066L416 1065M1183 1065L1184 1066L1183 1065z"/>
<path style="fill:#70b1dc; stroke:none;" d="M417 1067L418 1068L417 1067M1182 1067L1183 1068L1182 1067M418 1068L419 1069L418 1068M1181 1068L1182 1069L1181 1068z"/>
<path style="fill:#c2def0; stroke:none;" d="M419 1069L420 1070L419 1069M1180 1069L1181 1070L1180 1069z"/>
<path style="fill:#70b1dc; stroke:none;" d="M420 1071L421 1072L420 1071M1179 1071L1180 1072L1179 1071z"/>
<path style="fill:#c2def0; stroke:none;" d="M421 1072L422 1073L421 1072M1178 1072L1179 1073L1178 1072z"/>
<path style="fill:#70b1dc; stroke:none;" d="M422 1074L423 1075L422 1074M423 1075L424 1076L423 1075M1176 1075L1177 1076L1176 1075z"/>
<path style="fill:#c2def0; stroke:none;" d="M424 1076L425 1077L424 1076M1175 1076L1176 1077L1175 1076z"/>
<path style="fill:#70b1dc; stroke:none;" d="M425 1078L426 1079L425 1078M1174 1078L1175 1079L1174 1078M426 1079L427 1080L426 1079M1173 1079L1174 1080L1173 1079z"/>
<path style="fill:#c2def0; stroke:none;" d="M427 1080L428 1081L427 1080M1172 1080L1173 1081L1172 1080z"/>
<path style="fill:#70b1dc; stroke:none;" d="M428 1082L429 1083L428 1082M1171 1082L1172 1083L1171 1082M429 1083L430 1084L429 1083M1170 1083L1171 1084L1170 1083z"/>
<path style="fill:#c2def0; stroke:none;" d="M430 1084L431 1085L430 1084M1169 1084L1170 1085L1169 1084z"/>
<path style="fill:#70b1dc; stroke:none;" d="M432 1087L433 1088L432 1087M1167 1087L1168 1088L1167 1087z"/>
<path style="fill:#c2def0; stroke:none;" d="M433 1088L434 1089L433 1088M1166 1088L1167 1089L1166 1088M434 1089L435 1090L434 1089M1165 1089L1166 1090L1165 1089z"/>
<path style="fill:#70b1dc; stroke:none;" d="M435 1091L436 1092L435 1091M1164 1091L1165 1092L1164 1091M436 1092L437 1093L436 1092M1163 1092L1164 1093L1163 1092z"/>
<path style="fill:#c2def0; stroke:none;" d="M437 1093L438 1094L437 1093M1162 1093L1163 1094L1162 1093M438 1094L439 1095L438 1094M1161 1094L1162 1095L1161 1094z"/>
<path style="fill:#70b1dc; stroke:none;" d="M439 1096L440 1097L439 1096M440 1097L441 1098L440 1097M1159 1097L1160 1098L1159 1097M441 1098L442 1099L441 1098M1158 1098L1159 1099L1158 1098z"/>
<path style="fill:#c2def0; stroke:none;" d="M442 1099L443 1100L442 1099M1157 1099L1158 1100L1157 1099M443 1100L444 1101L443 1100M1156 1100L1157 1101L1156 1100z"/>
<path style="fill:#70b1dc; stroke:none;" d="M445 1103L446 1104L445 1103M1154 1103L1155 1104L1154 1103M446 1104L447 1105L446 1104M1153 1104L1154 1105L1153 1104z"/>
<path style="fill:#c2def0; stroke:none;" d="M447 1105L448 1106L447 1105M1152 1105L1153 1106L1152 1105M448 1106L449 1107L448 1106M1151 1106L1152 1107L1151 1106M449 1107L450 1108L449 1107M1150 1107L1151 1108L1150 1107z"/>
<path style="fill:#70b1dc; stroke:none;" d="M452 1111L453 1112L452 1111M1147 1111L1148 1112L1147 1111M453 1112L454 1113L453 1112M1146 1112L1147 1113L1146 1112M454 1113L455 1114L454 1113M1145 1113L1146 1114L1145 1113z"/>
<path style="fill:#c2def0; stroke:none;" d="M455 1114L456 1115L455 1114z"/>
<path style="fill:#70b1dc; stroke:none;" d="M1144 1114L1145 1115L1144 1114z"/>
<path style="fill:#c2def0; stroke:none;" d="M456 1115L457 1116L456 1115M1143 1115L1144 1116L1143 1115M457 1116L458 1117L457 1116M1142 1116L1143 1117L1142 1116M458 1117L459 1118L458 1117M1141 1117L1142 1118L1141 1117M459 1118L460 1119L459 1118M1140 1118L1141 1119L1140 1118z"/>
<path style="fill:#ffffff; stroke:none;" d="M166 1119L166 1500L789 1500L789 1499C768.92 1497.36 750.068 1483.07 733 1473.42C700.055 1454.81 667.046 1436.3 634 1417.86C525.186 1357.16 416.228 1296.59 308 1234.85C283.44 1220.84 258.784 1206.92 234 1193.31C214.978 1182.86 194.38 1173.43 180.669 1156C171.42 1144.24 171.429 1131.82 166 1119z"/>
<path style="fill:#c2def0; stroke:none;" d="M460 1119L461 1120L460 1119M1139 1119L1140 1120L1139 1119z"/>
<path style="fill:#ffffff; stroke:none;" d="M1433 1119C1432.73 1152.05 1405.78 1170.83 1380 1185.42C1353.73 1200.3 1327.52 1215.35 1301 1229.77C1185.51 1292.57 1071.79 1358.78 957 1422.86C924.625 1440.93 892.498 1459.46 860 1477.31C844.679 1485.72 828.945 1497.53 811 1499L811 1500L1434 1500L1434 1231L1434 1153L1433 1119z"/>
<path style="fill:#70b1dc; stroke:none;" d="M466 1126L467 1127L466 1126M467 1127L468 1128L467 1127M1132 1127L1133 1128L1132 1127M468 1128L469 1129L468 1128M1131 1128L1132 1129L1131 1128M469 1129L470 1130L469 1129M1130 1129L1131 1130L1130 1129M470 1130L471 1131L470 1130M1129 1130L1130 1131L1129 1130M471 1131L472 1132L471 1131M1128 1131L1129 1132L1128 1131M472 1132L473 1133L472 1132M1127 1132L1128 1133L1127 1132M473 1133L474 1134L473 1133M1126 1133L1127 1134L1126 1133z"/>
<path style="fill:#c2def0; stroke:none;" d="M480 1139L481 1140L480 1139M1119 1139L1120 1140L1119 1139M481 1140L482 1141L481 1140M1118 1140L1119 1141L1118 1140M482 1141L483 1142L482 1141M1117 1141L1118 1142L1117 1141M483 1142L484 1143L483 1142M1116 1142L1117 1143L1116 1142M484 1143L485 1144L484 1143M1115 1143L1116 1144L1115 1143z"/>
<path style="fill:#70b1dc; stroke:none;" d="M485 1144L486 1145L485 1144M1114 1144L1115 1145L1114 1144M486 1145L487 1146L486 1145M1113 1145L1114 1146L1113 1145M487 1146L488 1147L487 1146M1112 1146L1113 1147L1112 1146M488 1147L489 1148L488 1147M1111 1147L1112 1148L1111 1147z"/>
<path style="fill:#c2def0; stroke:none;" d="M492 1150L493 1151L492 1150M1107 1150L1108 1151L1107 1150M493 1151L494 1152L493 1151M1106 1151L1107 1152L1106 1151M494 1152L495 1153L494 1152z"/>
<path style="fill:#70b1dc; stroke:none;" d="M1105 1152L1106 1153L1105 1152M495 1153L496 1154L495 1153M1104 1153L1105 1154L1104 1153M496 1154L497 1155L496 1154M1103 1154L1104 1155L1103 1154z"/>
<path style="fill:#c2def0; stroke:none;" d="M499 1156L500 1157L499 1156M1100 1156L1101 1157L1100 1156M500 1157L501 1158L500 1157M1099 1157L1100 1158L1099 1157z"/>
<path style="fill:#70b1dc; stroke:none;" d="M501 1158L502 1159L501 1158M1098 1158L1099 1159L1098 1158M502 1159L503 1160L502 1159M1097 1159L1098 1160L1097 1159z"/>
<path style="fill:#c2def0; stroke:none;" d="M505 1161L506 1162L505 1161M1094 1161L1095 1162L1094 1161M506 1162L507 1163L506 1162M1093 1162L1094 1163L1093 1162z"/>
<path style="fill:#70b1dc; stroke:none;" d="M507 1163L508 1164L507 1163M1092 1163L1093 1164L1092 1163M508 1164L509 1165L508 1164M1091 1164L1092 1165L1091 1164z"/>
<path style="fill:#c2def0; stroke:none;" d="M510 1165L511 1166L510 1165M1089 1165L1090 1166L1089 1165M511 1166L512 1167L511 1166M1088 1166L1089 1167L1088 1166z"/>
<path style="fill:#70b1dc; stroke:none;" d="M512 1167L513 1168L512 1167M1087 1167L1088 1168L1087 1167z"/>
<path style="fill:#c2def0; stroke:none;" d="M515 1169L516 1170L515 1169M1084 1169L1085 1170L1084 1169z"/>
<path style="fill:#70b1dc; stroke:none;" d="M516 1170L517 1171L516 1170M1083 1170L1084 1171L1083 1170M517 1171L518 1172L517 1171M1082 1171L1083 1172L1082 1171z"/>
<path style="fill:#c2def0; stroke:none;" d="M519 1172L520 1173L519 1172M1080 1172L1081 1173L1080 1172z"/>
<path style="fill:#70b1dc; stroke:none;" d="M520 1173L521 1174L520 1173M1079 1173L1080 1174L1079 1173M521 1174L522 1175L521 1174M1078 1174L1079 1175L1078 1174z"/>
<path style="fill:#c2def0; stroke:none;" d="M523 1175L524 1176L523 1175M1076 1175L1077 1176L1076 1175z"/>
<path style="fill:#70b1dc; stroke:none;" d="M524 1176L525 1177L524 1176M1075 1176L1076 1177L1075 1176M525 1177L526 1178L525 1177z"/>
<path style="fill:#c2def0; stroke:none;" d="M527 1178L528 1179L527 1178M1072 1178L1073 1179L1072 1178z"/>
<path style="fill:#70b1dc; stroke:none;" d="M528 1179L529 1180L528 1179M1071 1179L1072 1180L1071 1179z"/>
<path style="fill:#c2def0; stroke:none;" d="M530 1180L531 1181L530 1180M1069 1180L1070 1181L1069 1180z"/>
<path style="fill:#70b1dc; stroke:none;" d="M531 1181L532 1182L531 1181M1068 1181L1069 1182L1068 1181M532 1182L533 1183L532 1182M1067 1182L1068 1183L1067 1182z"/>
<path style="fill:#c2def0; stroke:none;" d="M534 1183L535 1184L534 1183M1065 1183L1066 1184L1065 1183z"/>
<path style="fill:#70b1dc; stroke:none;" d="M535 1184L536 1185L535 1184M1064 1184L1065 1185L1064 1184z"/>
<path style="fill:#c2def0; stroke:none;" d="M537 1185L538 1186L537 1185M1062 1185L1063 1186L1062 1185z"/>
<path style="fill:#70b1dc; stroke:none;" d="M538 1186L539 1187L538 1186M1061 1186L1062 1187L1061 1186z"/>
<path style="fill:#c2def0; stroke:none;" d="M540 1187L541 1188L540 1187M1059 1187L1060 1188L1059 1187z"/>
<path style="fill:#70b1dc; stroke:none;" d="M541 1188L542 1189L541 1188M1058 1188L1059 1189L1058 1188z"/>
<path style="fill:#c2def0; stroke:none;" d="M543 1189L544 1190L543 1189M1056 1189L1057 1190L1056 1189z"/>
<path style="fill:#70b1dc; stroke:none;" d="M544 1190L545 1191L544 1190M1055 1190L1056 1191L1055 1190z"/>
<path style="fill:#c2def0; stroke:none;" d="M546 1191L547 1192L546 1191M1053 1191L1054 1192L1053 1191z"/>
<path style="fill:#70b1dc; stroke:none;" d="M547 1192L548 1193L547 1192M1052 1192L1053 1193L1052 1192z"/>
<path style="fill:#c2def0; stroke:none;" d="M549 1193L550 1194L549 1193M1050 1193L1051 1194L1050 1193z"/>
<path style="fill:#70b1dc; stroke:none;" d="M550 1194L551 1195L550 1194M1049 1194L1050 1195L1049 1194M552 1195L553 1196L552 1195M1047 1195L1048 1196L1047 1195z"/>
<path style="fill:#c2def0; stroke:none;" d="M554 1196L555 1197L554 1196M1045 1196L1046 1197L1045 1196z"/>
<path style="fill:#70b1dc; stroke:none;" d="M555 1197L556 1198L555 1197M1044 1197L1045 1198L1044 1197z"/>
<path style="fill:#c2def0; stroke:none;" d="M557 1198L558 1199L557 1198M1042 1198L1043 1199L1042 1198z"/>
<path style="fill:#70b1dc; stroke:none;" d="M558 1199L559 1200L558 1199z"/>
<path style="fill:#c2def0; stroke:none;" d="M559 1199L560 1200L559 1199M1040 1199L1041 1200L1040 1199z"/>
<path style="fill:#70b1dc; stroke:none;" d="M1041 1199L1042 1200L1041 1199M560 1200L561 1201L560 1200M1039 1200L1040 1201L1039 1200z"/>
<path style="fill:#c2def0; stroke:none;" d="M562 1201L563 1202L562 1201M1037 1201L1038 1202L1037 1201M564 1202L565 1203L564 1202M1035 1202L1036 1203L1035 1202z"/>
<path style="fill:#70b1dc; stroke:none;" d="M565 1203L566 1204L565 1203M1034 1203L1035 1204L1034 1203M567 1204L568 1205L567 1204M1032 1204L1033 1205L1032 1204z"/>
<path style="fill:#c2def0; stroke:none;" d="M569 1205L570 1206L569 1205M1030 1205L1031 1206L1030 1205z"/>
<path style="fill:#70b1dc; stroke:none;" d="M570 1206L571 1207L570 1206z"/>
<path style="fill:#c2def0; stroke:none;" d="M571 1206L572 1207L571 1206M1028 1206L1029 1207L1028 1206z"/>
<path style="fill:#70b1dc; stroke:none;" d="M1029 1206L1030 1207L1029 1206M572 1207L573 1208L572 1207M1027 1207L1028 1208L1027 1207M574 1208L575 1209L574 1208M1025 1208L1026 1209L1025 1208z"/>
<path style="fill:#c2def0; stroke:none;" d="M576 1209L577 1210L576 1209M1023 1209L1024 1210L1023 1209M578 1210L579 1211L578 1210M1021 1210L1022 1211L1021 1210z"/>
<path style="fill:#70b1dc; stroke:none;" d="M579 1211L580 1212L579 1211z"/>
<path style="fill:#c2def0; stroke:none;" d="M580 1211L581 1212L580 1211M1019 1211L1020 1212L1019 1211z"/>
<path style="fill:#70b1dc; stroke:none;" d="M581 1212L582 1213L581 1212z"/>
<path style="fill:#c2def0; stroke:none;" d="M582 1212L583 1213L582 1212M1017 1212L1018 1213L1017 1212z"/>
<path style="fill:#70b1dc; stroke:none;" d="M1018 1212L1019 1213L1018 1212M583 1213L584 1214L583 1213M1016 1213L1017 1214L1016 1213M585 1214L586 1215L585 1214M1014 1214L1015 1215L1014 1214M587 1215L588 1216L587 1215M1012 1215L1013 1216L1012 1215M589 1216L590 1217L589 1216M1010 1216L1011 1217L1010 1216M591 1217L592 1218L591 1217M1008 1217L1009 1218L1008 1217M593 1218L594 1219L593 1218M1006 1218L1007 1219L1006 1218M595 1219L596 1220L595 1219M1004 1219L1005 1220L1004 1219M597 1220L598 1221L597 1220M1002 1220L1003 1221L1002 1220M599 1221L600 1222L599 1221z"/>
<path style="fill:#c2def0; stroke:none;" d="M999 1221L1000 1222L999 1221z"/>
<path style="fill:#70b1dc; stroke:none;" d="M1000 1221L1001 1222L1000 1221M601 1222L602 1223L601 1222z"/>
<path style="fill:#c2def0; stroke:none;" d="M602 1222L603 1223L602 1222M997 1222L998 1223L997 1222z"/>
<path style="fill:#70b1dc; stroke:none;" d="M998 1222L999 1223L998 1222M603 1223L604 1224L603 1223z"/>
<path style="fill:#c2def0; stroke:none;" d="M604 1223L605 1224L604 1223M995 1223L996 1224L995 1223z"/>
<path style="fill:#70b1dc; stroke:none;" d="M996 1223L997 1224L996 1223z"/>
<path style="fill:#c2def0; stroke:none;" d="M606 1224L607 1225L606 1224M993 1224L994 1225L993 1224z"/>
<path style="fill:#70b1dc; stroke:none;" d="M608 1225L609 1226L608 1225M991 1225L992 1226L991 1225M610 1226L611 1227L610 1226M989 1226L990 1227L989 1226M612 1227L613 1228L612 1227z"/>
<path style="fill:#c2def0; stroke:none;" d="M613 1227L614 1228L613 1227M986 1227L987 1228L986 1227z"/>
<path style="fill:#70b1dc; stroke:none;" d="M987 1227L988 1228L987 1227z"/>
<path style="fill:#c2def0; stroke:none;" d="M615 1228L616 1229L615 1228M984 1228L985 1229L984 1228z"/>
<path style="fill:#70b1dc; stroke:none;" d="M617 1229L618 1230L617 1229M982 1229L983 1230L982 1229M619 1230L620 1231L619 1230z"/>
<path style="fill:#c2def0; stroke:none;" d="M620 1230L621 1231L620 1230M979 1230L980 1231L979 1230z"/>
<path style="fill:#70b1dc; stroke:none;" d="M980 1230L981 1231L980 1230M622 1231L623 1232L622 1231M977 1231L978 1232L977 1231M624 1232L625 1233L624 1232z"/>
<path style="fill:#c2def0; stroke:none;" d="M625 1232L626 1233L625 1232M974 1232L975 1233L974 1232z"/>
<path style="fill:#70b1dc; stroke:none;" d="M975 1232L976 1233L975 1232z"/>
<path style="fill:#c2def0; stroke:none;" d="M627 1233L628 1234L627 1233M972 1233L973 1234L972 1233z"/>
<path style="fill:#70b1dc; stroke:none;" d="M629 1234L630 1235L629 1234z"/>
<path style="fill:#c2def0; stroke:none;" d="M630 1234L631 1235L630 1234M969 1234L970 1235L969 1234z"/>
<path style="fill:#70b1dc; stroke:none;" d="M970 1234L971 1235L970 1234M632 1235L633 1236L632 1235M967 1235L968 1236L967 1235M634 1236L635 1237L634 1236z"/>
<path style="fill:#c2def0; stroke:none;" d="M635 1236L636 1237L635 1236M964 1236L965 1237L964 1236z"/>
<path style="fill:#70b1dc; stroke:none;" d="M965 1236L966 1237L965 1236M637 1237L638 1238L637 1237M962 1237L963 1238L962 1237M639 1238L640 1239L639 1238z"/>
<path style="fill:#c2def0; stroke:none;" d="M640 1238L641 1239L640 1238z"/>
<path style="fill:#70b1dc; stroke:none;" d="M959 1238L960 1239L959 1238M642 1239L643 1240L642 1239z"/>
<path style="fill:#c2def0; stroke:none;" d="M643 1239L644 1240L643 1239M956 1239L957 1240L956 1239z"/>
<path style="fill:#70b1dc; stroke:none;" d="M957 1239L958 1240L957 1239M645 1240L646 1241L645 1240z"/>
<path style="fill:#c2def0; stroke:none;" d="M646 1240L647 1241L646 1240M953 1240L954 1241L953 1240z"/>
<path style="fill:#70b1dc; stroke:none;" d="M954 1240L955 1241L954 1240M648 1241L649 1242L648 1241z"/>
<path style="fill:#c2def0; stroke:none;" d="M649 1241L650 1242L649 1241M950 1241L951 1242L950 1241z"/>
<path style="fill:#70b1dc; stroke:none;" d="M951 1241L952 1242L951 1241M651 1242L652 1243L651 1242z"/>
<path style="fill:#c2def0; stroke:none;" d="M652 1242L653 1243L652 1242M947 1242L948 1243L947 1242z"/>
<path style="fill:#70b1dc; stroke:none;" d="M948 1242L949 1243L948 1242M654 1243L655 1244L654 1243z"/>
<path style="fill:#c2def0; stroke:none;" d="M655 1243L656 1244L655 1243M944 1243L945 1244L944 1243z"/>
<path style="fill:#70b1dc; stroke:none;" d="M945 1243L946 1244L945 1243M657 1244L658 1245L657 1244z"/>
<path style="fill:#c2def0; stroke:none;" d="M658 1244L659 1245L658 1244M941 1244L942 1245L941 1244z"/>
<path style="fill:#70b1dc; stroke:none;" d="M942 1244L943 1245L942 1244M660 1245L661 1246L660 1245z"/>
<path style="fill:#c2def0; stroke:none;" d="M661 1245L662 1246L661 1245M938 1245L939 1246L938 1245z"/>
<path style="fill:#70b1dc; stroke:none;" d="M939 1245L940 1246L939 1245M663.667 1246.33L664.333 1246.67L663.667 1246.33M935.667 1246.33L936.333 1246.67L935.667 1246.33M667 1247L668 1248L667 1247z"/>
<path style="fill:#c2def0; stroke:none;" d="M668 1247L669 1248L668 1247M931 1247L932 1248L931 1247z"/>
<path style="fill:#70b1dc; stroke:none;" d="M932 1247L933 1248L932 1247M670 1248L671 1249L670 1248z"/>
<path style="fill:#c2def0; stroke:none;" d="M671 1248L672 1249L671 1248M928 1248L929 1249L928 1248z"/>
<path style="fill:#70b1dc; stroke:none;" d="M929 1248L930 1249L929 1248M674 1249L675 1250L674 1249z"/>
<path style="fill:#c2def0; stroke:none;" d="M675 1249L676 1250L675 1249M924 1249L925 1250L924 1249z"/>
<path style="fill:#70b1dc; stroke:none;" d="M925 1249L926 1250L925 1249M677.667 1250.33L678.333 1250.67L677.667 1250.33M921.667 1250.33L922.333 1250.67L921.667 1250.33M681 1251L682 1252L681 1251z"/>
<path style="fill:#c2def0; stroke:none;" d="M682 1251L683 1252L682 1251M917 1251L918 1252L917 1251z"/>
<path style="fill:#70b1dc; stroke:none;" d="M918 1251L919 1252L918 1251M685 1252L686 1253L685 1252z"/>
<path style="fill:#c2def0; stroke:none;" d="M686 1252L687 1253L686 1252M913 1252L914 1253L913 1252z"/>
<path style="fill:#70b1dc; stroke:none;" d="M914 1252L915 1253L914 1252M689 1253L690 1254L689 1253z"/>
<path style="fill:#c2def0; stroke:none;" d="M690 1253L691 1254L690 1253M909 1253L910 1254L909 1253z"/>
<path style="fill:#70b1dc; stroke:none;" d="M910 1253L911 1254L910 1253M693 1254L694 1255L693 1254z"/>
<path style="fill:#c2def0; stroke:none;" d="M694 1254L695 1255L694 1254M905 1254L906 1255L905 1254z"/>
<path style="fill:#70b1dc; stroke:none;" d="M906 1254L907 1255L906 1254M697.667 1255.33L698.333 1255.67L697.667 1255.33z"/>
<path style="fill:#c2def0; stroke:none;" d="M699 1255L700 1256L699 1255M900 1255L901 1256L900 1255z"/>
<path style="fill:#70b1dc; stroke:none;" d="M901.667 1255.33L902.333 1255.67L901.667 1255.33M702.667 1256.33L703.333 1256.67L702.667 1256.33z"/>
<path style="fill:#c2def0; stroke:none;" d="M704 1256L705 1257L704 1256M895 1256L896 1257L895 1256z"/>
<path style="fill:#70b1dc; stroke:none;" d="M896.667 1256.33L897.333 1256.67L896.667 1256.33M707 1257L708 1258L707 1257z"/>
<path style="fill:#c2def0; stroke:none;" d="M708.667 1257.33L709.333 1257.67L708.667 1257.33M890.667 1257.33L891.333 1257.67L890.667 1257.33z"/>
<path style="fill:#70b1dc; stroke:none;" d="M892 1257L893 1258L892 1257M712.667 1258.33L713.333 1258.67L712.667 1258.33z"/>
<path style="fill:#c2def0; stroke:none;" d="M714 1258L715 1259L714 1258M885 1258L886 1259L885 1258z"/>
<path style="fill:#70b1dc; stroke:none;" d="M886.667 1258.33L887.333 1258.67L886.667 1258.33M717.667 1259.33L718.333 1259.67L717.667 1259.33z"/>
<path style="fill:#c2def0; stroke:none;" d="M719.667 1259.33L720.333 1259.67L719.667 1259.33M879.667 1259.33L880.333 1259.67L879.667 1259.33z"/>
<path style="fill:#70b1dc; stroke:none;" d="M881.667 1259.33L882.333 1259.67L881.667 1259.33M723.667 1260.33L724.333 1260.67L723.667 1260.33z"/>
<path style="fill:#c2def0; stroke:none;" d="M725.667 1260.33L726.333 1260.67L725.667 1260.33M873.667 1260.33L874.333 1260.67L873.667 1260.33z"/>
<path style="fill:#70b1dc; stroke:none;" d="M875.667 1260.33L876.333 1260.67L875.667 1260.33M729 1261L729 1262L732 1262L729 1261z"/>
<path style="fill:#c2def0; stroke:none;" d="M732 1261L733 1262L732 1261M867 1261L868 1262L867 1261z"/>
<path style="fill:#70b1dc; stroke:none;" d="M868 1261L868 1262L871 1262L868 1261M736 1262L736 1263L739 1263L736 1262z"/>
<path style="fill:#c2def0; stroke:none;" d="M739 1262L740 1263L739 1262M860 1262L861 1263L860 1262z"/>
<path style="fill:#70b1dc; stroke:none;" d="M861 1262L861 1263L864 1263L861 1262M744 1263L744 1264L747 1264L744 1263z"/>
<path style="fill:#c2def0; stroke:none;" d="M747.667 1263.33L748.333 1263.67L747.667 1263.33M851.667 1263.33L852.333 1263.67L851.667 1263.33z"/>
<path style="fill:#70b1dc; stroke:none;" d="M853 1263L853 1264L856 1264L853 1263M753 1264L753 1265L757 1265L753 1264z"/>
<path style="fill:#c2def0; stroke:none;" d="M757.667 1264.33L758.333 1264.67L757.667 1264.33M841.667 1264.33L842.333 1264.67L841.667 1264.33z"/>
<path style="fill:#70b1dc; stroke:none;" d="M843 1264L843 1265L847 1265L843 1264M764 1265L764 1266L769 1266L764 1265z"/>
<path style="fill:#c2def0; stroke:none;" d="M769 1265L769 1266L773 1266L769 1265M827 1265L827 1266L831 1266L827 1265z"/>
<path style="fill:#70b1dc; stroke:none;" d="M831 1265L831 1266L836 1266L831 1265M782 1266L782 1267L797 1267L782 1266z"/>
<path style="fill:#c2def0; stroke:none;" d="M797 1266L797 1267L803 1267L797 1266z"/>
<path style="fill:#70b1dc; stroke:none;" d="M803 1266L803 1267L818 1267L803 1266z"/>
</svg>
