<?xml version="1.0" encoding="utf-8"?>
<!-- Generator: Adobe Illustrator 22.0.1, SVG Export Plug-In . SVG Version: 6.00 Build 0)  -->
<svg version="1.1" xmlns="http://www.w3.org/2000/svg" xmlns:xlink="http://www.w3.org/1999/xlink" x="0px" y="0px"
	 viewBox="0 0 1250 1250" style="enable-background:new 0 0 1250 1250;" xml:space="preserve">
<style type="text/css">
	.st0{display:none;}
	.st1{display:inline;fill:#470137;}
	.st2{display:inline;fill:#FF61F7;}
</style>
<g id="Layer_2" class="st0">
	<path class="st1" d="M232,59.4C153.6,69.8,84.1,116.2,56.7,193C43.6,229.6,44,266.7,44,305v118v443c0,82.6-11.7,171.3,40.2,242
		c31.5,43,80.2,72.6,132.8,80.7c39.6,6.1,81.9,2.3,122,2.3h460h147c29.1,0,59.3,2.4,88-2.4c76.6-12.9,142.1-69.4,163.6-144.6
		c9.5-33.2,8.4-66.9,8.4-101V818V385c0-83.7,12.3-175.4-42.4-246c-10.4-13.4-22.3-25.6-35.6-36.2C1062.5,50.6,982.5,59,904,59H454
		H307C282.6,59,256.2,56.2,232,59.4z"/>
	<path class="st2" d="M926,466c-18.3-4.4-39.5-2-58-0.2C795.9,473,730.1,509.9,696.3,576c-48.1,93.9-17.7,226.7,82.7,271.1
		c60.9,26.9,130.5,22.4,194,8.7c15.6-3.4,31-8.4,46-13.8c4.7-1.7,13.1-3.6,15.8-8.2c3.6-6,0.5-16.2,0.2-22.8c-0.9-19.4-2-38.6-2-58
		V531V364v-41c0-3.6,1.5-11.5-1.6-14.2c-2.7-2.3-9.1-0.8-12.4-0.8h-35h-41c-3.9,0-12.1-1.5-15.3,1c-2.6,2.1-1.7,7.1-1.7,10v29V466z"
		/>
	<path class="st2" d="M215,858l30-1h55l30-0.6l10.2-13.4l18-33l49.1-92l25.7-51h2c6.4,17.7,18.3,34.6,27.6,51
		c15.3,27,30.3,54.3,44.2,82c6.2,12.4,12.8,24.6,19,37c2.7,5.4,5.1,13.5,10.4,17c7.9,5.2,24.7,2,33.9,2h64c10.1,0,22.3,1.9,32-1
		c-2.3-9.8-9.3-18.6-14.6-27c-8.2-13.3-16.1-26.8-24.4-40c-25.9-41.3-50.2-83.7-76.1-125c-9.9-15.9-19.7-32-29.3-48
		c-3-5-10.1-13-10.3-19c-0.1-4.9,5.4-10.9,7.9-15c7-11.7,14.2-23.3,21.2-35c26.9-44.8,54.3-89.2,81.2-134
		c8.8-14.7,17.8-29.3,26.6-44c2.1-3.5,9-11.4,6.7-15.7c-2.3-4.3-13.8-2.3-17.9-2.3h-54h-29c-3.7,0-8.5-0.7-11.6,1.7
		c-4.4,3.6-7.1,12.2-9.7,17.3c-5.8,11.4-12.1,22.6-18,34c-14.7,28.5-30.1,57-45.6,85c-8.4,15.2-22.1,34.8-25.1,52
		c-11.3-9.7-17.8-31.8-24.8-45c-16.7-31.4-36.1-61.2-52-93c-6-12-12.1-23.9-18-36c-2.4-5-4-12-9.3-14.8c-7-3.7-20.2-1.2-28-1.2h-66
		c-4.8,0-28-2.8-27.5,4.1c0.4,5.1,5.3,10.6,7.7,14.9c7.1,12.4,14.7,24.6,21.9,37c26.4,46,53.6,91.6,80.9,137
		c8.8,14.6,17.2,29.4,26,44c2.8,4.6,9.6,12.3,8.8,18c-0.8,5.7-6.5,12.2-9.4,17c-7.5,12.4-15.2,24.6-22.6,37
		c-26.5,44.2-53,88.4-80.5,132c-9.8,15.5-19.2,31.3-28.7,47C218.9,844.1,213,850.6,215,858z"/>
	<path class="st1" d="M925,557c-35.1-2.8-66.6-3.1-97,18c-52.1,36.3-57.3,123.3-15.7,169.9c20.6,23.1,54.4,28.7,83.7,28
		c6-0.1,24.1,1.3,28-3.7c2.6-3.3,1-11.3,1-15.3v-40V557z"/>
</g>
<g id="Layer_3">
	<image style="overflow:visible;" width="308" height="432" xlink:href="css.png"  transform="matrix(1 0 0 1 471 409)">
	</image>
	<polygon class="st0" points="534.1,408.6 534.1,467.6 582.1,467.6 582.1,449.6 555.1,449.8 555.1,429.1 582.1,429.1 582.1,408.6 	
		"/>
	<polygon class="st0" points="649.1,409 649.1,429.8 633.4,429.8 649.1,449.9 649.1,467.6 603.1,467.6 603.1,449.1 618.5,449.1 
		602.1,425.3 602.1,409 	"/>
	<polygon class="st0" points="715,409 715,429.8 699.3,429.8 715,449.9 715,467.6 669,467.6 669,449.1 684.4,449.1 668,425.3 
		668,409 	"/>
	<polygon class="st0" points="471,492.3 779,492.3 749.5,804 626.3,839.8 497.5,804 	"/>
</g>
</svg>
