<?xml version="1.0" standalone="yes"?>
<svg xmlns="http://www.w3.org/2000/svg" width="200" height="200">
<path style="fill:#fefefe; stroke:none;" d="M0 0L0 200L200 200L200 0L0 0z"/>
<path style="fill:#abddca; stroke:none;" d="M94 12L94 13L105 13L94 12M85 13L85 14L89 14L85 13z"/>
<path style="fill:#5db995; stroke:none;" d="M20 65L30 71L31 71C42.3668 43.698 70.9071 23.4562 101 24.2593C112.731 24.5723 123.042 28.293 134 32L138 21C127.544 18.011 118.069 13.8482 107 13.0895C71.2892 10.6418 32.871 30.1073 20 65z"/>
<path style="fill:#abddca; stroke:none;" d="M110 13L110 14L115 14L110 13M81.6667 14.3333L82.3333 14.6667L81.6667 14.3333M117.667 14.3333L118.333 14.6667L117.667 14.3333M76 15L76 16L79 16L76 15M121.667 15.3333L122.333 15.6667L121.667 15.3333M73 16L74 17L73 16M125.667 16.3333L126.333 16.6667L125.667 16.3333M70 17L71 18L70 17M128.667 17.3333L129.333 17.6667L128.667 17.3333M67.6667 18.3333L68.3333 18.6667L67.6667 18.3333M131.667 18.3333L132.333 18.6667L131.667 18.3333M65 19L66 20L65 19M133.667 19.3333L134.333 19.6667L133.667 19.3333M63 20L64 21L63 20M135.667 20.3333L136.333 20.6667L135.667 20.3333M61 21L62 22L61 21M138 21L133 33C168.535 48.3316 182.158 91.1051 171 126L182 129C198.948 89.6084 176.786 37.713 138 21M59 22L60 23L59 22M57 23L58 24L57 23M55 24L56 25L55 24M97 24L97 25L104 25L97 24M53 25L54 26L53 25M87 25L87 26L91 26L87 25M110 25L110 26L114 26L110 25M52 26L53 27L52 26M82.6667 26.3333L83.3333 26.6667L82.6667 26.3333M116.667 26.3333L117.333 26.6667L116.667 26.3333M50 27L51 28L50 27M78 27L78 28L81 28L78 27M120.667 27.3333L121.333 27.6667L120.667 27.3333M49 28L50 29L49 28M76 28L77 29L76 28M123.667 28.3333L124.333 28.6667L123.667 28.3333M48 29L49 30L48 29M73 29L74 30L73 29M126.667 29.3333L127.333 29.6667L126.667 29.3333M71 30L72 31L71 30M129 30L130 31L129 30M45 31L46 32L45 31M68.6667 31.3333L69.3333 31.6667L68.6667 31.3333M131.667 31.3333L132.333 31.6667L131.667 31.3333M44 32L45 33L44 32M66 32L67 33L66 32M64.6667 33.3333L65.3333 33.6667L64.6667 33.3333M41 34L42 35L41 34M62 34L63 35L62 34M59 36L60 37L59 36M38 37L39 38L38 37M37 38L38 39L37 38M56 38L57 39L56 38M55 39L56 40L55 39M34 41L35 42L34 41M52 41L53 42L52 41M51 42L52 43L51 42M50 43L51 44L50 43M32 44L33 45L32 44M49 44L50 45L49 44M31 45L32 46L31 45M28 49L29 50L28 49M44 49L45 50L44 49M27 50L28 51L27 50M42 51L43 52L42 51M26 52L27 53L26 52M41 52L42 53L41 52M25 53L26 54L25 53M24 55L25 56L24 55M39 55L40 56L39 55M38 56L39 57L38 56M23 57L24 58L23 57M37 58L38 59L37 58M22 59L23 60L22 59M36 59L37 60L36 59M20 63L21 64L20 63M19 65L20 66L19 65z"/>
<path style="fill:#626670; stroke:none;" d="M20 65C9.9819 90.9697 7.89424 134.077 32 154L30 152L30 151L41 147C31.8727 132.21 23.7779 117.04 24.2593 99C24.4987 90.0285 30.1177 79.5802 29.3573 71.1119C29.0056 67.1959 23.0857 65.9341 20 65z"/>
<path style="fill:#abddca; stroke:none;" d="M33 65L34 66L33 65z"/>
<path style="fill:#5db995; stroke:none;" d="M19 66L20 67L19 66z"/>
<path style="fill:#abddca; stroke:none;" d="M18 67L19 68L18 67z"/>
<path style="fill:#5db995; stroke:none;" d="M18 68L19 69L18 68z"/>
<path style="fill:#abddca; stroke:none;" d="M31 69L32 70L31 69M17 70L18 71L17 70M66 70L67 71L66 70z"/>
<path style="fill:#5db995; stroke:none;" d="M67 70L68 71L67 70z"/>
<path style="fill:#626670; stroke:none;" d="M68 70L68 71L71 71L68 70z"/>
<path style="fill:#212e39; stroke:none;" d="M101 111C86.936 105.617 80.1162 123.977 66.0008 115.91C47.6794 105.441 59.9306 75.2887 80 83.1481C84.3555 84.8538 87.2452 88.3947 90 92L101 89C95.354 59.8198 46.7284 67.2746 44.1042 95C42.9814 106.862 46.5329 118.282 57 125.031C71.6956 134.507 96.3073 129.169 101 111z"/>
<path style="fill:#626670; stroke:none;" d="M77 70L77 71L80 71L77 70z"/>
<path style="fill:#5db995; stroke:none;" d="M80 70L81 71L80 70z"/>
<path style="fill:#abddca; stroke:none;" d="M81 70L82 71L81 70z"/>
<path style="fill:#5db995; stroke:none;" d="M17 71L18 72L17 71z"/>
<path style="fill:#abddca; stroke:none;" d="M30 71L31 72L30 71M63 71L64 72L63 71z"/>
<path style="fill:#626670; stroke:none;" d="M64 71L65 72L64 71M83 71L84 72L83 71z"/>
<path style="fill:#abddca; stroke:none;" d="M84 71L85 72L84 71z"/>
<path style="fill:#5db995; stroke:none;" d="M100 71L101 72L100 71z"/>
<path style="fill:#212e39; stroke:none;" d="M101 71C104.922 85.3397 112.276 99.1902 117.8 113C119.77 117.925 124.086 124.62 123.836 130C123.5 137.263 117.755 146.296 114.989 153C112.086 160.035 109.321 175.236 99.9992 175.641C84.979 176.295 69.1142 170.405 57 161.856C47.3646 155.056 41.2821 141.663 30 151L30 152C44.9473 170.69 64.1366 182.861 88 186.271C95.6108 187.358 106.507 188.836 112.906 183.581C121.194 176.774 124.163 161.571 128.281 152C139.523 125.87 153.51 98.4389 161 71L149.499 72.0278L143.861 83L132 114L119.6 84L113.582 72.0278L101 71z"/>
<path style="fill:#626670; stroke:none;" d="M114 71L115 72L114 71M148 71L149 72L148 71M161 71L162 72L161 71z"/>
<path style="fill:#abddca; stroke:none;" d="M16.3333 72.6667L16.6667 73.3333L16.3333 72.6667z"/>
<path style="fill:#5db995; stroke:none;" d="M29 72L30 73L29 72z"/>
<path style="fill:#abddca; stroke:none;" d="M60 72L61 73L60 72z"/>
<path style="fill:#626670; stroke:none;" d="M61 72L62 73L61 72M85 72L86 73L85 72z"/>
<path style="fill:#5db995; stroke:none;" d="M86 72L87 73L86 72z"/>
<path style="fill:#abddca; stroke:none;" d="M115 72L116 73L115 72M161 72L162 73L161 72M29.3333 73.6667L29.6667 74.3333L29.3333 73.6667z"/>
<path style="fill:#626670; stroke:none;" d="M59 73L60 74L59 73z"/>
<path style="fill:#5db995; stroke:none;" d="M88 73L89 74L88 73z"/>
<path style="fill:#626670; stroke:none;" d="M101 73L102 74L101 73M115 73L116 74L115 73z"/>
<path style="fill:#abddca; stroke:none;" d="M147 73L148 74L147 73z"/>
<path style="fill:#626670; stroke:none;" d="M160 73L161 74L160 73z"/>
<path style="fill:#5db995; stroke:none;" d="M16 74L17 75L16 74M57 74L58 75L57 74z"/>
<path style="fill:#626670; stroke:none;" d="M89 74L90 75L89 74z"/>
<path style="fill:#abddca; stroke:none;" d="M90 74L91 75L90 74z"/>
<path style="fill:#626670; stroke:none;" d="M147 74L148 75L147 74z"/>
<path style="fill:#abddca; stroke:none;" d="M160 74L161 75L160 74z"/>
<path style="fill:#5db995; stroke:none;" d="M28 75L29 76L28 75z"/>
<path style="fill:#abddca; stroke:none;" d="M55 75L56 76L55 75z"/>
<path style="fill:#626670; stroke:none;" d="M91 75L92 76L91 75M102 75L103 76L102 75z"/>
<path style="fill:#abddca; stroke:none;" d="M116 75L117 76L116 75M146 75L147 76L146 75z"/>
<path style="fill:#626670; stroke:none;" d="M159 75L160 76L159 75z"/>
<path style="fill:#abddca; stroke:none;" d="M15.3333 76.6667L15.6667 77.3333L15.3333 76.6667M28 76L29 77L28 76z"/>
<path style="fill:#5db995; stroke:none;" d="M54 76L55 77L54 76z"/>
<path style="fill:#abddca; stroke:none;" d="M93 76L94 77L93 76M102 76L103 77L102 76z"/>
<path style="fill:#626670; stroke:none;" d="M116 76L117 77L116 76M146 76L147 77L146 76z"/>
<path style="fill:#5db995; stroke:none;" d="M159 76L160 77L159 76z"/>
<path style="fill:#626670; stroke:none;" d="M53 77L54 78L53 77z"/>
<path style="fill:#abddca; stroke:none;" d="M94 77L95 78L94 77z"/>
<path style="fill:#5db995; stroke:none;" d="M15 78L16 79L15 78M27 78L28 79L27 78z"/>
<path style="fill:#626670; stroke:none;" d="M52 78L53 79L52 78z"/>
<path style="fill:#abddca; stroke:none;" d="M95 78L96 79L95 78z"/>
<path style="fill:#5db995; stroke:none;" d="M103 78L104 79L103 78z"/>
<path style="fill:#abddca; stroke:none;" d="M117 78L118 79L117 78z"/>
<path style="fill:#5db995; stroke:none;" d="M145 78L146 79L145 78z"/>
<path style="fill:#626670; stroke:none;" d="M158 78L159 79L158 78z"/>
<path style="fill:#abddca; stroke:none;" d="M27.3333 79.6667L27.6667 80.3333L27.3333 79.6667z"/>
<path style="fill:#626670; stroke:none;" d="M51 79L52 80L51 79z"/>
<path style="fill:#abddca; stroke:none;" d="M96 79L97 80L96 79z"/>
<path style="fill:#626670; stroke:none;" d="M145 79L146 80L145 79z"/>
<path style="fill:#5db995; stroke:none;" d="M158 79L159 80L158 79z"/>
<path style="fill:#626670; stroke:none;" d="M50 80L51 81L50 80z"/>
<path style="fill:#abddca; stroke:none;" d="M97 80L98 81L97 80z"/>
<path style="fill:#626670; stroke:none;" d="M104 80L105 81L104 80z"/>
<path style="fill:#abddca; stroke:none;" d="M118 80L119 81L118 80M14 81L15 82L14 81M49 81L50 82L49 81M104 81L105 82L104 81z"/>
<path style="fill:#626670; stroke:none;" d="M118 81L119 82L118 81M144 81L145 82L144 81M157 81L158 82L157 81z"/>
<path style="fill:#5db995; stroke:none;" d="M14 82L15 83L14 82M26 82L27 83L26 82z"/>
<path style="fill:#626670; stroke:none;" d="M69 82L70 83L69 82z"/>
<path style="fill:#abddca; stroke:none;" d="M70 82L71 83L70 82M77 82L78 83L77 82z"/>
<path style="fill:#626670; stroke:none;" d="M78 82L79 83L78 82M98 82L99 83L98 82z"/>
<path style="fill:#abddca; stroke:none;" d="M26 83L27 84L26 83z"/>
<path style="fill:#626670; stroke:none;" d="M48 83L49 84L48 83M66 83L67 84L66 83z"/>
<path style="fill:#abddca; stroke:none;" d="M67 83L68 84L67 83M80 83L81 84L80 83z"/>
<path style="fill:#626670; stroke:none;" d="M81 83L82 84L81 83z"/>
<path style="fill:#abddca; stroke:none;" d="M99 83L100 84L99 83M105 83L106 84L105 83M119 83L120 84L119 83z"/>
<path style="fill:#5db995; stroke:none;" d="M143 83L144 84L143 83z"/>
<path style="fill:#626670; stroke:none;" d="M156 83L157 84L156 83z"/>
<path style="fill:#5db995; stroke:none;" d="M47 84L48 85L47 84z"/>
<path style="fill:#626670; stroke:none;" d="M64 84L65 85L64 84M83 84L84 85L83 84z"/>
<path style="fill:#abddca; stroke:none;" d="M156 84L157 85L156 84M13.3333 85.6667L13.6667 86.3333L13.3333 85.6667M63 85L64 86L63 85z"/>
<path style="fill:#5db995; stroke:none;" d="M84 85L85 86L84 85M100 85L101 86L100 85z"/>
<path style="fill:#626670; stroke:none;" d="M106 85L107 86L106 85z"/>
<path style="fill:#abddca; stroke:none;" d="M120 85L121 86L120 85M142 85L143 86L142 85z"/>
<path style="fill:#5db995; stroke:none;" d="M25.3333 86.6667L25.6667 87.3333L25.3333 86.6667z"/>
<path style="fill:#626670; stroke:none;" d="M46 86L47 87L46 86z"/>
<path style="fill:#abddca; stroke:none;" d="M62 86L63 87L62 86M85 86L86 87L85 86M106 86L107 87L106 86z"/>
<path style="fill:#626670; stroke:none;" d="M120 86L121 87L120 86M142 86L143 87L142 86z"/>
<path style="fill:#abddca; stroke:none;" d="M155 86L156 87L155 86z"/>
<path style="fill:#5db995; stroke:none;" d="M13 87L13 90L14 90L13 87z"/>
<path style="fill:#abddca; stroke:none;" d="M61 87L62 88L61 87M86 87L87 88L86 87M101 87L102 88L101 87z"/>
<path style="fill:#626670; stroke:none;" d="M107 87L108 88L107 87z"/>
<path style="fill:#abddca; stroke:none;" d="M141 87L142 88L141 87M25 88L25 91L26 91L25 88z"/>
<path style="fill:#5db995; stroke:none;" d="M45 88L46 89L45 88M60 88L61 89L60 88M87 88L88 89L87 88z"/>
<path style="fill:#626670; stroke:none;" d="M101 88L102 89L101 88z"/>
<path style="fill:#abddca; stroke:none;" d="M107 88L108 89L107 88z"/>
<path style="fill:#5db995; stroke:none;" d="M121 88L122 89L121 88M141 88L142 89L141 88z"/>
<path style="fill:#626670; stroke:none;" d="M154 88L155 89L154 88M45 89L46 90L45 89M59 89L60 90L59 89M88 89L89 90L88 89M99 89L100 90L99 89z"/>
<path style="fill:#abddca; stroke:none;" d="M100 89L101 90L100 89z"/>
<path style="fill:#626670; stroke:none;" d="M108 89L109 90L108 89M141 89L142 90L141 89z"/>
<path style="fill:#abddca; stroke:none;" d="M154 89L155 90L154 89M59 90L60 91L59 90M88 90L89 91L88 90z"/>
<path style="fill:#626670; stroke:none;" d="M96 90L97 91L96 90z"/>
<path style="fill:#5db995; stroke:none;" d="M97 90L98 91L97 90M108 90L109 91L108 90z"/>
<path style="fill:#abddca; stroke:none;" d="M122 90L123 91L122 90z"/>
<path style="fill:#626670; stroke:none;" d="M153 90L154 91L153 90M44 91L45 92L44 91M58 91L59 92L58 91z"/>
<path style="fill:#5db995; stroke:none;" d="M89 91L90 92L89 91z"/>
<path style="fill:#626670; stroke:none;" d="M92.6667 91.3333L93.3333 91.6667L92.6667 91.3333z"/>
<path style="fill:#abddca; stroke:none;" d="M94 91L95 92L94 91z"/>
<path style="fill:#626670; stroke:none;" d="M122 91L123 92L122 91M140 91L141 92L140 91z"/>
<path style="fill:#abddca; stroke:none;" d="M153 91L154 92L153 91M58 92L59 93L58 92z"/>
<path style="fill:#626670; stroke:none;" d="M90 92L91 93L90 92z"/>
<path style="fill:#abddca; stroke:none;" d="M91 92L92 93L91 92z"/>
<path style="fill:#626670; stroke:none;" d="M109 92L110 93L109 92M152 92L153 93L152 92z"/>
<path style="fill:#abddca; stroke:none;" d="M12 93L12 107L13 107L12 93z"/>
<path style="fill:#626670; stroke:none;" d="M57 93L58 94L57 93z"/>
<path style="fill:#abddca; stroke:none;" d="M109 93L110 94L109 93z"/>
<path style="fill:#626670; stroke:none;" d="M123 93L124 94L123 93z"/>
<path style="fill:#abddca; stroke:none;" d="M139 93L140 94L139 93z"/>
<path style="fill:#5db995; stroke:none;" d="M152 93L153 94L152 93z"/>
<path style="fill:#abddca; stroke:none;" d="M43.3333 94.6667L43.6667 95.3333L43.3333 94.6667M57 94L58 95L57 94z"/>
<path style="fill:#626670; stroke:none;" d="M139 94L140 95L139 94M110 95L111 96L110 95z"/>
<path style="fill:#abddca; stroke:none;" d="M124 95L125 96L124 95M138 95L139 96L138 95z"/>
<path style="fill:#626670; stroke:none;" d="M151 95L152 96L151 95z"/>
<path style="fill:#5db995; stroke:none;" d="M24 96L24 103L25 103L24 96M43 96L44 97L43 96z"/>
<path style="fill:#626670; stroke:none;" d="M124 96L125 97L124 96z"/>
<path style="fill:#5db995; stroke:none;" d="M138 96L139 97L138 96z"/>
<path style="fill:#626670; stroke:none;" d="M43 97L43 103L44 103L43 97M56 97L56 103L57 103L56 97M111 97L112 98L111 97M150 97L151 98L150 97z"/>
<path style="fill:#abddca; stroke:none;" d="M111 98L112 99L111 98M125 98L126 99L125 98M137 98L138 99L137 98M150 98L151 99L150 98z"/>
<path style="fill:#626670; stroke:none;" d="M125 99L126 100L125 99M137 99L138 100L137 99z"/>
<path style="fill:#abddca; stroke:none;" d="M112 100L113 101L112 100M136 100L137 101L136 100z"/>
<path style="fill:#626670; stroke:none;" d="M149 100L150 101L149 100M126 101L127 102L126 101M136 101L137 102L136 101z"/>
<path style="fill:#abddca; stroke:none;" d="M149 101L150 102L149 101z"/>
<path style="fill:#626670; stroke:none;" d="M113 102L114 103L113 102z"/>
<path style="fill:#5db995; stroke:none;" d="M43 103L44 104L43 103z"/>
<path style="fill:#abddca; stroke:none;" d="M113 103L114 104L113 103z"/>
<path style="fill:#5db995; stroke:none;" d="M127 103L128 104L127 103z"/>
<path style="fill:#abddca; stroke:none;" d="M135 103L136 104L135 103z"/>
<path style="fill:#5db995; stroke:none;" d="M148 103L149 104L148 103z"/>
<path style="fill:#abddca; stroke:none;" d="M43.3333 104.667L43.6667 105.333L43.3333 104.667z"/>
<path style="fill:#626670; stroke:none;" d="M114 104L115 105L114 104M127 104L128 105L127 104M135 104L136 105L135 104z"/>
<path style="fill:#5db995; stroke:none;" d="M57 105L58 106L57 105z"/>
<path style="fill:#abddca; stroke:none;" d="M114 105L115 106L114 105M134 105L135 106L134 105z"/>
<path style="fill:#626670; stroke:none;" d="M147 105L148 106L147 105M57 106L58 107L57 106M128 106L129 107L128 106M134 106L135 107L134 106z"/>
<path style="fill:#abddca; stroke:none;" d="M147 106L148 107L147 106M58 107L59 108L58 107z"/>
<path style="fill:#626670; stroke:none;" d="M90 107L91 108L90 107z"/>
<path style="fill:#abddca; stroke:none;" d="M91 107L92 108L91 107z"/>
<path style="fill:#626670; stroke:none;" d="M115 107L116 108L115 107M44 108L45 109L44 108M58 108L59 109L58 108z"/>
<path style="fill:#5db995; stroke:none;" d="M89 108L90 109L89 108z"/>
<path style="fill:#626670; stroke:none;" d="M93 108L94 109L93 108z"/>
<path style="fill:#abddca; stroke:none;" d="M94 108L95 109L94 108M115 108L116 109L115 108M129 108L130 109L129 108M133 108L134 109L133 108M146 108L147 109L146 108M25 109L25 112L26 112L25 109M88 109L89 110L88 109z"/>
<path style="fill:#626670; stroke:none;" d="M96 109L97 110L96 109z"/>
<path style="fill:#5db995; stroke:none;" d="M97 109L98 110L97 109z"/>
<path style="fill:#abddca; stroke:none;" d="M98 109L99 110L98 109z"/>
<path style="fill:#626670; stroke:none;" d="M116 109L117 110L116 109M129 109L130 110L129 109M133 109L134 110L133 109M45 110L46 111L45 110M59 110L60 111L59 110M88 110L89 111L88 110z"/>
<path style="fill:#abddca; stroke:none;" d="M100 110L101 111L100 110z"/>
<path style="fill:#5db995; stroke:none;" d="M116 110L117 111L116 110z"/>
<path style="fill:#abddca; stroke:none;" d="M130 110L131 111L130 110z"/>
<path style="fill:#5db995; stroke:none;" d="M145 110L146 111L145 110M13.3333 111.667L13.6667 112.333L13.3333 111.667M45 111L46 112L45 111M60 111L61 112L60 111z"/>
<path style="fill:#abddca; stroke:none;" d="M87 111L88 112L87 111z"/>
<path style="fill:#626670; stroke:none;" d="M101 111L102 112L101 111M130 111L131 112L130 111z"/>
<path style="fill:#abddca; stroke:none;" d="M132 111L133 112L132 111z"/>
<path style="fill:#5db995; stroke:none;" d="M25 112L26 113L25 112z"/>
<path style="fill:#abddca; stroke:none;" d="M61 112L62 113L61 112M86 112L87 113L86 112M101 112L102 113L101 112z"/>
<path style="fill:#626670; stroke:none;" d="M117 112L118 113L117 112M144 112L145 113L144 112z"/>
<path style="fill:#abddca; stroke:none;" d="M13 113L13 116L14 116L13 113z"/>
<path style="fill:#626670; stroke:none;" d="M46 113L47 114L46 113z"/>
<path style="fill:#abddca; stroke:none;" d="M62 113L63 114L62 113M85 113L86 114L85 113z"/>
<path style="fill:#626670; stroke:none;" d="M100 113L101 114L100 113z"/>
<path style="fill:#abddca; stroke:none;" d="M117 113L118 114L117 113z"/>
<path style="fill:#626670; stroke:none;" d="M131 113L132 114L131 113z"/>
<path style="fill:#abddca; stroke:none;" d="M144 113L145 114L144 113z"/>
<path style="fill:#5db995; stroke:none;" d="M63 114L64 115L63 114z"/>
<path style="fill:#abddca; stroke:none;" d="M84 114L85 115L84 114M100 114L101 115L100 114z"/>
<path style="fill:#626670; stroke:none;" d="M118 114L119 115L118 114M143 114L144 115L143 114z"/>
<path style="fill:#5db995; stroke:none;" d="M47 115L48 116L47 115z"/>
<path style="fill:#626670; stroke:none;" d="M64 115L65 116L64 115z"/>
<path style="fill:#abddca; stroke:none;" d="M65 115L66 116L65 115z"/>
<path style="fill:#626670; stroke:none;" d="M83 115L84 116L83 115z"/>
<path style="fill:#5db995; stroke:none;" d="M118 115L119 116L118 115M143 115L144 116L143 115z"/>
<path style="fill:#abddca; stroke:none;" d="M26 116L27 117L26 116z"/>
<path style="fill:#626670; stroke:none;" d="M48 116L49 117L48 116M66 116L67 117L66 116z"/>
<path style="fill:#abddca; stroke:none;" d="M67 116L68 117L67 116M80 116L81 117L80 116z"/>
<path style="fill:#626670; stroke:none;" d="M81 116L82 117L81 116z"/>
<path style="fill:#abddca; stroke:none;" d="M99 116L100 117L99 116z"/>
<path style="fill:#5db995; stroke:none;" d="M14 117L15 118L14 117z"/>
<path style="fill:#626670; stroke:none;" d="M69 117L70 118L69 117z"/>
<path style="fill:#abddca; stroke:none;" d="M70.6667 117.333L71.3333 117.667L70.6667 117.333M76 117L77 118L76 117z"/>
<path style="fill:#5db995; stroke:none;" d="M77 117L78 118L77 117z"/>
<path style="fill:#626670; stroke:none;" d="M78 117L79 118L78 117M98 117L99 118L98 117z"/>
<path style="fill:#5db995; stroke:none;" d="M119 117L120 118L119 117z"/>
<path style="fill:#626670; stroke:none;" d="M142 117L143 118L142 117z"/>
<path style="fill:#abddca; stroke:none;" d="M14.3333 118.667L14.6667 119.333L14.3333 118.667M49 118L50 119L49 118z"/>
<path style="fill:#626670; stroke:none;" d="M97 118L98 119L97 118z"/>
<path style="fill:#abddca; stroke:none;" d="M27 119L28 120L27 119z"/>
<path style="fill:#626670; stroke:none;" d="M50 119L51 120L50 119z"/>
<path style="fill:#abddca; stroke:none;" d="M97 119L98 120L97 119z"/>
<path style="fill:#626670; stroke:none;" d="M120 119L121 120L120 119M141 119L142 120L141 119z"/>
<path style="fill:#5db995; stroke:none;" d="M27 120L28 121L27 120z"/>
<path style="fill:#626670; stroke:none;" d="M51 120L52 121L51 120z"/>
<path style="fill:#abddca; stroke:none;" d="M96 120L97 121L96 120M120 120L121 121L120 120M141 120L142 121L141 120z"/>
<path style="fill:#5db995; stroke:none;" d="M15.3333 121.667L15.6667 122.333L15.3333 121.667z"/>
<path style="fill:#626670; stroke:none;" d="M52 121L53 122L52 121z"/>
<path style="fill:#abddca; stroke:none;" d="M95 121L96 122L95 121z"/>
<path style="fill:#626670; stroke:none;" d="M53 122L54 123L53 122z"/>
<path style="fill:#abddca; stroke:none;" d="M94 122L95 123L94 122z"/>
<path style="fill:#5db995; stroke:none;" d="M121 122L122 123L121 122z"/>
<path style="fill:#626670; stroke:none;" d="M140 122L141 123L140 122z"/>
<path style="fill:#abddca; stroke:none;" d="M15 123L16 124L15 123M28 123L29 124L28 123z"/>
<path style="fill:#5db995; stroke:none;" d="M54 123L55 124L54 123z"/>
<path style="fill:#abddca; stroke:none;" d="M140 123L141 124L140 123M55 124L56 125L55 124z"/>
<path style="fill:#626670; stroke:none;" d="M91 124L92 125L91 124M122 124L123 125L122 124z"/>
<path style="fill:#abddca; stroke:none;" d="M29 125L30 126L29 125z"/>
<path style="fill:#5db995; stroke:none;" d="M57 125L58 126L57 125z"/>
<path style="fill:#626670; stroke:none;" d="M89 125L90 126L89 125z"/>
<path style="fill:#abddca; stroke:none;" d="M90 125L91 126L90 125M122 125L123 126L122 125M139 125L140 126L139 125M16.3333 126.667L16.6667 127.333L16.3333 126.667z"/>
<path style="fill:#5db995; stroke:none;" d="M29 126L30 127L29 126z"/>
<path style="fill:#626670; stroke:none;" d="M59 126L60 127L59 126z"/>
<path style="fill:#abddca; stroke:none;" d="M88 126L89 127L88 126z"/>
<path style="fill:#626670; stroke:none;" d="M123 126L124 127L123 126z"/>
<path style="fill:#abddca; stroke:none;" d="M60 127L61 128L60 127z"/>
<path style="fill:#626670; stroke:none;" d="M61 127L62 128L61 127M85 127L86 128L85 127z"/>
<path style="fill:#abddca; stroke:none;" d="M86 127L87 128L86 127M123 127L124 128L123 127z"/>
<path style="fill:#626670; stroke:none;" d="M138 127L139 128L138 127z"/>
<path style="fill:#abddca; stroke:none;" d="M30 128L31 129L30 128M63 128L64 129L63 128z"/>
<path style="fill:#626670; stroke:none;" d="M64 128L65 129L64 128M83 128L84 129L83 128z"/>
<path style="fill:#abddca; stroke:none;" d="M138 128L139 129L138 128M17 129L18 130L17 129M66 129L67 130L66 129z"/>
<path style="fill:#5db995; stroke:none;" d="M67 129L68 130L67 129z"/>
<path style="fill:#626670; stroke:none;" d="M68 129L68 130L72 130L68 129M76 129L76 130L79 130L76 129z"/>
<path style="fill:#5db995; stroke:none;" d="M79 129L80 130L79 129z"/>
<path style="fill:#abddca; stroke:none;" d="M80.6667 129.333L81.3333 129.667L80.6667 129.333z"/>
<path style="fill:#626670; stroke:none;" d="M124.333 129.667L124.667 130.333L124.333 129.667M137 129L138 130L137 129z"/>
<path style="fill:#abddca; stroke:none;" d="M31 130L32 131L31 130M137 130L138 131L137 130z"/>
<path style="fill:#5db995; stroke:none;" d="M18 131L19 132L18 131M31 131L32 132L31 131z"/>
<path style="fill:#abddca; stroke:none;" d="M123 131L124 132L123 131z"/>
<path style="fill:#626670; stroke:none;" d="M136 131L137 132L136 131z"/>
<path style="fill:#abddca; stroke:none;" d="M18 132L19 133L18 132z"/>
<path style="fill:#626670; stroke:none;" d="M123 132L124 133L123 132z"/>
<path style="fill:#5db995; stroke:none;" d="M136 132L137 133L136 132M32 133L33 134L32 133z"/>
<path style="fill:#abddca; stroke:none;" d="M19 134L20 135L19 134M33 134L34 135L33 134z"/>
<path style="fill:#626670; stroke:none;" d="M122 134L123 135L122 134M135 134L136 135L135 134z"/>
<path style="fill:#5db995; stroke:none;" d="M33 135L34 136L33 135M20 136L21 137L20 136z"/>
<path style="fill:#abddca; stroke:none;" d="M121 136L122 137L121 136z"/>
<path style="fill:#626670; stroke:none;" d="M134 136L135 137L134 136z"/>
<path style="fill:#5db995; stroke:none;" d="M34 137L35 138L34 137z"/>
<path style="fill:#626670; stroke:none;" d="M121 137L122 138L121 137z"/>
<path style="fill:#abddca; stroke:none;" d="M134 137L135 138L134 137z"/>
<path style="fill:#5db995; stroke:none;" d="M21 138L22 139L21 138z"/>
<path style="fill:#abddca; stroke:none;" d="M35 138L36 139L35 138M120 138L121 139L120 138z"/>
<path style="fill:#626670; stroke:none;" d="M120 139L121 140L120 139M133 139L134 140L133 139z"/>
<path style="fill:#5db995; stroke:none;" d="M22 140L23 141L22 140M36 140L37 141L36 140z"/>
<path style="fill:#abddca; stroke:none;" d="M133 140L134 141L133 140M37 141L38 142L37 141z"/>
<path style="fill:#5db995; stroke:none;" d="M119 141L120 142L119 141z"/>
<path style="fill:#abddca; stroke:none;" d="M23 142L24 143L23 142M132 142L133 143L132 142z"/>
<path style="fill:#5db995; stroke:none;" d="M38 143L39 144L38 143z"/>
<path style="fill:#abddca; stroke:none;" d="M118 143L119 144L118 143M24 144L25 145L24 144M39 144L40 145L39 144z"/>
<path style="fill:#626670; stroke:none;" d="M118 144L119 145L118 144M131 144L132 145L131 144z"/>
<path style="fill:#abddca; stroke:none;" d="M40 145L41 146L40 145M131 145L132 146L131 145M25 146L26 147L25 146z"/>
<path style="fill:#626670; stroke:none;" d="M117 146L118 147L117 146M130 146L131 147L130 146z"/>
<path style="fill:#5db995; stroke:none;" d="M26 147L27 148L26 147M41 147L42 148L41 147z"/>
<path style="fill:#abddca; stroke:none;" d="M130 147L131 148L130 147z"/>
<path style="fill:#626670; stroke:none;" d="M41 148L44 151L41 148z"/>
<path style="fill:#abddca; stroke:none;" d="M42 148L43 149L42 148z"/>
<path style="fill:#5db995; stroke:none;" d="M116 148L117 149L116 148z"/>
<path style="fill:#abddca; stroke:none;" d="M27 149L28 150L27 149M43 149L44 150L43 149z"/>
<path style="fill:#626670; stroke:none;" d="M116 149L117 150L116 149z"/>
<path style="fill:#5db995; stroke:none;" d="M129 149L130 150L129 149z"/>
<path style="fill:#abddca; stroke:none;" d="M28 150L29 151L28 150M44 150L45 151L44 150M115 150L116 151L115 150M45 151L47 153L45 151z"/>
<path style="fill:#626670; stroke:none;" d="M115 151L116 152L115 151M128 151L129 152L128 151M45 152L46 153L45 152z"/>
<path style="fill:#abddca; stroke:none;" d="M47 153L49 155L47 153M114 153L115 154L114 153z"/>
<path style="fill:#626670; stroke:none;" d="M127 153L128 154L127 153z"/>
<path style="fill:#abddca; stroke:none;" d="M31 154L32 155L31 154z"/>
<path style="fill:#626670; stroke:none;" d="M47 154L48 155L47 154M114 154L115 155L114 154z"/>
<path style="fill:#5db995; stroke:none;" d="M127 154L128 155L127 154M32 155L33 156L32 155z"/>
<path style="fill:#abddca; stroke:none;" d="M49 155L52 158L49 155M113 155L114 156L113 155z"/>
<path style="fill:#626670; stroke:none;" d="M33 156L34 157L33 156M49 156L50 157L49 156M113 156L114 157L113 156M126 156L127 157L126 156M34 157L35 158L34 157M50 157L51 158L50 157z"/>
<path style="fill:#abddca; stroke:none;" d="M34 158L35 159L34 158z"/>
<path style="fill:#5db995; stroke:none;" d="M52 158L53 159L52 158z"/>
<path style="fill:#abddca; stroke:none;" d="M112 158L113 159L112 158z"/>
<path style="fill:#626670; stroke:none;" d="M125 158L126 159L125 158z"/>
<path style="fill:#abddca; stroke:none;" d="M35 159L37 161L35 159z"/>
<path style="fill:#626670; stroke:none;" d="M36 159L37 160L36 159M53 159L54 160L53 159z"/>
<path style="fill:#abddca; stroke:none;" d="M54 159L55 160L54 159M125 159L126 160L125 159M55 160L56 161L55 160M111 160L112 161L111 160M37 161L39 163L37 161z"/>
<path style="fill:#626670; stroke:none;" d="M38 161L39 162L38 161M56 161L57 162L56 161M111 161L112 162L111 161M124 161L125 162L124 161M57 162L58 163L57 162z"/>
<path style="fill:#abddca; stroke:none;" d="M58 162L59 163L58 162M124 162L125 163L124 162M39 163L41 165L39 163z"/>
<path style="fill:#626670; stroke:none;" d="M40 163L41 164L40 163z"/>
<path style="fill:#5db995; stroke:none;" d="M59 163L60 164L59 163z"/>
<path style="fill:#626670; stroke:none;" d="M110 163L111 164L110 163M123 163L124 164L123 163M60 164L61 165L60 164z"/>
<path style="fill:#abddca; stroke:none;" d="M61 164L62 165L61 164M123 164L124 165L123 164M41 165L42 166L41 165z"/>
<path style="fill:#626670; stroke:none;" d="M42 165L43 166L42 165M62 165L63 166L62 165z"/>
<path style="fill:#abddca; stroke:none;" d="M63 165L64 166L63 165z"/>
<path style="fill:#5db995; stroke:none;" d="M109 165L110 166L109 165z"/>
<path style="fill:#626670; stroke:none;" d="M43 166L44 167L43 166M64 166L65 167L64 166z"/>
<path style="fill:#abddca; stroke:none;" d="M65 166L66 167L65 166z"/>
<path style="fill:#626670; stroke:none;" d="M109 166L110 167L109 166z"/>
<path style="fill:#5db995; stroke:none;" d="M122 166L123 167L122 166z"/>
<path style="fill:#626670; stroke:none;" d="M44 167L45 168L44 167M66 167L67 168L66 167z"/>
<path style="fill:#abddca; stroke:none;" d="M108 167L109 168L108 167M45 168L46 169L45 168z"/>
<path style="fill:#626670; stroke:none;" d="M68 168L69 169L68 168z"/>
<path style="fill:#abddca; stroke:none;" d="M69 168L70 169L69 168z"/>
<path style="fill:#5db995; stroke:none;" d="M108 168L109 169L108 168z"/>
<path style="fill:#626670; stroke:none;" d="M121 168L122 169L121 168M47 169L48 170L47 169M70 169L71 170L70 169z"/>
<path style="fill:#abddca; stroke:none;" d="M71 169L72 170L71 169z"/>
<path style="fill:#626670; stroke:none;" d="M108 169L109 170L108 169z"/>
<path style="fill:#abddca; stroke:none;" d="M121 169L122 170L121 169z"/>
<path style="fill:#626670; stroke:none;" d="M48 170L49 171L48 170M72 170L73 171L72 170z"/>
<path style="fill:#5db995; stroke:none;" d="M73 170L74 171L73 170z"/>
<path style="fill:#abddca; stroke:none;" d="M74 170L75 171L74 170M107 170L108 171L107 170z"/>
<path style="fill:#626670; stroke:none;" d="M120 170L121 171L120 170z"/>
<path style="fill:#abddca; stroke:none;" d="M49 171L50 172L49 171z"/>
<path style="fill:#626670; stroke:none;" d="M75 171L76 172L75 171z"/>
<path style="fill:#abddca; stroke:none;" d="M76 171L77 172L76 171z"/>
<path style="fill:#626670; stroke:none;" d="M107 171L108 172L107 171z"/>
<path style="fill:#5db995; stroke:none;" d="M120 171L121 172L120 171z"/>
<path style="fill:#abddca; stroke:none;" d="M50 172L51 173L50 172z"/>
<path style="fill:#626670; stroke:none;" d="M51 172L52 173L51 172M78 172L79 173L78 172z"/>
<path style="fill:#5db995; stroke:none;" d="M79 172L80 173L79 172z"/>
<path style="fill:#abddca; stroke:none;" d="M80 172L81 173L80 172M106 172L107 173L106 172z"/>
<path style="fill:#626670; stroke:none;" d="M52 173L53 174L52 173M82 173L83 174L82 173z"/>
<path style="fill:#5db995; stroke:none;" d="M83 173L84 174L83 173z"/>
<path style="fill:#abddca; stroke:none;" d="M84 173L85 174L84 173z"/>
<path style="fill:#626670; stroke:none;" d="M106 173L107 174L106 173M119 173L120 174L119 173z"/>
<path style="fill:#abddca; stroke:none;" d="M53 174L54 175L53 174z"/>
<path style="fill:#626670; stroke:none;" d="M54 174L55 175L54 174M86.6667 174.333L87.3333 174.667L86.6667 174.333z"/>
<path style="fill:#5db995; stroke:none;" d="M88 174L89 175L88 174z"/>
<path style="fill:#abddca; stroke:none;" d="M89 174L89 175L92 175L89 174z"/>
<path style="fill:#626670; stroke:none;" d="M105 174L106 175L105 174z"/>
<path style="fill:#abddca; stroke:none;" d="M55 175L56 176L55 175z"/>
<path style="fill:#626670; stroke:none;" d="M56 175L57 176L56 175M97 175L97 176L103 176L97 175M118 175L119 176L118 175z"/>
<path style="fill:#abddca; stroke:none;" d="M57 176L58 177L57 176M118 176L119 177L118 176z"/>
<path style="fill:#5db995; stroke:none;" d="M59 177L60 178L59 177z"/>
<path style="fill:#626670; stroke:none;" d="M61 178L62 179L61 178z"/>
<path style="fill:#abddca; stroke:none;" d="M117 178L118 179L117 178z"/>
<path style="fill:#5db995; stroke:none;" d="M63 179L64 180L63 179z"/>
<path style="fill:#626670; stroke:none;" d="M116 179L117 180L116 179z"/>
<path style="fill:#5db995; stroke:none;" d="M65 180L66 181L65 180z"/>
<path style="fill:#abddca; stroke:none;" d="M116 180L117 181L116 180M67 181L68 182L67 181z"/>
<path style="fill:#626670; stroke:none;" d="M68 181L69 182L68 181M115 181L116 182L115 181z"/>
<path style="fill:#5db995; stroke:none;" d="M70 182L71 183L70 182z"/>
<path style="fill:#626670; stroke:none;" d="M114 182L115 183L114 182z"/>
<path style="fill:#abddca; stroke:none;" d="M72 183L73 184L72 183z"/>
<path style="fill:#5db995; stroke:none;" d="M73 183L74 184L73 183z"/>
<path style="fill:#626670; stroke:none;" d="M74 183L75 184L74 183M113 183L114 184L113 183z"/>
<path style="fill:#abddca; stroke:none;" d="M76 184L77 185L76 184z"/>
<path style="fill:#5db995; stroke:none;" d="M77 184L78 185L77 184z"/>
<path style="fill:#626670; stroke:none;" d="M78 184L79 185L78 184z"/>
<path style="fill:#abddca; stroke:none;" d="M112 184L113 185L112 184M80 185L81 186L80 185z"/>
<path style="fill:#5db995; stroke:none;" d="M81 185L82 186L81 185z"/>
<path style="fill:#626670; stroke:none;" d="M82 185L83 186L82 185M110 185L111 186L110 185z"/>
<path style="fill:#abddca; stroke:none;" d="M84.6667 186.333L85.3333 186.667L84.6667 186.333z"/>
<path style="fill:#5db995; stroke:none;" d="M86 186L87 187L86 186z"/>
<path style="fill:#626670; stroke:none;" d="M87 186L87 187L90 187L87 186M107 186L108 187L107 186z"/>
<path style="fill:#5db995; stroke:none;" d="M108 186L109 187L108 186z"/>
<path style="fill:#abddca; stroke:none;" d="M93 187L93 188L96 188L93 187z"/>
<path style="fill:#5db995; stroke:none;" d="M96.6667 187.333L97.3333 187.667L96.6667 187.333z"/>
<path style="fill:#626670; stroke:none;" d="M98 187L98 188L102 188L98 187z"/>
<path style="fill:#5db995; stroke:none;" d="M102.667 187.333L103.333 187.667L102.667 187.333z"/>
<path style="fill:#abddca; stroke:none;" d="M104.667 187.333L105.333 187.667L104.667 187.333z"/>
</svg>
