<?xml version="1.0" standalone="yes"?>
<svg xmlns="http://www.w3.org/2000/svg" width="306" height="432">
<path style="fill:#090809; stroke:none;" d="M0 0L0 85L306 85L306 0L0 0z"/>
<path style="fill:#f26232; stroke:none;" d="M0 85L5.83025 154L19.9113 312L25.5756 376L28.0278 396.272L41 401L75 410.421L125 424.291L152 431.375L176 425.421L222 412.629L262 401.579L276.973 396.297L280.089 371L285.17 314L298.83 163L306 85L0 85z"/>
<path style="fill:#090809; stroke:none;" d="M305 87C304.997 109.886 301.374 133.227 299.17 156C294.083 208.569 288.95 261.328 285.089 314C283.672 333.328 280.948 352.649 280 372C279.715 377.817 280.566 391.927 276.397 396.297C270.411 402.571 252.271 403.917 244 406.291C214.64 414.718 183.249 426.923 153 431L153 432L306 432L306 188L306 118L305 87M0 95L0 432L151 432L151 431C121.37 424.868 92.2102 414.76 63 406.849C54.3143 404.496 34.9331 402.73 28.6034 396.272C25.058 392.655 26.298 381.834 25.8302 377C24.0247 358.343 22.6356 339.655 20.8302 321C15.6075 267.031 11.3925 212.97 6.16975 159C4.71899 144.008 3.62054 128.992 2.16975 114C1.5927 108.037 2.31219 100.51 0 95z"/>
<path style="fill:#f6f6f5; stroke:none;" d="M57 149C62.0417 176.157 62.8909 205.439 64.9113 233C65.3439 238.902 63.9086 259.254 68.6034 262.972C72.8675 266.349 85.7222 264 91 264L152 264L152 227L102 227L98 187L152 187L152 149L57 149z"/>
<path style="fill:#f5cfbf; stroke:none;" d="M152 149L152 187L153 187C153 176.089 156.211 159.036 152 149z"/>
<path style="fill:#f6f6f5; stroke:none;" d="M153 149L153 187L245 187L248 149L153 149z"/>
<path style="fill:#f49e78; stroke:none;" d="M248 149L249 150L248 149z"/>
<path style="fill:#f5cfbf; stroke:none;" d="M57 151L57 154L58 154L57 151M247 153L247 157L248 157L247 153z"/>
<path style="fill:#f49e78; stroke:none;" d="M57 154L57 158L58 158L57 154M247 157L247 161L248 161L247 157z"/>
<path style="fill:#f5cfbf; stroke:none;" d="M58 162L58 165L59 165L58 162M246 164L246 168L247 168L246 164z"/>
<path style="fill:#f49e78; stroke:none;" d="M58 165L58 170L59 170L58 165M246 168L246 172L247 172L246 168z"/>
<path style="fill:#f5cfbf; stroke:none;" d="M59 173L59 177L60 177L59 173M245 175L245 179L246 179L245 175z"/>
<path style="fill:#f49e78; stroke:none;" d="M59 177L59 181L60 181L59 177M245 179L245 184L246 184L245 179z"/>
<path style="fill:#f5cfbf; stroke:none;" d="M60 184L60 188L61 188L60 184M98 187L98 190L99 190L98 187z"/>
<path style="fill:#f49e78; stroke:none;" d="M99 187L99 188L245 188C233.544 183.193 213.468 187 201 187L99 187M60 188L60 192L61 192L60 188M99 193L99 198L100 198L99 193z"/>
<path style="fill:#f5cfbf; stroke:none;" d="M61 196L61 199L62 199L61 196M99 198L99 201L100 201L99 198z"/>
<path style="fill:#f49e78; stroke:none;" d="M61 199L61 203L62 203L61 199M100 205L100 209L101 209L100 205z"/>
<path style="fill:#f5cfbf; stroke:none;" d="M62 207L62 210L63 210L62 207M100 209L100 212L101 212L100 209z"/>
<path style="fill:#f49e78; stroke:none;" d="M62 210L62 214L63 214L62 210M101 216L101 220L102 220L101 216z"/>
<path style="fill:#f5cfbf; stroke:none;" d="M63 218L63 221L64 221L63 218M101 220L101 223L102 223L101 220z"/>
<path style="fill:#f49e78; stroke:none;" d="M63 221L63 226L64 226L63 221z"/>
<path style="fill:#f5cfbf; stroke:none;" d="M102 226L102 227L152 227L152 254C152 256.803 151.082 261.975 153.603 263.972C159.404 268.566 179.652 265 187 265C191.394 265 196.383 263.963 199 268L200 268L200 264L153 264L153 227L241 227C230.02 222.393 210.944 226 199 226L102 226z"/>
<path style="fill:#f49e78; stroke:none;" d="M241 226L241 229L242 229L241 226z"/>
<path style="fill:#f6f6f5; stroke:none;" d="M153 227L153 264L200 264L196.576 300L194.258 312.697L182 317.626L153 325L153 365C170.734 359.329 188.995 354.64 207 349.884C212.997 348.3 224.769 347.265 229.397 343.062C234.263 338.642 232.545 319.457 233.17 313C235.93 284.48 239.771 255.622 241 227L153 227z"/>
<path style="fill:#f5cfbf; stroke:none;" d="M64 229L64 233L65 233L64 229M240 232L240 235L241 235L240 232z"/>
<path style="fill:#f49e78; stroke:none;" d="M64 233L64 237L65 237L64 233M240 235L240 240L241 240L240 235z"/>
<path style="fill:#f5cfbf; stroke:none;" d="M65 240L65 244L66 244L65 240M239 243L239 246L240 246L239 243z"/>
<path style="fill:#f49e78; stroke:none;" d="M65 244L65 248L66 248L65 244M239 246L239 251L240 251L239 246z"/>
<path style="fill:#f5cfbf; stroke:none;" d="M66 252L66 255L67 255L66 252M238 254L238 258L239 258L238 254z"/>
<path style="fill:#f49e78; stroke:none;" d="M66 255L66 259L67 259L66 255M238 258L238 262L239 262L238 258z"/>
<path style="fill:#f5cfbf; stroke:none;" d="M67 263L68 264L67 263z"/>
<path style="fill:#f49e78; stroke:none;" d="M67 264L67 265L153 265L126 264L67 264z"/>
<path style="fill:#f5cfbf; stroke:none;" d="M237 265L237 269L238 269L237 265z"/>
<path style="fill:#f49e78; stroke:none;" d="M237 269L237 273L238 273L237 269M198 271L198 275L199 275L198 271z"/>
<path style="fill:#f5cfbf; stroke:none;" d="M198 275L198 279L199 279L198 275M236 276L236 280L237 280L236 276z"/>
<path style="fill:#f49e78; stroke:none;" d="M236 280L236 285L237 285L236 280M197 282L197 286L198 286L197 282M69 283L69 284C77.0326 284 102.469 280.01 107 287C108.029 282.418 102.231 283.007 99 283L69 283z"/>
<path style="fill:#f6f6f5; stroke:none;" d="M69 284L72.9113 323L75.179 341.697L95 348.884L152 364L152 337C152 333.943 152.849 329.158 150.972 326.513C148.871 323.552 143.245 323.205 140 322.37C132.259 320.38 117.199 319.018 111.318 313.487C106.268 308.738 107.14 290.763 107 284L69 284z"/>
<path style="fill:#f5cfbf; stroke:none;" d="M69 285L69 289L70 289L69 285M197 286L197 290L198 290L197 286M107 287L107 291L108 291L107 287M235 288L235 291L236 291L235 288z"/>
<path style="fill:#f49e78; stroke:none;" d="M69 289L69 293L70 293L69 289M235 291L235 296L236 296L235 291M196 293L196 297L197 297L196 293M108 294L108 298L109 298L108 294z"/>
<path style="fill:#f5cfbf; stroke:none;" d="M70 297L70 300L71 300L70 297M196 297L196 301L197 301L196 297M108 298L108 302L109 302L108 298M234 299L234 302L235 302L234 299z"/>
<path style="fill:#f49e78; stroke:none;" d="M70 300L70 304L71 304L70 300M234 302L234 307L235 307L234 302M195 304L195 308L196 308L195 304M109 305L109 310L110 310L109 305z"/>
<path style="fill:#f5cfbf; stroke:none;" d="M71 308L71 311L72 311L71 308M195 308L195 312L196 312L195 308M109 310L109 313L110 313L109 310M233 310L233 314L234 314L233 310z"/>
<path style="fill:#f49e78; stroke:none;" d="M71 311L71 315L72 315L71 311z"/>
<path style="fill:#f5cfbf; stroke:none;" d="M111 314L112 315L111 314z"/>
<path style="fill:#f49e78; stroke:none;" d="M112 314L113 315L112 314M191.667 314.333L192.333 314.667L191.667 314.333z"/>
<path style="fill:#f5cfbf; stroke:none;" d="M193 314L194 315L193 314z"/>
<path style="fill:#f49e78; stroke:none;" d="M233 314L233 318L234 318L233 314z"/>
<path style="fill:#f5cfbf; stroke:none;" d="M114 315L115 316L114 315z"/>
<path style="fill:#f49e78; stroke:none;" d="M115.667 315.333L116.333 315.667L115.667 315.333M188 315L189 316L188 315z"/>
<path style="fill:#f5cfbf; stroke:none;" d="M189 315L190 316L189 315M118 316L119 317L118 316z"/>
<path style="fill:#f49e78; stroke:none;" d="M119 316L120 317L119 316M184 316L185 317L184 316z"/>
<path style="fill:#f5cfbf; stroke:none;" d="M185.667 316.333L186.333 316.667L185.667 316.333M122 317L123 318L122 317z"/>
<path style="fill:#f49e78; stroke:none;" d="M123 317L124 318L123 317M180.667 317.333L181.333 317.667L180.667 317.333z"/>
<path style="fill:#f5cfbf; stroke:none;" d="M182 317L183 318L182 317M125 318L126 319L125 318z"/>
<path style="fill:#f49e78; stroke:none;" d="M126.667 318.333L127.333 318.667L126.667 318.333M176.667 318.333L177.333 318.667L176.667 318.333z"/>
<path style="fill:#f5cfbf; stroke:none;" d="M178 318L179 319L178 318M72 319L72 322L73 322L72 319M129 319L130 320L129 319z"/>
<path style="fill:#f49e78; stroke:none;" d="M130.667 319.333L131.333 319.667L130.667 319.333M173 319L174 320L173 319z"/>
<path style="fill:#f5cfbf; stroke:none;" d="M174 319L175 320L174 319M133 320L134 321L133 320z"/>
<path style="fill:#f49e78; stroke:none;" d="M134 320L135 321L134 320M169.667 320.333L170.333 320.667L169.667 320.333z"/>
<path style="fill:#f5cfbf; stroke:none;" d="M171 320L172 321L171 320M136.667 321.333L137.333 321.667L136.667 321.333z"/>
<path style="fill:#f49e78; stroke:none;" d="M138 321L139 322L138 321M165.667 321.333L166.333 321.667L165.667 321.333z"/>
<path style="fill:#f5cfbf; stroke:none;" d="M167 321L168 322L167 321M232 321L232 325L233 325L232 321z"/>
<path style="fill:#f49e78; stroke:none;" d="M72 322L72 327L73 327L72 322z"/>
<path style="fill:#f5cfbf; stroke:none;" d="M140 322L141 323L140 322z"/>
<path style="fill:#f49e78; stroke:none;" d="M141.667 322.333L142.333 322.667L141.667 322.333M162 322L163 323L162 322z"/>
<path style="fill:#f5cfbf; stroke:none;" d="M163 322L164 323L163 322M144 323L145 324L144 323z"/>
<path style="fill:#f49e78; stroke:none;" d="M145 323L146 324L145 323M158 323L159 324L158 323z"/>
<path style="fill:#f5cfbf; stroke:none;" d="M159.667 323.333L160.333 323.667L159.667 323.333M148 324L149 325L148 324z"/>
<path style="fill:#f49e78; stroke:none;" d="M149 324L150 325L149 324M154.667 324.333L155.333 324.667L154.667 324.333z"/>
<path style="fill:#f5cfbf; stroke:none;" d="M156 324L157 325L156 324M151 325C153.041 333.573 155.403 356.869 150 364L150 365C155.923 363.731 153 339.765 153 334C153 330.772 153.97 326.711 151 325z"/>
<path style="fill:#f49e78; stroke:none;" d="M232 325L232 329L233 329L232 325z"/>
<path style="fill:#f5cfbf; stroke:none;" d="M73 330L73 334L74 334L73 330M231 332L231 336L232 336L231 332z"/>
<path style="fill:#f49e78; stroke:none;" d="M73 334L73 338L74 338L73 334M231 336L231 340L232 340L231 336z"/>
<path style="fill:#f5cfbf; stroke:none;" d="M74 341L76 344L74 341z"/>
<path style="fill:#f49e78; stroke:none;" d="M74 343L75 344L74 343z"/>
<path style="fill:#f5cfbf; stroke:none;" d="M230 343L231 344L230 343z"/>
<path style="fill:#f49e78; stroke:none;" d="M77 344L78 345L77 344z"/>
<path style="fill:#f5cfbf; stroke:none;" d="M78.6667 344.333L79.3333 344.667L78.6667 344.333M226 344L227 345L226 344z"/>
<path style="fill:#f49e78; stroke:none;" d="M227.667 344.333L228.333 344.667L227.667 344.333M81 345L82 346L81 345z"/>
<path style="fill:#f5cfbf; stroke:none;" d="M82 345L83 346L82 345M222.667 345.333L223.333 345.667L222.667 345.333z"/>
<path style="fill:#f49e78; stroke:none;" d="M224 345L225 346L224 345M84.6667 346.333L85.3333 346.667L84.6667 346.333z"/>
<path style="fill:#f5cfbf; stroke:none;" d="M86 346L87 347L86 346M219 346L220 347L219 346z"/>
<path style="fill:#f49e78; stroke:none;" d="M220 346L221 347L220 346M88 347L89 348L88 347z"/>
<path style="fill:#f5cfbf; stroke:none;" d="M89 347L90 348L89 347M215 347L216 348L215 347z"/>
<path style="fill:#f49e78; stroke:none;" d="M216.667 347.333L217.333 347.667L216.667 347.333M91.6667 348.333L92.3333 348.667L91.6667 348.333z"/>
<path style="fill:#f5cfbf; stroke:none;" d="M93 348L94 349L93 348M212 348L213 349L212 348z"/>
<path style="fill:#f49e78; stroke:none;" d="M213 348L214 349L213 348M95 349L96 350L95 349z"/>
<path style="fill:#f5cfbf; stroke:none;" d="M96.6667 349.333L97.3333 349.667L96.6667 349.333M208 349L209 350L208 349z"/>
<path style="fill:#f49e78; stroke:none;" d="M209.667 349.333L210.333 349.667L209.667 349.333M99 350L100 351L99 350z"/>
<path style="fill:#f5cfbf; stroke:none;" d="M100 350L101 351L100 350M204.667 350.333L205.333 350.667L204.667 350.333z"/>
<path style="fill:#f49e78; stroke:none;" d="M206 350L207 351L206 350M102.667 351.333L103.333 351.667L102.667 351.333z"/>
<path style="fill:#f5cfbf; stroke:none;" d="M104 351L105 352L104 351M201 351L202 352L201 351z"/>
<path style="fill:#f49e78; stroke:none;" d="M202 351L203 352L202 351M106 352L107 353L106 352z"/>
<path style="fill:#f5cfbf; stroke:none;" d="M107 352L108 353L107 352M197 352L198 353L197 352z"/>
<path style="fill:#f49e78; stroke:none;" d="M198.667 352.333L199.333 352.667L198.667 352.333M109.667 353.333L110.333 353.667L109.667 353.333z"/>
<path style="fill:#f5cfbf; stroke:none;" d="M111 353L112 354L111 353M194 353L195 354L194 353z"/>
<path style="fill:#f49e78; stroke:none;" d="M195 353L196 354L195 353M113 354L114 355L113 354z"/>
<path style="fill:#f5cfbf; stroke:none;" d="M114.667 354.333L115.333 354.667L114.667 354.333M190 354L191 355L190 354z"/>
<path style="fill:#f49e78; stroke:none;" d="M191.667 354.333L192.333 354.667L191.667 354.333M117 355L118 356L117 355z"/>
<path style="fill:#f5cfbf; stroke:none;" d="M118 355L119 356L118 355M186.667 355.333L187.333 355.667L186.667 355.333z"/>
<path style="fill:#f49e78; stroke:none;" d="M188 355L189 356L188 355M120.667 356.333L121.333 356.667L120.667 356.333z"/>
<path style="fill:#f5cfbf; stroke:none;" d="M122 356L123 357L122 356M183 356L184 357L183 356z"/>
<path style="fill:#f49e78; stroke:none;" d="M184 356L185 357L184 356M124 357L125 358L124 357z"/>
<path style="fill:#f5cfbf; stroke:none;" d="M125 357L126 358L125 357M179 357L180 358L179 357z"/>
<path style="fill:#f49e78; stroke:none;" d="M180.667 357.333L181.333 357.667L180.667 357.333M127.667 358.333L128.333 358.667L127.667 358.333z"/>
<path style="fill:#f5cfbf; stroke:none;" d="M129 358L130 359L129 358M176 358L177 359L176 358z"/>
<path style="fill:#f49e78; stroke:none;" d="M177 358L178 359L177 358M131 359L132 360L131 359z"/>
<path style="fill:#f5cfbf; stroke:none;" d="M132.667 359.333L133.333 359.667L132.667 359.333M172 359L173 360L172 359z"/>
<path style="fill:#f49e78; stroke:none;" d="M173.667 359.333L174.333 359.667L173.667 359.333M135 360L136 361L135 360z"/>
<path style="fill:#f5cfbf; stroke:none;" d="M136 360L137 361L136 360M168 360L169 361L168 360z"/>
<path style="fill:#f49e78; stroke:none;" d="M169.667 360.333L170.333 360.667L169.667 360.333M138.667 361.333L139.333 361.667L138.667 361.333z"/>
<path style="fill:#f5cfbf; stroke:none;" d="M140 361L141 362L140 361M165 361L166 362L165 361z"/>
<path style="fill:#f49e78; stroke:none;" d="M166 361L167 362L166 361M142 362L143 363L142 362z"/>
<path style="fill:#f5cfbf; stroke:none;" d="M143 362L144 363L143 362M161 362L162 363L161 362z"/>
<path style="fill:#f49e78; stroke:none;" d="M162.667 362.333L163.333 362.667L162.667 362.333M145.667 363.333L146.333 363.667L145.667 363.333z"/>
<path style="fill:#f5cfbf; stroke:none;" d="M147 363L148 364L147 363M157.667 363.333L158.333 363.667L157.667 363.333z"/>
<path style="fill:#f49e78; stroke:none;" d="M159 363L160 364L159 363M149 364L150 365L149 364z"/>
<path style="fill:#f5cfbf; stroke:none;" d="M154 364L155 365L154 364z"/>
<path style="fill:#f49e78; stroke:none;" d="M155.667 364.333L156.333 364.667L155.667 364.333z"/>
</svg>
