<?xml version="1.0" standalone="no"?>
<!DOCTYPE svg PUBLIC "-//W3C//DTD SVG 20010904//EN"
 "http://www.w3.org/TR/2001/REC-SVG-20010904/DTD/svg10.dtd">
<svg version="1.0" xmlns="http://www.w3.org/2000/svg"
 width="200.000000pt" height="200.000000pt" viewBox="0 0 200.000000 200.000000"
 preserveAspectRatio="xMidYMid meet">

<g transform="translate(0.000000,200.000000) scale(0.100000,-0.100000)"
fill="#000000" stroke="none">
<path d="M1482 910 c45 -8 71 -30 89 -71 23 -58 -20 -136 -116 -208 -28 -21
-29 -22 -5 -15 43 11 139 74 161 105 12 17 24 51 27 75 4 41 2 47 -36 84 -38
38 -43 40 -98 39 -54 -1 -56 -2 -22 -9z"/>
<path d="M619 872 c-41 -15 -84 -33 -95 -39 -18 -13 -18 -13 -1 -27 72 -56
589 -52 765 5 58 19 29 20 -99 4 -142 -17 -465 -20 -522 -4 -54 15 -45 38 23
66 80 33 23 28 -71 -5z"/>
<path d="M695 690 c-28 -11 -48 -37 -42 -54 3 -8 30 -22 59 -32 76 -27 398
-25 507 2 l75 19 -28 19 c-27 17 -32 17 -143 0 -85 -12 -147 -15 -237 -11
-140 6 -181 18 -173 47 3 11 4 20 4 19 -1 0 -11 -4 -22 -9z"/>
<path d="M719 489 c-17 -17 -18 -23 -7 -36 39 -48 207 -79 343 -64 82 10 205
40 205 50 0 11 -86 42 -101 37 -45 -17 -189 -25 -274 -16 -105 11 -125 17
-125 36 0 20 -17 17 -41 -7z"/>
<path d="M509 375 c-56 -15 -126 -53 -133 -72 -3 -7 5 -19 17 -27 68 -45 598
-72 822 -42 211 27 336 69 343 112 3 17 2 18 -8 1 -6 -9 -24 -24 -40 -32 -74
-38 -445 -72 -675 -60 -193 9 -365 40 -365 65 0 15 37 39 85 53 61 19 21 21
-46 2z"/>
<path d="M1593 249 c-37 -24 -192 -63 -318 -81 -55 -8 -187 -13 -339 -13 -165
0 -233 -3 -200 -8 27 -5 146 -9 264 -10 222 -2 338 9 469 43 72 18 161 63 161
80 0 12 2 13 -37 -11z"/>
</g>
</svg>
