<?xml version="1.0" standalone="no"?>
<!DOCTYPE svg PUBLIC "-//W3C//DTD SVG 20010904//EN"
 "http://www.w3.org/TR/2001/REC-SVG-20010904/DTD/svg10.dtd">
<svg version="1.0" xmlns="http://www.w3.org/2000/svg"
 width="305.000000pt" height="432.000000pt" viewBox="0 0 305.000000 432.000000"
 preserveAspectRatio="xMidYMid meet">

<g transform="translate(0.000000,432.000000) scale(0.100000,-0.100000)"
fill="#000000" stroke="none">
<path d="M1240 4114 l0 -195 -37 3 c-36 3 -38 5 -41 41 l-3 37 -95 0 -94 0 0
-135 0 -135 235 0 235 0 0 290 0 290 -100 0 -100 0 0 -196z"/>
<path d="M1600 4234 l0 -75 85 -120 84 -119 -74 0 -75 0 0 -95 0 -95 230 0
230 0 0 89 0 89 -75 95 c-41 53 -75 98 -75 101 0 3 34 6 75 6 l75 0 0 100 0
100 -240 0 -240 0 0 -76z"/>
</g>
</svg>
