<?xml version="1.0" standalone="no"?>
<!DOCTYPE svg PUBLIC "-//W3C//DTD SVG 20010904//EN"
 "http://www.w3.org/TR/2001/REC-SVG-20010904/DTD/svg10.dtd">
<svg version="1.0" xmlns="http://www.w3.org/2000/svg"
 width="1042.000000pt" height="1042.000000pt" viewBox="0 0 1042.000000 1042.000000"
 preserveAspectRatio="xMidYMid meet">

<g transform="translate(0.000000,1042.000000) scale(0.100000,-0.100000)"
fill="#000000" stroke="none">
<path d="M1995 9733 c-560 -78 -1035 -422 -1274 -923 -83 -175 -129 -334 -151
-530 -8 -67 -10 -1001 -8 -3135 l4 -3040 22 -100 c49 -225 128 -413 247 -590
252 -376 612 -617 1057 -707 l113 -23 3205 0 c3035 0 3210 1 3292 18 126 25
250 63 348 104 473 201 826 609 954 1103 54 205 51 41 51 3310 l0 3045 -22
120 c-121 664 -612 1173 -1281 1327 l-97 23 -3215 1 c-1768 1 -3228 -1 -3245
-3z m2270 -2318 c651 -87 1081 -404 1243 -916 51 -160 66 -263 65 -459 -1
-431 -119 -731 -389 -991 -321 -307 -755 -432 -1446 -416 l-248 6 0 -638 c0
-482 -3 -640 -12 -649 -9 -9 -114 -12 -410 -12 -383 0 -398 1 -408 19 -12 23
-14 4019 -2 4038 6 9 111 15 387 23 209 6 425 12 480 14 217 7 622 -3 740 -19z
m3335 -961 c166 -19 248 -36 368 -75 57 -19 96 -38 102 -49 7 -12 9 -150 8
-372 l-3 -353 -30 -3 c-19 -2 -60 10 -105 31 -191 86 -424 139 -683 153 -137
7 -279 -11 -345 -45 -138 -71 -136 -235 3 -331 58 -40 310 -161 385 -185 76
-25 292 -119 370 -162 162 -89 241 -143 318 -217 110 -106 173 -201 213 -324
28 -86 32 -113 37 -243 7 -214 -27 -356 -120 -513 -55 -93 -184 -225 -284
-292 -205 -137 -451 -201 -806 -211 -346 -10 -671 38 -906 133 -135 54 -122 8
-122 441 0 337 2 373 16 373 9 0 71 -27 138 -59 274 -134 576 -199 875 -188
219 7 313 44 361 138 27 52 25 103 -5 155 -49 84 -151 142 -452 260 -693 271
-968 594 -922 1083 41 435 363 754 854 846 193 36 459 39 735 9z"/>
<path d="M3517 6673 l-27 -4 2 -652 3 -652 275 0 c300 0 349 6 537 66 158 51
308 170 367 292 46 93 60 170 60 312 0 114 -4 140 -27 212 -80 242 -282 382
-611 423 -75 9 -517 11 -579 3z"/>
</g>
</svg>
