<?xml version="1.0" standalone="yes"?>
<svg xmlns="http://www.w3.org/2000/svg" width="200" height="200">
<path style="fill:#090908; stroke:none;" d="M0 0L0 200L200 200L200 0L0 0z"/>
<path style="fill:#e0e3de; stroke:none;" d="M20 32L21.6034 44.1566L40 50.3742L80 63L80 64L45 54L45 55L60 62L60 63L55 69L65 62L56.0085 73L47 127L51 127L50 122L51 122L52 125L56 123C55.5489 129.047 49.3285 130.898 48.4915 136.174C47.7269 140.993 51.4463 144.168 53.1435 148.129C58.7909 161.308 61.989 167.815 77 169L77 168C64.9826 165.131 59.0992 159.332 58 146L59 146L69 158L67 153L77 158L80 155L79 158L83 160L89 157L85 141L75 154L76 149C79.9796 148.152 80.0802 144.428 79 141L69 142L69 141C77.6999 140.928 86.7705 140.772 85 130L90 154L102 135L101 139L109 133L115 114L108 114L109 110L101 106L100 106L97 109L97 105L108 95C102.727 88.29 98.0747 88 90 88L90 86C102.354 86 112.237 88.7875 112 103L111 103L110 98L104 97L103 100L104 101L109 101L104 105C108.892 112.423 114.094 101.574 115 97C120.727 100.264 116.195 114.83 117 121L119 118L120 118L113 131L114 127L113 127L111 131L125 131C128.248 145.384 119.681 152.085 112 163C120.245 157.192 125.828 149.514 129 140L130 140C129.593 149.482 126.958 156.378 119 162L119 163L127 162L134 136C137.594 139.537 136.386 142.548 135 147C144.968 151.271 140.947 160.252 142.144 169C143.056 175.672 145 180.999 145 188L148 188L148 146C140.212 144.877 139.662 139.547 144.305 134C149.766 127.475 159.709 115.371 168 113C168.059 109.739 168.87 108.854 172 108L178 83L179 83L179 87L180 87L180 64L180 63L177 64L176 59L180 59L180 58L174 59L173 55L180 54L180 32L168 32L168 51L167 51L167 32L164 32L162 48L163 32L161 32L159 47L160 32L156 32L156 46L155 46L155 32L145 32L145 46L143 46L143 32L126 32L127 44L125 32L122 32L122 40L121 40L120 32L119 32L120 38L118 32L106 34L89 32.0046L36 32L36 35L35 32L26 32L26 37L25 37L24 32L23 32L23 38L21 38L20 32z"/>
<path style="fill:#a1a49b; stroke:none;" d="M21 32L21 38L23 38L23 32L21 32M24 32L25 37L26 37L24 32z"/>
<path style="fill:#9a926c; stroke:none;" d="M25 32L25 36L26 36L25 32z"/>
<path style="fill:#a1a49b; stroke:none;" d="M35 32L35 35L36 35L35 32M82 32L83 33L82 32z"/>
<path style="fill:#9a926c; stroke:none;" d="M83 32L84 33L83 32z"/>
<path style="fill:#a1a49b; stroke:none;" d="M99.6667 32.3333L100.333 32.6667L99.6667 32.3333M107 32L106 34L108 34L107 32z"/>
<path style="fill:#9a926c; stroke:none;" d="M118 32L118 37L119 37L118 32z"/>
<path style="fill:#a1a49b; stroke:none;" d="M120 32L120 37L121 37L120 32z"/>
<path style="fill:#9a926c; stroke:none;" d="M121 32L121 39L122 39L121 32z"/>
<path style="fill:#a1a49b; stroke:none;" d="M125 32L127 44L125 32M143 32L143 46L145 32L143 32M155 32L155 46L156 46L155 32M160 32L159 47C162.355 44.0687 161.628 35.8801 160 32M163 32L162 48C165.444 44.9904 164.674 35.9895 163 32M167 32L167 51L168 51L167 32z"/>
<path style="fill:#9a926c; stroke:none;" d="M35 33L36 34L35 33z"/>
<path style="fill:#a1a49b; stroke:none;" d="M30.3333 34.6667L30.6667 35.3333L30.3333 34.6667M111.667 34.3333L112.333 34.6667L111.667 34.3333z"/>
<path style="fill:#807060; stroke:none;" d="M118 37L119 38L118 37z"/>
<path style="fill:#a1a49b; stroke:none;" d="M119 37L120 38L119 37M120 38L121 39L120 38M121 39L122 40L121 39z"/>
<path style="fill:#9a926c; stroke:none;" d="M126 42L127 43L126 42z"/>
<path style="fill:#a1a49b; stroke:none;" d="M20 44L20 47L21 47L30 48L30 47L20 44M133 44L128 55L134 51L133 44z"/>
<path style="fill:#9a926c; stroke:none;" d="M143 44L144 45L143 44z"/>
<path style="fill:#807060; stroke:none;" d="M21 46L22 47L21 46z"/>
<path style="fill:#9a926c; stroke:none;" d="M22 46L20 65C26.1088 61.7973 23.5971 52.8925 25 47L22 46z"/>
<path style="fill:#a1a49b; stroke:none;" d="M122 46L116 48L116 53L108 56L108 57C113.386 56.7236 125.956 53.5269 122 46M138.667 46.3333L139.333 46.6667L138.667 46.3333z"/>
<path style="fill:#807060; stroke:none;" d="M23 47L24 48L23 47M25 47L26 48L25 47z"/>
<path style="fill:#9a926c; stroke:none;" d="M26 47L35 50L35 49L26 47z"/>
<path style="fill:#a1a49b; stroke:none;" d="M24 48L20 76L44 76L44 77L20 77L20 83L50 83C41.8725 87.3374 29.08 85 20 85L20 101L47 101L47 103L20 103L20 106C29.7115 106 45.8445 101.841 46 115L20 115L20 123C25.3956 123 35.0502 121.141 39.7716 124.028C44.9384 127.187 46.3546 143.202 48 149L50 149L51 146L52 146L53 152L54 152C53.2113 143.392 43.8795 137.561 54 131L52 130L52 129C55.5214 127.925 56.3203 126.661 56 123L52 125L51 122L50 122L51 127L47 127L55.6489 75L65 62L55 69L60 63L60 62L45 55L45 54L80 64L80 63C65.4101 61.7182 50.9844 48.0858 36 51L37 49L24 48M31.6667 48.3333L32.3333 48.6667L31.6667 48.3333M165 48L166 49L165 48z"/>
<path style="fill:#9a926c; stroke:none;" d="M36.6667 50.3333L37.3333 50.6667L36.6667 50.3333z"/>
<path style="fill:#e0e3de; stroke:none;" d="M118 50L119 51L118 50z"/>
<path style="fill:#9a926c; stroke:none;" d="M121 50L120 52L121 50M30 51L44 70L45 70C42.3045 62.8782 36.9033 54.5556 30 51z"/>
<path style="fill:#e0e3de; stroke:none;" d="M28 52L27 54L29 54L28 52z"/>
<path style="fill:#a1a49b; stroke:none;" d="M170 52L173 55L170 52M173 55L174 59L176 57L180 58L180 54L173 55M144 56L145 69L144 69L143 58L142 58L142 68L141 68L141 57L140 57C140 61.1162 134.226 72.3711 133 64L129 72L130 72L131 69L147 72L144 56z"/>
<path style="fill:#807060; stroke:none;" d="M146 56L147 57L146 56M149 56L149 74L150 74L151 56L149 56z"/>
<path style="fill:#a1a49b; stroke:none;" d="M151 56L151 74C145.909 74 135.514 71.9784 132 76C138.415 74.8091 146.913 73.1972 152 78L134 79L136 83C145.172 79.1135 160.422 81.7198 170 84L171 78L172 78L173 87L174 87C174 74.6841 171.489 62.0066 158 58L158 70L157 70L157 57L156 57L154 74L153 74L153 56L151 56z"/>
<path style="fill:#9a926c; stroke:none;" d="M32 57L33 58L32 57z"/>
<path style="fill:#a1a49b; stroke:none;" d="M104 57L104 58L107 58L104 57z"/>
<path style="fill:#807060; stroke:none;" d="M141 57L142 58L141 57z"/>
<path style="fill:#9a926c; stroke:none;" d="M146 57L146 71L147 71L146 57M150 57L150 74L151 74L150 57z"/>
<path style="fill:#807060; stroke:none;" d="M153 57L153 74L154 74C155.31 69.5681 156.773 60.2974 153 57z"/>
<path style="fill:#9a926c; stroke:none;" d="M155 57L156 58L155 57z"/>
<path style="fill:#a1a49b; stroke:none;" d="M138 58L139 59L138 58z"/>
<path style="fill:#090908; stroke:none;" d="M141 58L141 67L142 67L141 58z"/>
<path style="fill:#e0e3de; stroke:none;" d="M152 58L152 73L153 73L152 58z"/>
<path style="fill:#090908; stroke:none;" d="M153 58L153 73L154 73L153 58z"/>
<path style="fill:#9a926c; stroke:none;" d="M157 58L159 60L157 58z"/>
<path style="fill:#a1a49b; stroke:none;" d="M118 59L113 61L113 62L119 60L118 59z"/>
<path style="fill:#090908; stroke:none;" d="M138 59L138 63L139 63L138 59z"/>
<path style="fill:#807060; stroke:none;" d="M157 59L157 70L158 70L157 59M176 59L177 60L176 59z"/>
<path style="fill:#a1a49b; stroke:none;" d="M177 59L177 64L180 59L177 59z"/>
<path style="fill:#807060; stroke:none;" d="M159.667 60.3333L160.333 60.6667L159.667 60.3333z"/>
<path style="fill:#9a926c; stroke:none;" d="M176 60L177 61L176 60z"/>
<path style="fill:#a1a49b; stroke:none;" d="M135 61L136 62L135 61z"/>
<path style="fill:#9a926c; stroke:none;" d="M159 61L159 66L160 66L159 61M162 61L162 66L163 66L164 66L162 61z"/>
<path style="fill:#807060; stroke:none;" d="M163 62L167 65L167 64L163 62z"/>
<path style="fill:#9a926c; stroke:none;" d="M164 62L165 63L164 62M177 62L178 63L177 62M133 63L133 64L133 65L139 65L139 64L133 63z"/>
<path style="fill:#a1a49b; stroke:none;" d="M135 63L135 64L138 64L135 63z"/>
<path style="fill:#807060; stroke:none;" d="M138 63L139 64L138 63z"/>
<path style="fill:#a1a49b; stroke:none;" d="M83 64L83 65L89 65L83 64z"/>
<path style="fill:#807060; stroke:none;" d="M132 65L132 66L139 66L132 65M162 64L163 65L162 64z"/>
<path style="fill:#9a926c; stroke:none;" d="M165 64L166 65L165 64z"/>
<path style="fill:#a1a49b; stroke:none;" d="M178 64L180 67L180 64L178 64z"/>
<path style="fill:#9a926c; stroke:none;" d="M166 65L170 69L166 65M133 66L133 67L139 67L133 66z"/>
<path style="fill:#807060; stroke:none;" d="M141 67L142 68L141 67z"/>
<path style="fill:#a1a49b; stroke:none;" d="M87 68L86 70L86 71L89 71L89 72L87 72L87 73L91 72L87 68z"/>
<path style="fill:#9a926c; stroke:none;" d="M166 68L167 69L166 68M85 69L83 72L85 69z"/>
<path style="fill:#807060; stroke:none;" d="M86.6667 69.3333L87.3333 69.6667L86.6667 69.3333z"/>
<path style="fill:#a1a49b; stroke:none;" d="M90 69L91 70L90 69z"/>
<path style="fill:#9a926c; stroke:none;" d="M89 70L89 71L95 72L94 69L89 70z"/>
<path style="fill:#807060; stroke:none;" d="M92 69L93 70L92 69z"/>
<path style="fill:#a1a49b; stroke:none;" d="M94 69L95 70L94 69M83 70L84 71L83 70M95 70L96 71L95 70z"/>
<path style="fill:#807060; stroke:none;" d="M96 70L94 73L96 70z"/>
<path style="fill:#9a926c; stroke:none;" d="M97 70L98 71L97 70M45.3333 71.6667L45.6667 72.3333L45.3333 71.6667z"/>
<path style="fill:#a1a49b; stroke:none;" d="M82 71L81 74L78 72L77 76L80 79L73 79L75 87L82 80L80 81L81 78L83 80L84 80L87 76L84 78L85 75L85 71L82 71z"/>
<path style="fill:#e0e3de; stroke:none;" d="M83 75L89 72C85.8631 70.9987 84.5132 72.2439 83 75M90 72L93 74L92 71L90 72z"/>
<path style="fill:#a1a49b; stroke:none;" d="M93 71L96 74L96 73L93 71M97 71L98 72L97 71M96 72L97 73L96 72M85 73L86 74L85 73z"/>
<path style="fill:#9a926c; stroke:none;" d="M85 74L89 73L85 74z"/>
<path style="fill:#807060; stroke:none;" d="M89 73L89 75L91 75L89 73z"/>
<path style="fill:#9a926c; stroke:none;" d="M90 73L92 75L90 73z"/>
<path style="fill:#a1a49b; stroke:none;" d="M91 73L92 74L91 73M87 74L88 75L87 74M92 74L93 75L92 74z"/>
<path style="fill:#9a926c; stroke:none;" d="M46 75L47 76L46 75M76 75L78 77L76 75z"/>
<path style="fill:#807060; stroke:none;" d="M85.6667 75.3333L86.3333 75.6667L85.6667 75.3333z"/>
<path style="fill:#a1a49b; stroke:none;" d="M88.6667 75.3333L89.3333 75.6667L88.6667 75.3333M110 75L109 77L111 77L110 75z"/>
<path style="fill:#9a926c; stroke:none;" d="M20 76L20 77L44 77L20 76z"/>
<path style="fill:#a1a49b; stroke:none;" d="M75 76L77 78L75 76z"/>
<path style="fill:#807060; stroke:none;" d="M76 76L77 77L76 76z"/>
<path style="fill:#9a926c; stroke:none;" d="M84 76L84 78L86 76L84 76M75 77L74 80L75 77z"/>
<path style="fill:#e0e3de; stroke:none;" d="M76 80L80 77L76 80z"/>
<path style="fill:#9a926c; stroke:none;" d="M47 78L48 79L47 78M80 81L81 81L83 80C81.1883 78.4993 80.9776 78.8421 80 81z"/>
<path style="fill:#807060; stroke:none;" d="M81 79L82 80L81 79z"/>
<path style="fill:#9a926c; stroke:none;" d="M77 80L76 85L77 85L80 82L77 80z"/>
<path style="fill:#807060; stroke:none;" d="M136 81L137 82L136 81z"/>
<path style="fill:#9a926c; stroke:none;" d="M138 81L138 82L152 82L138 81M20 83L20 85C28.0429 85 43.4786 87.9406 50 83L20 83z"/>
<path style="fill:#e0e3de; stroke:none;" d="M75 82L75 85L76 85L75 82z"/>
<path style="fill:#a1a49b; stroke:none;" d="M111 82L112 83L111 82z"/>
<path style="fill:#9a926c; stroke:none;" d="M72 83L73 84L72 83z"/>
<path style="fill:#807060; stroke:none;" d="M73 83L72 85L74 85L73 83M77 83L78 84L77 83z"/>
<path style="fill:#a1a49b; stroke:none;" d="M106 83L110 86L110 85L106 83M178 83L173 100L180 101L178 91L178 83M136 85L135 89L130 85C131.425 91.5308 137.536 89.9129 142.999 90.0046C150.834 90.1362 160.215 91.5547 168 93C172.904 77.0875 145.298 87.2137 136 85z"/>
<path style="fill:#9a926c; stroke:none;" d="M72 85L72 86L74 88L72 87L72 88L72 89L75 88L75 86L72 85z"/>
<path style="fill:#a1a49b; stroke:none;" d="M72 86L73 87L72 86z"/>
<path style="fill:#807060; stroke:none;" d="M73.3333 86.6667L73.6667 87.3333L73.3333 86.6667z"/>
<path style="fill:#a1a49b; stroke:none;" d="M90 86L90 88L100 88L90 86z"/>
<path style="fill:#9a926c; stroke:none;" d="M95.6667 86.3333L96.3333 86.6667L95.6667 86.3333M99 86L99 87L102 87L102 86L99 86z"/>
<path style="fill:#807060; stroke:none;" d="M100 86L101 87L100 86z"/>
<path style="fill:#9a926c; stroke:none;" d="M136 86L137 87L136 86z"/>
<path style="fill:#807060; stroke:none;" d="M101 87L102 88L101 87z"/>
<path style="fill:#a1a49b; stroke:none;" d="M102 87L108 95L105 94L105 95L105 97L105 98L109 98C108.585 94.0276 107.69 91.8264 104 90L104 89L107 89L107 88L102 87M71 88L71 90L73 90L71 88M74 88L75 89L74 88z"/>
<path style="fill:#9a926c; stroke:none;" d="M104 89L104 90L106 92L107 92L104 89z"/>
<path style="fill:#807060; stroke:none;" d="M107 89L111 94L107 89z"/>
<path style="fill:#a1a49b; stroke:none;" d="M108 89L109 90L108 89z"/>
<path style="fill:#9a926c; stroke:none;" d="M150 89L150 90L167 91L150 89z"/>
<path style="fill:#807060; stroke:none;" d="M166 89L168 91L168 89L166 89z"/>
<path style="fill:#a1a49b; stroke:none;" d="M109 90L110 91L109 90z"/>
<path style="fill:#e0e3de; stroke:none;" d="M179 90L178 92L180 92L179 90z"/>
<path style="fill:#a1a49b; stroke:none;" d="M99 91L102 93L99 91z"/>
<path style="fill:#9a926c; stroke:none;" d="M110 92L111 93L110 92M150 92L151 93L150 92z"/>
<path style="fill:#807060; stroke:none;" d="M150 93L150 94L167 94L150 93z"/>
<path style="fill:#9a926c; stroke:none;" d="M152 92L152 93L165 93L152 92z"/>
<path style="fill:#a1a49b; stroke:none;" d="M133.667 93.3333L134.333 93.6667L133.667 93.3333M75 100L80 98L75 103L75 104L78 104L78 105L75 105L75 106C80.4762 105.388 88.2824 98.8477 82 94L78 96L78 95L80 95C76.7603 94.9239 75.8387 97.081 75 100z"/>
<path style="fill:#9a926c; stroke:none;" d="M80 94L80 95L83 96L80 94M109 94L108 97L111 100L112 100L109 94z"/>
<path style="fill:#a1a49b; stroke:none;" d="M110.333 94.6667L110.667 95.3333L110.333 94.6667M150 94L150 95L167 95L150 94z"/>
<path style="fill:#9a926c; stroke:none;" d="M78 95L79 96L78 95z"/>
<path style="fill:#807060; stroke:none;" d="M79 95L79 96L82 96L79 95z"/>
<path style="fill:#9a926c; stroke:none;" d="M85 95L86 96L85 95M104 97L107 95L104 97M176 95L177 96L176 95z"/>
<path style="fill:#807060; stroke:none;" d="M84 96L85 98L86 98L87 96L84 96z"/>
<path style="fill:#a1a49b; stroke:none;" d="M103 96L100 105L100 106L105 110L107 100L104 101L103 100L103 96M134 101L163 102L163 101L149 100C153.392 95.854 159.437 96.6756 165 98C160.925 93.3364 135.92 95.2147 134 101M71 97L71 99L74 99L74 97L71 97z"/>
<path style="fill:#9a926c; stroke:none;" d="M84 97L85 98L84 97M86 97L89 99L86 97z"/>
<path style="fill:#a1a49b; stroke:none;" d="M88 97L89 98L88 97M115 97L116 103C118.751 100.347 118.82 98.2463 115 97M110 98L111 103L112 103L110 98M112 98L113 99L112 98z"/>
<path style="fill:#9a926c; stroke:none;" d="M117 98L118 99L117 98M175.333 98.6667L175.667 99.3333L175.333 98.6667z"/>
<path style="fill:#a1a49b; stroke:none;" d="M88 99L88 106L89 106L88 99z"/>
<path style="fill:#9a926c; stroke:none;" d="M114 100C113.109 105.649 109.455 107.634 104 108L104 109L110 109C109.66 119.347 116.628 108.288 117 103L116 103L116 105L115 105L114 100M173 100L174 101L173 100M20 101L20 103L47 103C40.4797 98.5455 27.708 101 20 101z"/>
<path style="fill:#807060; stroke:none;" d="M45.6667 101.333L46.3333 101.667L45.6667 101.333z"/>
<path style="fill:#9a926c; stroke:none;" d="M106 101L106 102L106 103L109 103L109 102L106 101z"/>
<path style="fill:#a1a49b; stroke:none;" d="M108 101L109 102L108 101z"/>
<path style="fill:#9a926c; stroke:none;" d="M149 101L149 102L161 102L149 101z"/>
<path style="fill:#807060; stroke:none;" d="M173 101L173 102L180 103L180 101L173 101z"/>
<path style="fill:#090908; stroke:none;" d="M174 101L175 102L174 101z"/>
<path style="fill:#807060; stroke:none;" d="M107 102L106 104L108 104L107 102M115 102L115 105L116 105L115 102M136 102L136 105C140.408 105 156.187 109.622 158.824 105.455C160.367 103.017 156.514 102.198 154.981 102.059C148.75 101.493 142.258 102 136 102z"/>
<path style="fill:#a1a49b; stroke:none;" d="M159 102L160 103L159 102M173 102L174 103L173 102M108 103L109 104L108 103z"/>
<path style="fill:#9a926c; stroke:none;" d="M135 103L148 107L135 103z"/>
<path style="fill:#090908; stroke:none;" d="M136 103L137 104L136 103z"/>
<path style="fill:#807060; stroke:none;" d="M172.333 103.667L172.667 104.333L172.333 103.667z"/>
<path style="fill:#9a926c; stroke:none;" d="M105.667 104.333L106.333 104.667L105.667 104.333z"/>
<path style="fill:#a1a49b; stroke:none;" d="M107 104L108 105L107 104M113 104L114 105L113 104z"/>
<path style="fill:#9a926c; stroke:none;" d="M160 104L161 105L160 104z"/>
<path style="fill:#a1a49b; stroke:none;" d="M171 104L172 108L167 110C169.987 114.141 175.319 113 180 113L180 105L171 104M97 105L98 106L97 105z"/>
<path style="fill:#9a926c; stroke:none;" d="M98 105L100 107L100 105L98 105M101 105L104 108L101 105z"/>
<path style="fill:#a1a49b; stroke:none;" d="M111.667 105.333L112.333 105.667L111.667 105.333z"/>
<path style="fill:#807060; stroke:none;" d="M116.333 105.667L116.667 106.333L116.333 105.667z"/>
<path style="fill:#a1a49b; stroke:none;" d="M117 105L117 110L118 110L117 105M135 105L136 106L135 105M160 105L161 106L160 105z"/>
<path style="fill:#807060; stroke:none;" d="M20 106L20 108L45 109C43.7822 103.317 25.245 106 20 106M97 106L99 108L99 106L97 106z"/>
<path style="fill:#a1a49b; stroke:none;" d="M110 106L111 107L110 106M136 106L136 107L147 108L146 112L138 109L137 109L137 113L145 112L146 113L138 116L138 119L142 121L149 119L146 112L154 110L154 113C161.436 105.25 140.384 106 136 106z"/>
<path style="fill:#e0e3de; stroke:none;" d="M146 106L147 107L146 106z"/>
<path style="fill:#a1a49b; stroke:none;" d="M159 106L160 107L159 106z"/>
<path style="fill:#9a926c; stroke:none;" d="M45 107L20 108L20 115L46 115L45 107M97 107L98 108L97 107z"/>
<path style="fill:#a1a49b; stroke:none;" d="M109 107L110 108L109 107M115 107L110 108L110 109C112.185 109.47 116.145 110.078 115 107M97 108L98 109L97 108z"/>
<path style="fill:#9a926c; stroke:none;" d="M137 108L137 109L147 110L147 109L137 108z"/>
<path style="fill:#807060; stroke:none;" d="M138 108L138 109L147 109L138 108z"/>
<path style="fill:#9a926c; stroke:none;" d="M168 108L168 110L170 110L168 108z"/>
<path style="fill:#a1a49b; stroke:none;" d="M61 109L63 118L66 117L64 120L69 121L61 109M87 109L85 113L86 113L87 109M106 109L106 110L109 110L110 114L110 109L106 109M73 110L73 111L76 111L73 110M116 110L117 111L116 110z"/>
<path style="fill:#e0e3de; stroke:none;" d="M138 110L138 111L146 112L138 110z"/>
<path style="fill:#807060; stroke:none;" d="M153 110L153 113L154 113L153 110M115 111L115 114L116 114L115 111z"/>
<path style="fill:#9a926c; stroke:none;" d="M146 112L146 113L153 113L146 112z"/>
<path style="fill:#090908; stroke:none;" d="M153 111L154 112L153 111z"/>
<path style="fill:#a1a49b; stroke:none;" d="M94 112L95 113L94 112M110.667 112.333L111.333 112.667L110.667 112.333M114 113L115 114L114 113M126 113C124.911 117.762 122.365 122.733 128 125L129 121L126 123L129 119L126 113z"/>
<path style="fill:#9a926c; stroke:none;" d="M164 113L165 114L164 113z"/>
<path style="fill:#807060; stroke:none;" d="M162 117L180 117L180 113C173.51 113 166.516 111.578 162 117z"/>
<path style="fill:#a1a49b; stroke:none;" d="M68 114L69 115L68 114M110 114L111 115L110 114z"/>
<path style="fill:#807060; stroke:none;" d="M112 114L113 115L112 114z"/>
<path style="fill:#a1a49b; stroke:none;" d="M113 114L114 115L113 114z"/>
<path style="fill:#9a926c; stroke:none;" d="M115 114L116 115L115 114z"/>
<path style="fill:#a1a49b; stroke:none;" d="M116 114L116 119L117 119L116 114M138 114L139 115L138 114z"/>
<path style="fill:#807060; stroke:none;" d="M138 115L138 116L145 116L138 115z"/>
<path style="fill:#a1a49b; stroke:none;" d="M163 114L164 115L163 114M112 115L113 116L112 115z"/>
<path style="fill:#807060; stroke:none;" d="M115 115L115 118L116 118L115 115z"/>
<path style="fill:#090908; stroke:none;" d="M139 115L139 116L144 116L139 115z"/>
<path style="fill:#a1a49b; stroke:none;" d="M162 115L163 116L162 115M96 116L98 119L96 116z"/>
<path style="fill:#807060; stroke:none;" d="M97 116L99 122L100 122L97 116z"/>
<path style="fill:#a1a49b; stroke:none;" d="M98 116L99 117L98 116z"/>
<path style="fill:#9a926c; stroke:none;" d="M163 116L163 137L154 137L154 126L153 126L153 137L148 137L146 133L147 137L140 141L141 141C148.858 135.047 170.205 139 180 139L180 137L164 137L163 116z"/>
<path style="fill:#a1a49b; stroke:none;" d="M99 117L100 118L99 117M120 117L121 118L120 117M150 128L154 126L154 137L163 137L163 117L150 128M164 117L164 137L180 137L180 117L164 117z"/>
<path style="fill:#9a926c; stroke:none;" d="M42.3333 118.667L42.6667 119.333L42.3333 118.667z"/>
<path style="fill:#a1a49b; stroke:none;" d="M100.333 118.667L100.667 119.333L100.333 118.667z"/>
<path style="fill:#9a926c; stroke:none;" d="M115 118L115 123L116 123L115 118z"/>
<path style="fill:#a1a49b; stroke:none;" d="M119 118L116 120L109 133L101 139L102 135L91 153L92 155L92 156L89 155L87 145L86 145L88 151L86 157L86 158L95 159L95 158C93.4435 155.364 94.5191 154.539 97 153L95 156L98 157L91 172L92 172L93 169L99 172L98 169L101 170L100 174L101 174L102 172L106 175L105 171L102 172L100 167L98 167L96 170C96.3149 165.937 96.7236 162.15 101 161L98 165L105 161L105 160L100 159L110 152L110 151L108 149L107 149L107 152L100 150L99 150L101 156L97 154L100 155L100 154L97 153L99 145L100 145L101 149L102 149C100.499 141.348 105.092 136.735 113 136C113.601 131.404 119.661 133.102 123 134L111 131L113 127L114 127L113 131C117.157 128.737 120.378 122.72 119 118M79 119L75 128L76 128L75 125L77 122L78 127C87.1563 128.588 85.6393 123.203 79 119z"/>
<path style="fill:#9a926c; stroke:none;" d="M98 119L99 120L98 119M79 120L80 121L79 120z"/>
<path style="fill:#a1a49b; stroke:none;" d="M98.3333 120.667L98.6667 121.333L98.3333 120.667z"/>
<path style="fill:#9a926c; stroke:none;" d="M100 120L99 123L100 120z"/>
<path style="fill:#090908; stroke:none;" d="M143 120L142 125L143 125L143 120z"/>
<path style="fill:#807060; stroke:none;" d="M144 123L147 120L144 123z"/>
<path style="fill:#9a926c; stroke:none;" d="M159 120L160 121L159 120z"/>
<path style="fill:#e0e3de; stroke:none;" d="M80 121L82 124L80 121z"/>
<path style="fill:#a1a49b; stroke:none;" d="M111.333 121.667L111.667 122.333L111.333 121.667z"/>
<path style="fill:#807060; stroke:none;" d="M142 121L143 122L142 121z"/>
<path style="fill:#9a926c; stroke:none;" d="M146 121L147 122L146 121M77 122L76 124L78 124L77 122z"/>
<path style="fill:#a1a49b; stroke:none;" d="M100 122L100 130L101 130L100 122z"/>
<path style="fill:#9a926c; stroke:none;" d="M139 122L139 123L139 124L142 123L142 122L139 122z"/>
<path style="fill:#807060; stroke:none;" d="M140 122L141 123L140 122z"/>
<path style="fill:#9a926c; stroke:none;" d="M145 122L146 123L145 122M20 123L20 124L41 124L20 123M79 123L79 125L81 125L79 123z"/>
<path style="fill:#a1a49b; stroke:none;" d="M80 123L81 124L80 123M95.3333 123.667L95.6667 124.333L95.3333 123.667z"/>
<path style="fill:#807060; stroke:none;" d="M141 123L141 127L142 127L141 123z"/>
<path style="fill:#a1a49b; stroke:none;" d="M144 123L145 124L144 123z"/>
<path style="fill:#807060; stroke:none;" d="M20 124L20 145L43 144L46 158L50 166L59 170L59 172C47.253 176.281 32.3921 174 20 174L20 176L60 175L60 178L63 188L64 188L64 182L65 182L65 188L66 188C65.9271 181.519 63.4334 176.682 58 173L90 180L90 179L88 178L92 177C92.7537 182.207 105.371 176.798 109 176L109 175L103 173L104 176C100.216 174.075 95.1691 168.304 92 173L85 169L73 169L73 170L78 170L78 171C74.8099 171.011 70.508 170.326 70 174C49.552 170.31 42.002 141.826 42 124L20 124z"/>
<path style="fill:#e0e3de; stroke:none;" d="M77 124L77 126L79 126L77 124M82 124L83 125L82 124z"/>
<path style="fill:#9a926c; stroke:none;" d="M84.3333 124.667L84.6667 125.333L84.3333 124.667z"/>
<path style="fill:#a1a49b; stroke:none;" d="M139 124L141 126L141 124L139 124z"/>
<path style="fill:#9a926c; stroke:none;" d="M143 124L144 125L143 124M75 125L75 126L75 127L82 130L75 125z"/>
<path style="fill:#a1a49b; stroke:none;" d="M91.6667 125.333L92.3333 125.667L91.6667 125.333z"/>
<path style="fill:#9a926c; stroke:none;" d="M42 126L45 143L46 143L42 126M52 126L53 127L52 126z"/>
<path style="fill:#807060; stroke:none;" d="M76 126L78 129L76 126z"/>
<path style="fill:#e0e3de; stroke:none;" d="M79 126L79 128L81 128L79 126z"/>
<path style="fill:#9a926c; stroke:none;" d="M140 126L141 127L140 126z"/>
<path style="fill:#807060; stroke:none;" d="M152 126L146 132L146 133L148 137L153 137L152 126z"/>
<path style="fill:#9a926c; stroke:none;" d="M82.6667 127.333L83.3333 127.667L82.6667 127.333M49 128L49 133L50 133L49 128z"/>
<path style="fill:#a1a49b; stroke:none;" d="M62 128L60 132L61 132L62 128M96 128L94 136L98 128L96 128z"/>
<path style="fill:#9a926c; stroke:none;" d="M115 128L116 129L115 128M149 128L150 129L149 128z"/>
<path style="fill:#807060; stroke:none;" d="M52 129L53 130L52 129z"/>
<path style="fill:#9a926c; stroke:none;" d="M53 129L54 130L53 129z"/>
<path style="fill:#a1a49b; stroke:none;" d="M75 129L75 130L79 130L75 129z"/>
<path style="fill:#807060; stroke:none;" d="M79 129L81 131L81 129L79 129z"/>
<path style="fill:#9a926c; stroke:none;" d="M148 129L149 130L148 129z"/>
<path style="fill:#090908; stroke:none;" d="M150 129L149 132L150 129z"/>
<path style="fill:#9a926c; stroke:none;" d="M79 130L80 131L79 130z"/>
<path style="fill:#a1a49b; stroke:none;" d="M81 130L82 131L81 130M85 130L85 133L88 133L86 140L87 140C87.6885 135.629 88.5429 133.141 85 130M91 130L92 131L91 130M101 130L100 134L101 134L101 130z"/>
<path style="fill:#9a926c; stroke:none;" d="M147 130L148 131L147 130z"/>
<path style="fill:#e0e3de; stroke:none;" d="M47 131L48 132L47 131z"/>
<path style="fill:#9a926c; stroke:none;" d="M85 131L86 132L85 131z"/>
<path style="fill:#a1a49b; stroke:none;" d="M103 135L108 131L103 135M124 131L125 132L124 131M146 131L147 132L146 131z"/>
<path style="fill:#090908; stroke:none;" d="M147 131L148 132L147 131z"/>
<path style="fill:#a1a49b; stroke:none;" d="M62 133L64 136L70 137C68.0596 133.593 65.8715 132.554 62 133z"/>
<path style="fill:#9a926c; stroke:none;" d="M86.3333 132.667L86.6667 133.333L86.3333 132.667z"/>
<path style="fill:#807060; stroke:none;" d="M123 132L116 154L116 147L115 147L113 160C123.827 154.202 124.104 142.701 125 132L123 132z"/>
<path style="fill:#a1a49b; stroke:none;" d="M145 132L141 138L147 137L145 132z"/>
<path style="fill:#807060; stroke:none;" d="M87 133L88 134L87 133z"/>
<path style="fill:#e0e3de; stroke:none;" d="M113 136C104.907 135.217 100.011 141.618 102 149L101 149L100 145L99 145L97 153L99 156L99 150L107 152L111 137L112 137L109 151L112 151L111 155L116 141L118 144L123 134C119.63 132.902 113.563 131.521 113 136z"/>
<path style="fill:#a1a49b; stroke:none;" d="M125 133L126 134L125 133z"/>
<path style="fill:#9a926c; stroke:none;" d="M125 134L124 137L125 134M122 135L123 136L122 135z"/>
<path style="fill:#a1a49b; stroke:none;" d="M121.333 136.667L121.667 137.333L121.333 136.667M126 136L125 143L126 143L126 136M134 136L126 163C131.653 159.97 133.964 154.093 135 148L139 149L139 148L135 147C136.721 142.937 138.222 138.738 134 136z"/>
<path style="fill:#9a926c; stroke:none;" d="M85 137L86 138L85 137z"/>
<path style="fill:#a1a49b; stroke:none;" d="M111 137L110 141L111 141L111 137z"/>
<path style="fill:#807060; stroke:none;" d="M142 137L143 138L142 137z"/>
<path style="fill:#a1a49b; stroke:none;" d="M75 138L76 139L75 138z"/>
<path style="fill:#807060; stroke:none;" d="M85 138L86 139L85 138z"/>
<path style="fill:#a1a49b; stroke:none;" d="M140 138L141 139L140 138M82 139L81 143L85 139L82 139z"/>
<path style="fill:#9a926c; stroke:none;" d="M85 139L85 143L86 143L85 139z"/>
<path style="fill:#a1a49b; stroke:none;" d="M120 139L121 140L120 139z"/>
<path style="fill:#9a926c; stroke:none;" d="M123.333 139.667L123.667 140.333L123.333 139.667z"/>
<path style="fill:#807060; stroke:none;" d="M141 142L146 146L149 140L148 148L150 140L180 141L180 139L151 139C147.23 139 141.946 137.584 141 142z"/>
<path style="fill:#a1a49b; stroke:none;" d="M69 141L69 142L81 141L69 141z"/>
<path style="fill:#807060; stroke:none;" d="M81 140L82 141L81 140z"/>
<path style="fill:#9a926c; stroke:none;" d="M82 140L83 141L82 140M120 140L121 141L120 140z"/>
<path style="fill:#a1a49b; stroke:none;" d="M129.333 140.667L129.667 141.333L129.333 140.667z"/>
<path style="fill:#9a926c; stroke:none;" d="M147 140L146 144L147 144L147 140z"/>
<path style="fill:#090908; stroke:none;" d="M148 140L148 147L149 147L148 140z"/>
<path style="fill:#9a926c; stroke:none;" d="M150 140L150 148L180 148L180 141L150 140M80 141L79 148L80 148L82 141L80 141z"/>
<path style="fill:#a1a49b; stroke:none;" d="M86.3333 141.667L86.6667 142.333L86.3333 141.667M97 141L93 144L97 141z"/>
<path style="fill:#9a926c; stroke:none;" d="M110.333 141.667L110.667 142.333L110.333 141.667z"/>
<path style="fill:#a1a49b; stroke:none;" d="M115 141L117 143L117 141L115 141M119.333 141.667L119.667 142.333L119.333 141.667z"/>
<path style="fill:#9a926c; stroke:none;" d="M121 141L123 143L123 141L121 141M124 141L125 142L124 141z"/>
<path style="fill:#a1a49b; stroke:none;" d="M140 141L144 145L140 141z"/>
<path style="fill:#9a926c; stroke:none;" d="M142 141L143 142L142 141z"/>
<path style="fill:#a1a49b; stroke:none;" d="M147 141L147 146L148 146L147 141M109 142L108 147L109 147L109 142z"/>
<path style="fill:#9a926c; stroke:none;" d="M115 142L117 144L115 142M128.667 142.333L129.333 142.667L128.667 142.333M46 143L46 147L47 147L46 143z"/>
<path style="fill:#a1a49b; stroke:none;" d="M85 143L86 144L85 143z"/>
<path style="fill:#807060; stroke:none;" d="M115 143L117 146L115 143z"/>
<path style="fill:#9a926c; stroke:none;" d="M119 143L120 144L119 143M124 143L125 144L124 143z"/>
<path style="fill:#a1a49b; stroke:none;" d="M127 143L128 144L127 143z"/>
<path style="fill:#807060; stroke:none;" d="M128 143L128 149C122.921 150.002 116.844 158.037 116 163L111 164L111 165C114.32 164.259 118.518 163.645 119 160C123.133 159.829 124.344 157.945 125 154L127 155L130 143L128 143z"/>
<path style="fill:#9a926c; stroke:none;" d="M85.3333 144.667L85.6667 145.333L85.3333 144.667M93.3333 144.667L93.6667 145.333L93.3333 144.667z"/>
<path style="fill:#a1a49b; stroke:none;" d="M114 144L114 148L115 148L114 144M117.667 144.333L118.333 144.667L117.667 144.333M124.333 144.667L124.667 145.333L124.333 144.667z"/>
<path style="fill:#9a926c; stroke:none;" d="M127 144L128 145L127 144z"/>
<path style="fill:#a1a49b; stroke:none;" d="M129.333 144.667L129.667 145.333L129.333 144.667z"/>
<path style="fill:#090908; stroke:none;" d="M145 144L146 145L145 144z"/>
<path style="fill:#a1a49b; stroke:none;" d="M79 145L80 146L79 145M92 145L90 149L94 146L92 145z"/>
<path style="fill:#9a926c; stroke:none;" d="M109 145L108 152L109 152L109 145z"/>
<path style="fill:#e0e3de; stroke:none;" d="M117 145L118 150L119 150L119 145L117 145z"/>
<path style="fill:#9a926c; stroke:none;" d="M119.333 145.667L119.667 146.333L119.333 145.667M144 145L145 146L144 145M146.333 145.667L146.667 146.333L146.333 145.667M51 146C49.226 148.819 47.0787 151.436 50 154L49 158L50 158L53 154L54 154L51 146z"/>
<path style="fill:#a1a49b; stroke:none;" d="M58 146L58 151L59 151L58 146M80 146L76 150L81 151L80 146z"/>
<path style="fill:#9a926c; stroke:none;" d="M97 146L98 147L97 146M115 146L117 148L117 146L115 146z"/>
<path style="fill:#a1a49b; stroke:none;" d="M126 146L127 147L126 146M145 146L146 147L145 146z"/>
<path style="fill:#9a926c; stroke:none;" d="M47.3333 147.667L47.6667 148.333L47.3333 147.667M59 147L60 148L59 147M126 147L127 148L126 147z"/>
<path style="fill:#090908; stroke:none;" d="M127.333 147.667L127.667 148.333L127.333 147.667z"/>
<path style="fill:#9a926c; stroke:none;" d="M133 147L134 148L133 147z"/>
<path style="fill:#807060; stroke:none;" d="M20 148L20 149L43 149L20 148M59 148L60 149L59 148z"/>
<path style="fill:#9a926c; stroke:none;" d="M96.3333 148.667L96.6667 149.333L96.3333 148.667z"/>
<path style="fill:#a1a49b; stroke:none;" d="M109 148L110 149L109 148z"/>
<path style="fill:#9a926c; stroke:none;" d="M114 148L114 153L115 153L114 148z"/>
<path style="fill:#a1a49b; stroke:none;" d="M123 148L124 149L123 148z"/>
<path style="fill:#9a926c; stroke:none;" d="M135 148L134 152L135 152L135 148z"/>
<path style="fill:#807060; stroke:none;" d="M136 148L134 158L129 161L129 162L141 161C141 155.36 141.909 150.476 136 148z"/>
<path style="fill:#a1a49b; stroke:none;" d="M148 148L148 150L180 150L180 148L148 148z"/>
<path style="fill:#807060; stroke:none;" d="M51 149L51 152L52 152L51 149z"/>
<path style="fill:#090908; stroke:none;" d="M59 149L60 150L59 149z"/>
<path style="fill:#9a926c; stroke:none;" d="M60 149L62 151L60 149z"/>
<path style="fill:#a1a49b; stroke:none;" d="M71 150L71 151L74 152L74 149L71 150M89 149L90 150L89 149M117 149L118 150L117 149z"/>
<path style="fill:#9a926c; stroke:none;" d="M122 149L123 150L122 149M139 149L140 150L139 149z"/>
<path style="fill:#807060; stroke:none;" d="M59 150L62 152L63 156L60 154C61.9866 157.619 63.7879 159.4 68 159L66 161L69 164L70 162L59 150M72 150L73 151L72 150M78.3333 150.667L78.6667 151.333L78.3333 150.667z"/>
<path style="fill:#9a926c; stroke:none;" d="M79.3333 150.667L79.6667 151.333L79.3333 150.667M100.333 150.667L100.667 151.333L100.333 150.667M117 150L119 153L119 150L117 150z"/>
<path style="fill:#a1a49b; stroke:none;" d="M122 150L123 151L122 150M124 150L125 151L124 150z"/>
<path style="fill:#9a926c; stroke:none;" d="M128 150L129 151L128 150z"/>
<path style="fill:#090908; stroke:none;" d="M138 150L140 152L138 150z"/>
<path style="fill:#a1a49b; stroke:none;" d="M141 150L142 151L141 150z"/>
<path style="fill:#807060; stroke:none;" d="M148 150L148 188L180 188L180 151L148 150z"/>
<path style="fill:#9a926c; stroke:none;" d="M150 150L150 151L180 151L150 150z"/>
<path style="fill:#090908; stroke:none;" d="M60 151L61 152L60 151z"/>
<path style="fill:#a1a49b; stroke:none;" d="M62 151L63 152L62 151z"/>
<path style="fill:#9a926c; stroke:none;" d="M77 151L78 152L77 151M87.3333 151.667L87.6667 152.333L87.3333 151.667M102.333 151.667L102.667 152.333L102.333 151.667z"/>
<path style="fill:#a1a49b; stroke:none;" d="M111.333 151.667L111.667 152.333L111.333 151.667M121 151L122 152L121 151M123 151L124 152L123 151M128 151L129 152L128 151z"/>
<path style="fill:#090908; stroke:none;" d="M136 151L137 152L136 151z"/>
<path style="fill:#9a926c; stroke:none;" d="M141 151L142 152L141 151z"/>
<path style="fill:#807060; stroke:none;" d="M52 152C50.6573 157.624 55.1598 162.543 60 165L52 152z"/>
<path style="fill:#9a926c; stroke:none;" d="M59.3333 152.667L59.6667 153.333L59.3333 152.667z"/>
<path style="fill:#090908; stroke:none;" d="M61 152L63 156L61 152z"/>
<path style="fill:#a1a49b; stroke:none;" d="M75 154L79 153L75 154M80 152L83 155L82 153L83 153L86 155L80 152z"/>
<path style="fill:#9a926c; stroke:none;" d="M109.333 152.667L109.667 153.333L109.333 152.667z"/>
<path style="fill:#807060; stroke:none;" d="M110.333 152.667L110.667 153.333L110.333 152.667z"/>
<path style="fill:#a1a49b; stroke:none;" d="M117.333 152.667L117.667 153.333L117.333 152.667z"/>
<path style="fill:#9a926c; stroke:none;" d="M120 152L121 153L120 152z"/>
<path style="fill:#a1a49b; stroke:none;" d="M141 152L141 162L142 162L141 152M54 153L61 166L50 156C51.3796 164.513 60.8874 172.077 69 174L69 173L62 168C64.5159 164.551 56.6308 155.777 54 153z"/>
<path style="fill:#9a926c; stroke:none;" d="M63 153L64 154L63 153z"/>
<path style="fill:#a1a49b; stroke:none;" d="M67 153L67 154L73 157L67 153z"/>
<path style="fill:#807060; stroke:none;" d="M82.6667 153.333L83.3333 153.667L82.6667 153.333z"/>
<path style="fill:#9a926c; stroke:none;" d="M88 153L89 154L88 153z"/>
<path style="fill:#e0e3de; stroke:none;" d="M93 156L97 153L93 156z"/>
<path style="fill:#9a926c; stroke:none;" d="M103 153L101 157L102 157L103 153z"/>
<path style="fill:#807060; stroke:none;" d="M104 153L100 157L100 158L106 157L104 153z"/>
<path style="fill:#9a926c; stroke:none;" d="M105.333 153.667L105.667 154.333L105.333 153.667z"/>
<path style="fill:#e0e3de; stroke:none;" d="M106 156L109 153L106 156z"/>
<path style="fill:#9a926c; stroke:none;" d="M116 153L117 154L116 153M127 153L128 154L127 153M133.333 153.667L133.667 154.333L133.333 153.667z"/>
<path style="fill:#a1a49b; stroke:none;" d="M49.3333 154.667L49.6667 155.333L49.3333 154.667M59 154L60 155L59 154M64 154L65 155L64 154z"/>
<path style="fill:#9a926c; stroke:none;" d="M68 154L69 155L68 154z"/>
<path style="fill:#807060; stroke:none;" d="M69 154C70.4484 158.243 72.364 160.801 77 161L78 165C73.8735 167.796 84.5993 167.711 86 169C90.4498 168.533 100.961 161.91 92 160L93 164L88 163L91 159L91 158L85 164L81 164L82 158L79 161L78 161L69 154z"/>
<path style="fill:#9a926c; stroke:none;" d="M83 154L84 155L83 154M89 154L92 156L89 154M97 154L97 156L99 156L97 154z"/>
<path style="fill:#807060; stroke:none;" d="M98 154L99 155L98 154z"/>
<path style="fill:#a1a49b; stroke:none;" d="M104 157L104 158L106 160L115 157L114 154L104 157M119 154L120 155L119 154z"/>
<path style="fill:#9a926c; stroke:none;" d="M121 154L122 155L121 154z"/>
<path style="fill:#090908; stroke:none;" d="M125 154L124 157L125 154M52 155L53 156L52 155z"/>
<path style="fill:#a1a49b; stroke:none;" d="M60 155L61 156L60 155M77 155L78 160L81 157L77 155z"/>
<path style="fill:#9a926c; stroke:none;" d="M78.3333 155.667L78.6667 156.333L78.3333 155.667z"/>
<path style="fill:#a1a49b; stroke:none;" d="M79 155L80 156L79 155M105 155L106 156L105 155z"/>
<path style="fill:#9a926c; stroke:none;" d="M109 155L109 157L111 157L109 155M118 155L119 156L118 155M120 155L121 156L120 155z"/>
<path style="fill:#a1a49b; stroke:none;" d="M126 155L127 156L126 155z"/>
<path style="fill:#9a926c; stroke:none;" d="M54 156L55 157L54 156z"/>
<path style="fill:#090908; stroke:none;" d="M63 156L63 158L65 158L65 156L63 156z"/>
<path style="fill:#a1a49b; stroke:none;" d="M69 156L70 162L71 162L69 156z"/>
<path style="fill:#9a926c; stroke:none;" d="M93 156L95 158L95 159L90 159L90 160L98 157L93 156z"/>
<path style="fill:#e0e3de; stroke:none;" d="M106 165L114 156L106 165z"/>
<path style="fill:#9a926c; stroke:none;" d="M117 156L118 157L117 156z"/>
<path style="fill:#a1a49b; stroke:none;" d="M119 156L120 157L119 156z"/>
<path style="fill:#9a926c; stroke:none;" d="M125 156L126 157L125 156M52 157L53 158L52 157M55 157L56 158L55 157M66 157L67 158L66 157z"/>
<path style="fill:#090908; stroke:none;" d="M71 157L75 161L71 157z"/>
<path style="fill:#9a926c; stroke:none;" d="M74 157L75 158L74 157z"/>
<path style="fill:#a1a49b; stroke:none;" d="M75 157L76 158L75 157z"/>
<path style="fill:#9a926c; stroke:none;" d="M81 157L82 158L81 157z"/>
<path style="fill:#a1a49b; stroke:none;" d="M82 157L83 163L86 160L82 157z"/>
<path style="fill:#9a926c; stroke:none;" d="M89 157L90 158L89 157M103 157L104 158L103 157M114 157L115 158L114 157M116 157L117 158L116 157z"/>
<path style="fill:#a1a49b; stroke:none;" d="M118 157L119 158L118 157z"/>
<path style="fill:#090908; stroke:none;" d="M123 157L121 160L123 157z"/>
<path style="fill:#9a926c; stroke:none;" d="M128 157L127 159L128 157M132.667 157.333L133.333 157.667L132.667 157.333M56 158L57 159L56 158z"/>
<path style="fill:#a1a49b; stroke:none;" d="M62 158L63 159L62 158z"/>
<path style="fill:#9a926c; stroke:none;" d="M68 158L69 159L68 158M70 158L71 159L70 158M76 158L77 159L76 158M80 158L81 159L80 158M85 158L86 161L88 158L85 158z"/>
<path style="fill:#e0e3de; stroke:none;" d="M98 158L97 160L98 158z"/>
<path style="fill:#9a926c; stroke:none;" d="M100.667 158.333L101.333 158.667L100.667 158.333z"/>
<path style="fill:#a1a49b; stroke:none;" d="M102 158L103 159L102 158z"/>
<path style="fill:#e0e3de; stroke:none;" d="M101 159L101 160L107 159L101 159z"/>
<path style="fill:#9a926c; stroke:none;" d="M108 158L109 159L108 158z"/>
<path style="fill:#a1a49b; stroke:none;" d="M113 158L114 159L113 158M117 158L118 159L117 158z"/>
<path style="fill:#9a926c; stroke:none;" d="M131 158L130 160L132 160L131 158M50.3333 159.667L50.6667 160.333L50.3333 159.667M63.3333 159.667L63.6667 160.333L63.3333 159.667z"/>
<path style="fill:#090908; stroke:none;" d="M64 159L68 162L68 159L67 159L64 159z"/>
<path style="fill:#e0e3de; stroke:none;" d="M70 159L77 165L70 159z"/>
<path style="fill:#a1a49b; stroke:none;" d="M71 159L72 160L71 159z"/>
<path style="fill:#9a926c; stroke:none;" d="M77 159L78 160L77 159M79 159L80 160L79 159z"/>
<path style="fill:#807060; stroke:none;" d="M96 168C101.958 166.75 106.313 164.71 109 159L96 168z"/>
<path style="fill:#a1a49b; stroke:none;" d="M116 159L117 160L116 159z"/>
<path style="fill:#9a926c; stroke:none;" d="M54 160L56 163L54 160M57 160L58 161L57 160z"/>
<path style="fill:#a1a49b; stroke:none;" d="M72 160L73 161L72 160z"/>
<path style="fill:#9a926c; stroke:none;" d="M78 160L79 161L78 160M82 160L81 164L82 160M88 160L89 161L88 160z"/>
<path style="fill:#e0e3de; stroke:none;" d="M89 160L92 162L89 160z"/>
<path style="fill:#a1a49b; stroke:none;" d="M91 160L92 161L91 160z"/>
<path style="fill:#807060; stroke:none;" d="M97 163L100 160L97 163z"/>
<path style="fill:#9a926c; stroke:none;" d="M105 160L106 161L105 160M111 162L114 161L111 162z"/>
<path style="fill:#a1a49b; stroke:none;" d="M115 160L116 161L115 160z"/>
<path style="fill:#090908; stroke:none;" d="M119.667 160.333L120.333 160.667L119.667 160.333z"/>
<path style="fill:#9a926c; stroke:none;" d="M129 160L130 161L129 160z"/>
<path style="fill:#090908; stroke:none;" d="M129 162C131.064 170.64 131.701 171.999 141 172L141 161L129 162z"/>
<path style="fill:#9a926c; stroke:none;" d="M58 161L59 162L58 161z"/>
<path style="fill:#a1a49b; stroke:none;" d="M62 161L66 166L68 164L68 163L66 162L65 164L64 164L62 161z"/>
<path style="fill:#807060; stroke:none;" d="M63 161L64 164L65 164L65 161L63 161z"/>
<path style="fill:#9a926c; stroke:none;" d="M65 161L64 163L65 161z"/>
<path style="fill:#090908; stroke:none;" d="M75.6667 161.333L76.3333 161.667L75.6667 161.333z"/>
<path style="fill:#a1a49b; stroke:none;" d="M88 161L89 162L88 161z"/>
<path style="fill:#9a926c; stroke:none;" d="M92 161L93 162L92 161z"/>
<path style="fill:#090908; stroke:none;" d="M98 161L99 162L98 161z"/>
<path style="fill:#9a926c; stroke:none;" d="M100 161L101 162L100 161M104 161L105 162L104 161z"/>
<path style="fill:#090908; stroke:none;" d="M106 161L105 163L106 161z"/>
<path style="fill:#a1a49b; stroke:none;" d="M108 161L109 162L108 161M112 161L113 162L112 161M114 161L115 162L114 161z"/>
<path style="fill:#090908; stroke:none;" d="M116.667 161.333L117.333 161.667L116.667 161.333z"/>
<path style="fill:#a1a49b; stroke:none;" d="M120 161L121 162L120 161z"/>
<path style="fill:#9a926c; stroke:none;" d="M52 162L53 163L52 162M59 162L60 163L59 162z"/>
<path style="fill:#e0e3de; stroke:none;" d="M65 162L66 163L65 162z"/>
<path style="fill:#090908; stroke:none;" d="M68 162L68 163L77 167L68 162z"/>
<path style="fill:#807060; stroke:none;" d="M71 162L73 164L71 162z"/>
<path style="fill:#a1a49b; stroke:none;" d="M72 162L73 163L72 162M75 162L76 163L75 162z"/>
<path style="fill:#9a926c; stroke:none;" d="M85 162L86 163L85 162M88.6667 162.333L89.3333 162.667L88.6667 162.333z"/>
<path style="fill:#a1a49b; stroke:none;" d="M90 162L90 163L93 164L90 162z"/>
<path style="fill:#9a926c; stroke:none;" d="M99 162L100 163L99 162M102 162L103 163L102 162z"/>
<path style="fill:#a1a49b; stroke:none;" d="M107 162L108 163L107 162M108 165L120 163L111 165L112 162L108 165z"/>
<path style="fill:#9a926c; stroke:none;" d="M113 162L114 163L113 162z"/>
<path style="fill:#090908; stroke:none;" d="M114.667 162.333L115.333 162.667L114.667 162.333z"/>
<path style="fill:#a1a49b; stroke:none;" d="M122 162L123 163L122 162z"/>
<path style="fill:#9a926c; stroke:none;" d="M123 162L123 163L126 163L123 162M128 162L129 163L128 162M141 162L142 163L141 162M53 163L54 164L53 163M56 163L57 164L56 163z"/>
<path style="fill:#e0e3de; stroke:none;" d="M66 163L69 165L69 164L66 163z"/>
<path style="fill:#a1a49b; stroke:none;" d="M73 163L74 164L73 163M76 163L77 164L76 163z"/>
<path style="fill:#9a926c; stroke:none;" d="M84 163L85 164L84 163M91 163L92 164L91 163M95 163L96 164L95 163M97.6667 163.333L98.3333 163.667L97.6667 163.333M101 163L102 164L101 163z"/>
<path style="fill:#a1a49b; stroke:none;" d="M106 163L107 164L106 163z"/>
<path style="fill:#9a926c; stroke:none;" d="M112 163L113 164L112 163M116 163L117 164L116 163M120 163L121 164L120 163z"/>
<path style="fill:#807060; stroke:none;" d="M101 168L102 171L111 173L111 175L113 175L113 171L121 169L120 174L142 173L142 163L141 163L141 172C133.55 171.994 130.096 171.095 130 163L101 168z"/>
<path style="fill:#9a926c; stroke:none;" d="M54.3333 164.667L54.6667 165.333L54.3333 164.667M60.3333 164.667L60.6667 165.333L60.3333 164.667z"/>
<path style="fill:#807060; stroke:none;" d="M65 164L68 166L68 165L65 164z"/>
<path style="fill:#9a926c; stroke:none;" d="M66 164L67 165L66 164M69 164L70 165L69 164z"/>
<path style="fill:#807060; stroke:none;" d="M70 164L70 166L72 166L70 164M74 164L75 165L74 164z"/>
<path style="fill:#a1a49b; stroke:none;" d="M75 164L76 165L75 164z"/>
<path style="fill:#9a926c; stroke:none;" d="M77 164L78 165L77 164z"/>
<path style="fill:#e0e3de; stroke:none;" d="M97 164L98 165L97 164z"/>
<path style="fill:#9a926c; stroke:none;" d="M99 164L100 165L99 164z"/>
<path style="fill:#a1a49b; stroke:none;" d="M105 164L102 166C104.143 168.434 106.549 166.925 105 164z"/>
<path style="fill:#9a926c; stroke:none;" d="M113 164L114 165L113 164z"/>
<path style="fill:#090908; stroke:none;" d="M123.667 164.333L124.333 164.667L123.667 164.333z"/>
<path style="fill:#9a926c; stroke:none;" d="M127.333 164.667L127.667 165.333L127.333 164.667z"/>
<path style="fill:#a1a49b; stroke:none;" d="M67 166L67 167L71 167L67 166z"/>
<path style="fill:#9a926c; stroke:none;" d="M97 165L98 166L97 165M104 165L105 166L104 165M106 166L106 167L111 167L106 166z"/>
<path style="fill:#a1a49b; stroke:none;" d="M126 165L126 172L127 172L126 165z"/>
<path style="fill:#9a926c; stroke:none;" d="M71.6667 166.333L72.3333 166.667L71.6667 166.333z"/>
<path style="fill:#807060; stroke:none;" d="M73.6667 166.333L74.3333 166.667L73.6667 166.333z"/>
<path style="fill:#9a926c; stroke:none;" d="M86 166L87 167L86 166z"/>
<path style="fill:#e0e3de; stroke:none;" d="M103 166L104 167L103 166z"/>
<path style="fill:#9a926c; stroke:none;" d="M57 167L58 168L57 167z"/>
<path style="fill:#a1a49b; stroke:none;" d="M75.6667 167.333L76.3333 167.667L75.6667 167.333z"/>
<path style="fill:#9a926c; stroke:none;" d="M82 167L81 169L82 167z"/>
<path style="fill:#a1a49b; stroke:none;" d="M79 168L79 169L89 172L89 168L87 170L79 168z"/>
<path style="fill:#9a926c; stroke:none;" d="M84.6667 167.333L85.3333 167.667L84.6667 167.333M92 167L93 168L92 167M95 167L95 169L97 169L95 167M100.667 167.333L101.333 167.667L100.667 167.333z"/>
<path style="fill:#090908; stroke:none;" d="M119.667 167.333L120.333 167.667L119.667 167.333z"/>
<path style="fill:#e0e3de; stroke:none;" d="M125 167L126 168L125 167z"/>
<path style="fill:#9a926c; stroke:none;" d="M58 168L59 169L58 168M62 168L63 169L62 168z"/>
<path style="fill:#807060; stroke:none;" d="M63 170L67 169L63 170z"/>
<path style="fill:#9a926c; stroke:none;" d="M67 168L68 169L67 168z"/>
<path style="fill:#a1a49b; stroke:none;" d="M68 168L68 169L73 169L68 168M77 168L78 169L77 168z"/>
<path style="fill:#9a926c; stroke:none;" d="M78.3333 168.667L78.6667 169.333L78.3333 168.667M89 168L90 169L89 168M91 168L92 169L91 168z"/>
<path style="fill:#090908; stroke:none;" d="M109 168L110 169L109 168z"/>
<path style="fill:#9a926c; stroke:none;" d="M59.6667 169.333L60.3333 169.667L59.6667 169.333z"/>
<path style="fill:#090908; stroke:none;" d="M64 169L64 170L78 171L64 169z"/>
<path style="fill:#e0e3de; stroke:none;" d="M79 169L80 170L79 169z"/>
<path style="fill:#9a926c; stroke:none;" d="M87 169L88 170L87 169M90 169L89 172L90 169M93.6667 169.333L94.3333 169.667L93.6667 169.333z"/>
<path style="fill:#e0e3de; stroke:none;" d="M96 169L97 170L96 169z"/>
<path style="fill:#9a926c; stroke:none;" d="M98.3333 169.667L98.6667 170.333L98.3333 169.667M106 169L107 170L106 169z"/>
<path style="fill:#a1a49b; stroke:none;" d="M107 169L106 171L107 169z"/>
<path style="fill:#9a926c; stroke:none;" d="M108 169L107 171L107 172C109.158 171.022 109.501 170.812 108 169M120 169L121 170L120 169M61 170L62 171L61 170M64 170L65 171L64 170z"/>
<path style="fill:#807060; stroke:none;" d="M65 170L66 171L65 170z"/>
<path style="fill:#9a926c; stroke:none;" d="M85.6667 170.333L86.3333 170.667L85.6667 170.333M92 170L93 171L92 170z"/>
<path style="fill:#e0e3de; stroke:none;" d="M98 173L101 170L98 173z"/>
<path style="fill:#9a926c; stroke:none;" d="M104 170L105 171L104 170z"/>
<path style="fill:#e0e3de; stroke:none;" d="M107.667 170.333L108.333 170.667L107.667 170.333z"/>
<path style="fill:#a1a49b; stroke:none;" d="M113 174L113 175L122 171L113 174z"/>
<path style="fill:#9a926c; stroke:none;" d="M62 171L63 172L62 171M66 171L67 172L66 171z"/>
<path style="fill:#807060; stroke:none;" d="M67 171L68 172L67 171z"/>
<path style="fill:#090908; stroke:none;" d="M84 171L85 172L84 171z"/>
<path style="fill:#9a926c; stroke:none;" d="M97 171L98 172L97 171M102 171L103 172L102 171M105 171L106 172L105 171M113 171L115 174L113 171z"/>
<path style="fill:#e0e3de; stroke:none;" d="M119 171C101.215 184.301 80.257 180.889 61 174L72 186L75 188L77 186L78 186C81.2396 188.777 104.308 190.015 105 186L107 188L108 188L108 184L110 186L111 186L110 183L112 188L114 188L119 171z"/>
<path style="fill:#9a926c; stroke:none;" d="M121 171L122 172L121 171M125 171L126 172L125 171M127 171L128 172L127 171M58 174L61 174L60 172L58 174M64 172L65 173L64 172M68 172L69 173L68 172z"/>
<path style="fill:#090908; stroke:none;" d="M71 172L71 173L75 174L71 172M82 172L83 173L82 172z"/>
<path style="fill:#9a926c; stroke:none;" d="M85 172L86 173L85 172M91 172L92 173L91 172z"/>
<path style="fill:#e0e3de; stroke:none;" d="M101.333 172.667L101.667 173.333L101.333 172.667M104 172L107 174L104 172z"/>
<path style="fill:#a1a49b; stroke:none;" d="M106 172L107 173L106 172z"/>
<path style="fill:#9a926c; stroke:none;" d="M142 172L144 174L142 172z"/>
<path style="fill:#a1a49b; stroke:none;" d="M61 173L62 174L61 173z"/>
<path style="fill:#9a926c; stroke:none;" d="M69 173L70 174L69 173z"/>
<path style="fill:#a1a49b; stroke:none;" d="M83 173L83 174L83 175L86 174L86 173L83 173z"/>
<path style="fill:#e0e3de; stroke:none;" d="M84 173L85 174L84 173z"/>
<path style="fill:#9a926c; stroke:none;" d="M98.6667 173.333L99.3333 173.667L98.6667 173.333M107 173L106 175L108 175L107 173z"/>
<path style="fill:#a1a49b; stroke:none;" d="M109 173L108 175L110 175L109 173z"/>
<path style="fill:#9a926c; stroke:none;" d="M110 173L109 176L110 173z"/>
<path style="fill:#a1a49b; stroke:none;" d="M119 173L118 176L119 176L119 173z"/>
<path style="fill:#090908; stroke:none;" d="M120 174L120 175L145 176C140.005 170.899 126.515 172.074 120 174z"/>
<path style="fill:#9a926c; stroke:none;" d="M63 174L64 175L63 174M70.3333 174.667L70.6667 175.333L70.3333 174.667z"/>
<path style="fill:#a1a49b; stroke:none;" d="M71 174L75 176L75 175L71 174z"/>
<path style="fill:#9a926c; stroke:none;" d="M72 174L73 175L72 174M82 174L83 175L82 174z"/>
<path style="fill:#090908; stroke:none;" d="M87 174L88 175L87 174z"/>
<path style="fill:#9a926c; stroke:none;" d="M101 174L101 175L104 176L101 174M119 174L120 175L119 174z"/>
<path style="fill:#807060; stroke:none;" d="M144 174L145 175L144 174z"/>
<path style="fill:#a1a49b; stroke:none;" d="M61 175L62 176L61 175M64 175L65 176L64 175z"/>
<path style="fill:#9a926c; stroke:none;" d="M65 175L66 176L65 175M77 175L78 176L77 175z"/>
<path style="fill:#a1a49b; stroke:none;" d="M78.6667 175.333L79.3333 175.667L78.6667 175.333z"/>
<path style="fill:#090908; stroke:none;" d="M85 175L77 177L77 178L87 178L85 175z"/>
<path style="fill:#a1a49b; stroke:none;" d="M102 175L103 176L102 175M111 175L112 176L111 175z"/>
<path style="fill:#807060; stroke:none;" d="M119 175L119 188L145 188L145 176L119 175z"/>
<path style="fill:#a1a49b; stroke:none;" d="M62 176L63 177L62 176M66.6667 176.333L67.3333 176.667L66.6667 176.333z"/>
<path style="fill:#9a926c; stroke:none;" d="M68 176L69 177L68 176z"/>
<path style="fill:#090908; stroke:none;" d="M94 176L93 179L94 176z"/>
<path style="fill:#9a926c; stroke:none;" d="M106 176L107 177L106 176z"/>
<path style="fill:#a1a49b; stroke:none;" d="M107 176L107 177L110 177L107 176z"/>
<path style="fill:#9a926c; stroke:none;" d="M118 176L119 177L118 176z"/>
<path style="fill:#a1a49b; stroke:none;" d="M63 177L65 181L66 181L63 177M69.6667 177.333L70.3333 177.667L69.6667 177.333z"/>
<path style="fill:#9a926c; stroke:none;" d="M71 177L72 178L71 177z"/>
<path style="fill:#090908; stroke:none;" d="M88 178L88 179L92 178L88 178z"/>
<path style="fill:#9a926c; stroke:none;" d="M103 177L104 178L103 177z"/>
<path style="fill:#a1a49b; stroke:none;" d="M104.667 177.333L105.333 177.667L104.667 177.333M117 177L116 188L119 188L117 177z"/>
<path style="fill:#807060; stroke:none;" d="M20 178L20 179L60 179C49.488 174.589 31.434 178 20 178z"/>
<path style="fill:#9a926c; stroke:none;" d="M63 178L64 179L63 178z"/>
<path style="fill:#a1a49b; stroke:none;" d="M72.6667 178.333L73.3333 178.667L72.6667 178.333z"/>
<path style="fill:#9a926c; stroke:none;" d="M74.6667 178.333L75.3333 178.667L74.6667 178.333M99.6667 178.333L100.333 178.667L99.6667 178.333z"/>
<path style="fill:#a1a49b; stroke:none;" d="M101 178L101 179L104 179L101 178z"/>
<path style="fill:#9a926c; stroke:none;" d="M118 178L119 179L118 178z"/>
<path style="fill:#a1a49b; stroke:none;" d="M77 179L77 180L81 180L77 179z"/>
<path style="fill:#9a926c; stroke:none;" d="M81 179L81 180L85 180L81 179M90 179L90 180L93 180L90 179M94 179L95 180L94 179z"/>
<path style="fill:#a1a49b; stroke:none;" d="M95 179L95 180L99 180L95 179z"/>
<path style="fill:#9a926c; stroke:none;" d="M116.333 179.667L116.667 180.333L116.333 179.667M64 180L65 181L64 180z"/>
<path style="fill:#a1a49b; stroke:none;" d="M85 180L85 181L89 181L85 180M93 180L94 181L93 180z"/>
<path style="fill:#9a926c; stroke:none;" d="M66 181L67 182L66 181z"/>
<path style="fill:#807060; stroke:none;" d="M114 181L114 188L116 188L116 181L114 181z"/>
<path style="fill:#9a926c; stroke:none;" d="M64 182L64 188L65 188L64 182z"/>
<path style="fill:#a1a49b; stroke:none;" d="M67.3333 182.667L67.6667 183.333L67.3333 182.667z"/>
<path style="fill:#807060; stroke:none;" d="M68 183L68 188L69 188L68 183z"/>
<path style="fill:#a1a49b; stroke:none;" d="M69 183L69 188L70 188L69 183M110 183L111 184L110 183z"/>
<path style="fill:#807060; stroke:none;" d="M111 183L112 184L111 183M70.3333 184.667L70.6667 185.333L70.3333 184.667z"/>
<path style="fill:#a1a49b; stroke:none;" d="M71 184L71 188L75 185L71 184z"/>
<path style="fill:#9a926c; stroke:none;" d="M108 184L108 186L110 186L108 184z"/>
<path style="fill:#a1a49b; stroke:none;" d="M109 184L110 185L109 184z"/>
<path style="fill:#9a926c; stroke:none;" d="M67 185L67 188L68 188L67 185M70.3333 186.667L70.6667 187.333L70.3333 186.667z"/>
<path style="fill:#807060; stroke:none;" d="M73 186L74 187L73 186z"/>
<path style="fill:#a1a49b; stroke:none;" d="M76 187L76 188L79 188L76 187M105 186L107 188L107 186L105 186M108 186L108 188L111 188L111 186L108 186z"/>
<path style="fill:#807060; stroke:none;" d="M77 187L78 188L77 187z"/>
<path style="fill:#9a926c; stroke:none;" d="M101 187L102 188L101 187z"/>
<path style="fill:#807060; stroke:none;" d="M102 187L103 188L102 187z"/>
</svg>
