<?xml version="1.0" standalone="no"?>
<!DOCTYPE svg PUBLIC "-//W3C//DTD SVG 20010904//EN"
 "http://www.w3.org/TR/2001/REC-SVG-20010904/DTD/svg10.dtd">
<svg version="1.0" xmlns="http://www.w3.org/2000/svg"
 width="1280.000000pt" height="1280.000000pt" viewBox="0 0 1280.000000 1280.000000"
 preserveAspectRatio="xMidYMid meet">

<g transform="translate(0.000000,1280.000000) scale(0.100000,-0.100000)"
fill="#000000" stroke="none">
<path d="M2023 7953 c5 -2693 10 -4087 16 -4111 1 -2 5 -1 10 2 4 3 9 286 10
628 2 675 6 801 21 806 5 2 9 22 9 45 l-2 42 -7 -40 c-5 -33 -8 -37 -15 -21
-5 11 -4 36 3 60 6 26 7 45 1 52 -6 7 -6 20 0 35 9 23 10 23 11 -6 1 -16 4
-24 7 -17 8 21 20 13 27 -19 5 -25 10 -30 26 -26 13 3 20 0 20 -9 0 -8 5 -14
10 -14 6 0 10 -18 10 -40 0 -22 4 -40 9 -40 5 0 11 -9 14 -20 3 -11 12 -20 21
-20 13 0 16 -12 16 -60 l0 -60 66 0 66 0 -4 -57 c-3 -57 -3 -57 29 -66 37 -11
53 -37 23 -37 -11 0 -20 -4 -20 -10 0 -5 7 -10 15 -10 18 0 65 -44 65 -60 0
-19 49 -61 73 -63 12 -1 28 -9 35 -19 7 -10 22 -18 33 -18 11 0 19 -7 19 -17
0 -24 13 -7 14 19 1 16 12 29 36 40 41 21 49 10 23 -29 -11 -16 -24 -40 -31
-55 -8 -19 -16 -26 -27 -22 -8 3 -15 2 -15 -3 0 -22 24 -79 41 -99 24 -25 26
-79 4 -70 -10 3 -15 -1 -15 -14 0 -10 -7 -25 -15 -34 -8 -8 -15 -22 -15 -30 0
-9 -9 -25 -20 -36 -12 -12 -17 -26 -13 -36 4 -10 0 -20 -10 -26 -10 -5 -17
-18 -17 -28 0 -10 -4 -22 -10 -25 -6 -3 -10 -2 -10 3 0 6 -9 8 -20 5 -11 -3
-20 -10 -20 -17 0 -6 -11 -20 -25 -30 -31 -24 -36 -62 -5 -46 18 9 20 8 20
-15 0 -14 -4 -25 -10 -25 -5 0 -10 -9 -10 -20 0 -10 -9 -24 -20 -30 -11 -6
-20 -18 -20 -27 0 -9 -7 -24 -15 -33 -9 -10 -13 -25 -9 -34 9 -24 24 -19 24 9
0 14 4 25 10 25 5 0 16 15 25 33 17 36 34 65 53 85 17 18 15 42 -3 42 -9 0
-15 9 -15 25 0 31 14 32 34 3 l16 -22 6 31 c3 18 12 34 20 37 8 3 14 12 14 19
0 8 7 20 15 27 8 7 15 23 15 36 0 13 5 24 11 24 5 0 15 14 20 30 6 17 15 30
20 30 5 0 9 8 9 18 0 11 9 27 20 37 11 10 20 25 21 34 0 9 18 43 39 76 21 33
51 85 67 115 15 30 34 61 40 68 7 7 13 17 13 22 0 5 20 44 45 86 25 41 45 81
45 88 0 7 9 21 20 31 11 10 20 27 20 37 0 10 7 21 15 24 8 4 15 17 15 30 0 13
4 24 9 24 4 0 35 53 67 118 33 64 62 119 65 122 7 6 23 37 57 107 13 26 28 55
33 63 15 26 101 193 163 317 32 65 62 125 67 133 5 8 12 22 15 30 9 22 105
223 115 240 5 8 12 22 15 30 8 22 28 69 53 121 11 25 21 49 21 53 0 4 7 14 15
22 8 9 15 25 15 37 0 13 9 30 20 40 11 9 20 28 20 42 0 16 6 25 15 25 10 0 15
-11 15 -35 0 -19 -4 -35 -9 -35 -5 0 -11 -17 -15 -39 -3 -21 -13 -44 -21 -51
-8 -7 -15 -25 -15 -40 0 -16 -7 -30 -15 -34 -8 -3 -15 -18 -15 -33 0 -15 -7
-37 -15 -47 -8 -11 -15 -27 -15 -37 0 -9 -7 -22 -15 -29 -8 -7 -15 -23 -15
-35 0 -12 -7 -28 -15 -35 -8 -7 -15 -19 -15 -27 0 -8 -6 -27 -14 -41 -8 -15
-29 -58 -47 -97 -36 -80 -196 -412 -209 -435 -5 -8 -33 -62 -63 -120 -68 -133
-138 -265 -214 -405 -33 -60 -77 -141 -98 -180 -20 -38 -52 -95 -70 -125 -17
-30 -115 -200 -216 -378 -101 -177 -188 -330 -194 -340 -18 -31 -80 -133 -103
-171 -12 -20 -27 -45 -32 -56 -6 -11 -19 -33 -30 -50 -11 -16 -24 -39 -30 -50
-6 -11 -18 -32 -28 -47 -9 -14 -30 -48 -45 -75 -15 -26 -32 -55 -37 -63 -45
-73 -78 -126 -92 -149 -10 -14 -21 -33 -25 -41 -15 -33 -56 -79 -65 -74 -5 3
-6 13 -2 23 8 19 15 448 8 474 -16 53 -21 -22 -18 -269 3 -185 1 -281 -6 -289
-8 -10 -7 -16 2 -22 21 -13 758 -16 894 -4 215 20 471 59 524 79 14 5 46 12
72 16 26 4 50 11 53 17 4 5 15 9 26 9 25 0 183 61 279 107 138 67 270 163 270
197 3 261 -3 820 -11 941 -5 88 -13 374 -18 635 -7 342 -14 510 -26 600 -15
108 -17 194 -12 640 5 538 5 536 48 610 5 8 13 24 18 36 10 22 71 79 92 86 13
4 0 37 -55 133 -12 22 -40 71 -60 109 -21 37 -57 100 -79 140 -23 39 -48 82
-55 96 -7 14 -22 41 -33 60 -12 19 -32 55 -46 80 -13 25 -35 63 -47 85 -12 22
-39 70 -59 107 -41 74 -92 165 -107 188 -5 8 -26 47 -46 85 -20 39 -45 82 -55
97 -11 14 -19 29 -19 32 0 6 -97 181 -158 286 -12 19 -35 62 -52 95 -17 33
-35 67 -40 75 -5 8 -29 51 -53 95 -24 44 -55 100 -69 125 -14 25 -69 126 -123
225 -54 99 -108 196 -119 215 -12 19 -34 60 -50 90 -15 30 -37 71 -48 90 -11
19 -44 80 -73 135 -30 55 -65 120 -79 145 -48 87 -80 145 -94 175 -9 17 -18
32 -21 35 -6 5 -19 29 -113 210 -22 41 -62 116 -89 165 -27 50 -56 104 -64
120 -9 17 -19 37 -24 45 -5 8 -12 22 -15 30 -3 8 -22 42 -41 75 -19 33 -48 87
-65 120 -17 33 -35 67 -39 75 -31 55 -66 123 -88 173 -14 31 -30 57 -36 57 -7
0 -8 -1062 -4 -3297z m2027 -1488 c0 -8 -4 -15 -10 -15 -5 0 -10 7 -10 15 0 8
5 15 10 15 6 0 10 -7 10 -15z m2 -250 c2 -118 -1 -215 -5 -215 -5 0 -8 -19 -7
-42 3 -69 0 -112 -6 -105 -3 3 -6 37 -5 76 0 39 -4 71 -8 71 -5 0 -7 59 -5
133 11 356 32 403 36 82z m-15 -407 c-3 -7 -5 -2 -5 12 0 14 2 19 5 13 2 -7 2
-19 0 -25z m-1161 -735 c-11 -11 -19 6 -11 24 8 17 8 17 12 0 3 -10 2 -21 -1
-24z m46 -85 c-7 -7 -12 -8 -12 -2 0 6 3 14 7 17 3 4 9 5 12 2 2 -3 -1 -11 -7
-17z m-36 -44 c-4 -12 -10 -14 -17 -7 -5 5 -7 17 -3 27 4 12 10 14 17 7 5 -5
7 -17 3 -27z m-217 -80 c2 -2 -4 -13 -14 -24 -22 -24 -46 -11 -38 21 4 15 11
18 27 13 11 -4 23 -8 25 -10z m191 -14 c0 -5 -2 -10 -4 -10 -3 0 -8 5 -11 10
-3 6 -1 10 4 10 6 0 11 -4 11 -10z m-30 -60 c0 -5 -4 -10 -10 -10 -5 0 -10 5
-10 10 0 6 5 10 10 10 6 0 10 -4 10 -10z m-30 -41 c0 -4 -12 -20 -26 -34 -14
-14 -31 -37 -38 -50 l-13 -25 -13 25 c-12 22 -10 27 26 63 34 35 64 45 64 21z
m-70 -129 c0 -5 -2 -10 -4 -10 -3 0 -8 5 -11 10 -3 6 -1 10 4 10 6 0 11 -4 11
-10z"/>
<path d="M10714 11153 c-10 -27 -23 -55 -30 -63 -22 -28 -27 -60 -10 -66 17
-6 23 -44 7 -44 -5 0 -15 10 -23 22 -15 22 -15 22 -20 -10 -2 -17 -1 -32 4
-32 4 0 8 -8 8 -17 0 -15 -2 -14 -15 3 -13 16 -16 17 -25 4 -5 -8 -10 -23 -10
-32 0 -10 -4 -18 -9 -18 -5 0 -12 -13 -16 -29 -3 -16 -13 -35 -21 -42 -8 -6
-14 -17 -14 -24 0 -7 -7 -18 -15 -25 -8 -7 -15 -22 -15 -33 0 -19 3 -18 30 11
17 18 30 44 30 58 0 28 12 31 34 9 18 -18 12 -37 -21 -73 -26 -28 -14 -44 13
-18 23 24 32 20 40 -19 3 -19 10 -38 15 -41 5 -3 7 -9 5 -13 -3 -4 0 -26 5
-50 10 -46 -5 -76 -34 -65 -20 7 -52 -25 -38 -39 16 -16 13 -64 -4 -71 -14 -5
-17 -1 -19 34 -1 8 -10 16 -21 18 -16 2 -17 1 -5 -7 12 -8 12 -13 -4 -30 -11
-12 -15 -21 -9 -21 5 0 10 -21 12 -47 1 -27 8 -66 15 -88 14 -41 11 -104 -5
-106 -5 -1 -13 -3 -19 -4 -5 -1 -14 -3 -20 -4 -5 0 -10 -13 -10 -28 0 -44 -11
-73 -27 -73 -11 0 -14 -7 -11 -24 4 -17 1 -23 -9 -19 -8 3 -13 -2 -13 -16 0
-12 -4 -21 -9 -21 -5 0 -11 -9 -14 -21 -3 -12 -10 -18 -16 -15 -6 4 -12 -17
-16 -51 -3 -32 -10 -68 -16 -81 -5 -13 -9 -35 -9 -50 0 -21 -2 -24 -10 -12 -7
11 -10 7 -10 -17 0 -18 -4 -33 -10 -33 -5 0 -10 -17 -10 -37 0 -33 -1 -35 -13
-18 -19 25 -31 15 -51 -42 -10 -26 -24 -63 -32 -81 -8 -18 -13 -36 -9 -41 3
-5 2 -17 -1 -26 -5 -12 -14 -15 -35 -11 -29 5 -39 -6 -39 -47 0 -12 -21 -44
-45 -72 -49 -54 -61 -81 -51 -120 4 -16 2 -25 -5 -25 -7 0 -10 3 -6 6 3 4 -1
14 -10 23 -12 11 -17 13 -21 3 -2 -6 -10 -12 -18 -12 -8 0 -14 -4 -14 -10 0
-5 4 -10 9 -10 5 0 2 -18 -7 -40 l-17 -40 -57 0 c-51 0 -58 2 -58 20 0 11 -4
20 -10 20 -5 0 -10 11 -10 25 0 15 6 25 15 25 9 0 12 6 8 17 -4 11 -8 12 -11
5 -2 -7 -12 -12 -23 -12 -16 0 -17 3 -7 26 10 22 9 27 -5 35 -22 13 -21 26 3
74 11 22 20 45 20 52 0 7 4 13 8 13 12 0 42 56 42 78 0 11 7 22 15 26 18 7 21
60 3 54 -7 -3 -16 -19 -20 -36 -5 -18 -13 -32 -18 -32 -6 0 -10 -6 -10 -14 0
-7 -7 -19 -15 -26 -8 -7 -15 -23 -15 -36 0 -13 -4 -24 -10 -24 -5 0 -26 -30
-45 -67 -53 -103 -95 -177 -106 -187 -14 -15 -11 -46 6 -52 8 -4 15 -14 15
-23 -1 -13 -4 -12 -19 7 -25 29 -28 28 -36 -7 -3 -16 -13 -35 -21 -42 -8 -6
-14 -17 -14 -24 0 -7 -7 -18 -15 -25 -8 -7 -15 -19 -15 -28 0 -8 -6 -23 -14
-31 -8 -9 -35 -56 -61 -106 -26 -49 -55 -101 -63 -115 -9 -14 -26 -43 -38 -65
-25 -46 -94 -174 -121 -225 -48 -89 -97 -176 -107 -190 -6 -8 -20 -33 -30 -55
-16 -33 -85 -155 -126 -225 -5 -8 -23 -42 -40 -75 -17 -33 -46 -87 -65 -120
-19 -33 -42 -76 -51 -95 -10 -19 -28 -48 -41 -63 -13 -16 -23 -35 -23 -43 0
-8 -4 -14 -8 -14 -4 0 -21 -26 -37 -57 -16 -32 -35 -64 -42 -71 -7 -7 -13 -18
-13 -24 0 -5 -13 -30 -30 -55 -16 -24 -30 -50 -30 -57 0 -8 -7 -19 -15 -26
-19 -16 -19 -50 0 -77 44 -63 44 -52 49 -1878 4 -1505 6 -1735 19 -1760 9 -17
23 -48 32 -70 10 -22 24 -53 31 -68 8 -16 14 -34 14 -41 0 -8 9 -24 19 -37 10
-14 21 -36 23 -49 l3 -25 440 -2 c242 -2 676 1 965 5 l525 7 -1 200 c-8 1006
-10 1125 -23 1125 -10 0 -23 -151 -22 -250 1 -61 -1 -71 -10 -56 -7 11 -11 37
-11 58 1 25 -2 37 -8 33 -6 -4 -15 7 -21 24 -6 17 -14 30 -17 30 -25 -4 -42 3
-42 16 0 8 -6 15 -13 15 -22 0 -67 -58 -67 -85 0 -14 -4 -25 -10 -25 -5 0 -10
5 -10 10 0 6 -10 24 -22 40 -15 21 -30 30 -50 30 -15 0 -28 -4 -28 -10 0 -5
-12 -10 -26 -10 -17 0 -28 6 -31 20 -3 11 -10 20 -15 20 -5 0 -7 -4 -3 -9 3
-5 1 -12 -5 -16 -6 -3 -13 1 -16 9 -4 10 -19 16 -40 16 -20 0 -42 8 -53 19
-13 13 -29 18 -52 15 -120 -14 -191 -16 -198 -6 -4 6 -40 15 -81 18 -41 4 -77
10 -80 14 -5 6 -85 40 -95 40 -3 0 -5 -13 -5 -30 0 -16 -4 -30 -10 -30 -5 0
-10 6 -10 14 0 21 -57 46 -105 46 -29 0 -47 6 -60 20 -23 25 -32 25 -40 0 -4
-11 -11 -17 -17 -14 -6 4 -6 9 -1 13 16 11 36 89 28 108 -6 14 -10 11 -18 -20
-5 -21 -16 -41 -23 -44 -8 -3 -14 -19 -14 -38 0 -18 -6 -38 -14 -44 -8 -7 -17
-27 -20 -45 -4 -19 -14 -37 -23 -40 -12 -5 -14 -16 -10 -45 5 -37 4 -39 -17
-32 -26 10 -34 62 -12 81 9 7 16 22 16 34 0 12 7 31 15 42 8 10 15 31 15 46 0
15 7 33 15 42 8 8 15 25 15 38 0 13 7 33 15 44 8 10 15 28 15 39 0 11 9 37 20
58 11 20 20 45 20 56 0 10 7 32 15 47 8 16 15 36 15 44 0 8 7 24 15 34 8 11
15 32 15 47 0 14 6 32 14 38 8 6 16 26 19 44 6 34 60 202 83 254 8 17 14 39
14 50 0 10 7 27 15 37 8 11 15 31 15 45 1 14 7 37 15 51 8 14 14 34 15 45 0
11 7 33 15 49 8 15 15 37 15 47 0 10 6 33 14 51 8 18 22 58 31 88 23 79 54
182 85 280 15 47 35 114 45 150 9 36 24 85 33 110 8 25 19 61 23 80 5 19 15
60 24 90 9 30 25 87 35 125 11 39 26 95 35 125 42 146 92 339 120 461 7 30 17
71 23 90 11 35 29 107 42 169 4 19 15 64 24 100 9 36 23 97 32 135 8 39 21 95
29 125 30 126 45 196 45 214 0 11 6 42 14 70 8 28 19 76 26 106 26 133 41 210
54 285 8 44 19 96 25 115 6 19 11 51 11 72 0 20 5 49 11 65 6 15 15 57 19 93
4 36 12 85 18 110 11 47 27 152 42 278 5 40 13 94 19 120 12 54 27 167 46 337
7 66 18 139 23 163 5 23 10 86 11 139 1 53 7 106 14 117 6 12 14 100 18 206 3
102 11 210 17 240 12 60 21 620 10 620 -3 0 -14 -21 -24 -47z m-13 -235 c-16
-49 -54 -93 -74 -85 -24 9 -21 44 3 52 11 3 20 12 20 20 0 7 9 15 20 18 13 3
20 14 20 28 0 17 3 20 11 12 8 -8 8 -20 0 -45z m0 -253 l-9 -40 -1 36 c-2 61
-13 101 -26 95 -31 -12 -22 30 14 65 15 14 17 10 24 -50 4 -36 3 -83 -2 -106z
m-41 -145 c0 -5 -5 -10 -11 -10 -5 0 -7 5 -4 10 3 6 8 10 11 10 2 0 4 -4 4
-10z m-38 -107 c6 -24 -1 -53 -13 -53 -5 0 -9 16 -9 35 0 36 15 48 22 18z m45
-170 c-4 -17 -4 -17 -12 0 -4 9 -4 25 0 35 8 16 8 16 12 0 3 -10 3 -26 0 -35z
m-907 -1002 c0 -11 3 -28 6 -38 6 -16 5 -16 -9 2 -18 22 -22 55 -7 55 6 0 10
-9 10 -19z m-8 -83 c-7 -7 -12 -8 -12 -2 0 14 12 26 19 19 2 -3 -1 -11 -7 -17z
m-52 -13 c0 -8 -4 -15 -10 -15 -5 0 -10 7 -10 15 0 8 5 15 10 15 6 0 10 -7 10
-15z m-23 -157 c-3 -8 -6 -5 -6 6 -1 11 2 17 5 13 3 -3 4 -12 1 -19z m-77 -8
c0 -5 -4 -10 -10 -10 -5 0 -10 5 -10 10 0 6 5 10 10 10 6 0 10 -4 10 -10z
m105 -24 c-11 -8 -24 -12 -28 -9 -11 7 12 23 32 23 11 0 9 -4 -4 -14z m-47
-75 c4 -40 -11 -34 -27 10 -9 27 -8 30 7 27 11 -2 18 -15 20 -37z m-76 5 c-8
-29 -62 -75 -62 -54 0 12 56 78 65 78 2 0 0 -11 -3 -24z m144 -3 c-10 -10 -19
5 -10 18 6 11 8 11 12 0 2 -7 1 -15 -2 -18z m-36 -94 c0 -32 -3 -39 -20 -39
-23 0 -26 22 -6 39 8 7 12 21 8 33 -3 14 -1 19 6 14 7 -4 12 -25 12 -47z m-70
25 c0 -16 -59 -78 -67 -71 -5 6 49 87 59 87 4 0 8 -7 8 -16z m-120 -34 c0 -5
-4 -10 -10 -10 -5 0 -10 5 -10 10 0 6 5 10 10 10 6 0 10 -4 10 -10z m225 -58
c0 -18 -20 -15 -23 4 -3 10 1 15 10 12 7 -3 13 -10 13 -16z m-98 -8 c-3 -3
-12 -4 -19 -1 -8 3 -5 6 6 6 11 1 17 -2 13 -5z m-49 -4201 c-10 -2 -28 -2 -40
0 -13 2 -5 4 17 4 22 1 32 -1 23 -4z m-108 -13 c0 -5 -2 -10 -4 -10 -3 0 -8 5
-11 10 -3 6 -1 10 4 10 6 0 11 -4 11 -10z m250 -10 c0 -5 -4 -10 -10 -10 -5 0
-10 5 -10 10 0 6 5 10 10 10 6 0 10 -4 10 -10z m-306 -36 c3 -9 3 -20 0 -25
-9 -15 -34 10 -27 27 7 19 19 18 27 -2z m756 -44 c-12 -8 -12 -10 5 -11 l20 0
-20 -8 c-21 -9 -49 5 -39 20 3 5 15 9 27 9 18 0 19 -2 7 -10z m350 -25 c0 -8
-4 -15 -10 -15 -5 0 -10 7 -10 15 0 8 5 15 10 15 6 0 10 -7 10 -15z m-1234
-57 c-3 -13 -6 -26 -6 -30 0 -17 -18 -6 -23 14 -7 26 -1 38 20 38 11 0 14 -6
9 -22z m-44 -110 c-9 -9 -12 -7 -12 12 0 19 3 21 12 12 9 -9 9 -15 0 -24z"/>
<path d="M10487 10713 c-4 -3 -7 -14 -7 -23 0 -10 -7 -23 -15 -30 -19 -16 -19
-47 0 -47 10 0 13 6 10 18 -4 11 2 25 14 36 12 10 21 25 21 35 0 18 -11 24
-23 11z"/>
<path d="M10566 10694 c-4 -9 -1 -23 6 -31 9 -11 9 -16 -2 -23 -8 -5 -11 -12
-8 -15 14 -15 28 8 28 46 0 40 -13 52 -24 23z"/>
<path d="M7890 10674 c0 -8 5 -12 10 -9 6 4 8 11 5 16 -9 14 -15 11 -15 -7z"/>
<path d="M7860 10600 c0 -11 5 -20 10 -20 6 0 10 9 10 20 0 11 -4 20 -10 20
-5 0 -10 -9 -10 -20z"/>
<path d="M10420 10580 c0 -11 5 -20 10 -20 6 0 10 9 10 20 0 11 -4 20 -10 20
-5 0 -10 -9 -10 -20z"/>
<path d="M10390 10526 c0 -8 5 -18 10 -21 6 -3 10 1 10 9 0 8 -4 18 -10 21 -5
3 -10 -1 -10 -9z"/>
<path d="M7831 10514 c0 -11 3 -14 6 -6 3 7 2 16 -1 19 -3 4 -6 -2 -5 -13z"/>
<path d="M10357 10461 c-3 -12 -2 -23 3 -26 11 -7 20 19 10 34 -5 9 -9 7 -13
-8z"/>
<path d="M7790 10430 c0 -5 5 -10 10 -10 6 0 10 5 10 10 0 6 -4 10 -10 10 -5
0 -10 -4 -10 -10z"/>
<path d="M10460 10385 c0 -8 2 -15 4 -15 2 0 6 7 10 15 3 8 1 15 -4 15 -6 0
-10 -7 -10 -15z"/>
<path d="M7760 10359 c0 -11 5 -17 10 -14 6 3 10 13 10 21 0 8 -4 14 -10 14
-5 0 -10 -9 -10 -21z"/>
<path d="M10290 10333 c-7 -18 -16 -33 -21 -33 -5 0 -9 -11 -9 -25 0 -14 3
-25 8 -25 11 0 45 88 39 102 -3 7 -10 -2 -17 -19z"/>
<path d="M10400 10322 c0 -5 7 -13 16 -16 10 -4 14 -1 12 6 -5 15 -28 23 -28
10z"/>
<path d="M10497 10303 c-12 -12 -7 -63 6 -63 7 0 12 12 11 30 -1 33 -7 44 -17
33z"/>
<path d="M7705 10227 c-4 -10 -5 -21 -1 -24 10 -10 18 4 13 24 -4 17 -4 17
-12 0z"/>
<path d="M10226 10224 c-7 -18 0 -34 15 -34 5 0 9 11 9 25 0 28 -15 34 -24 9z"/>
<path d="M10187 10141 c-6 -17 -15 -31 -19 -31 -4 0 -8 -10 -8 -21 0 -18 2
-19 15 -9 8 7 15 19 15 26 0 8 4 14 9 14 13 0 21 39 10 46 -6 3 -15 -8 -22
-25z"/>
<path d="M7670 10134 c0 -14 4 -23 10 -19 6 3 10 15 10 26 0 10 -4 19 -10 19
-5 0 -10 -12 -10 -26z"/>
<path d="M7637 10068 c-7 -25 -3 -33 12 -23 13 8 15 45 2 45 -5 0 -11 -10 -14
-22z"/>
<path d="M10131 10042 c-14 -26 -7 -42 10 -25 6 6 9 19 7 29 -3 17 -5 17 -17
-4z"/>
<path d="M7606 10003 c-3 -3 -6 -17 -6 -30 0 -31 25 -25 26 6 1 23 -9 35 -20
24z"/>
<path d="M10100 9974 c0 -14 4 -23 10 -19 6 3 10 15 10 26 0 10 -4 19 -10 19
-5 0 -10 -12 -10 -26z"/>
<path d="M7570 9905 c0 -14 5 -25 10 -25 6 0 10 11 10 25 0 14 -4 25 -10 25
-5 0 -10 -11 -10 -25z"/>
<path d="M10065 9917 c-9 -29 -15 -41 -34 -72 -29 -44 -61 -110 -61 -123 0 -7
5 -12 10 -12 6 0 10 6 10 13 0 8 9 24 20 37 11 13 20 31 20 42 0 10 7 18 15
18 10 0 15 10 15 30 0 17 4 30 9 30 14 0 23 32 12 43 -7 7 -12 5 -16 -6z"/>
<path d="M7545 9845 c-3 -8 -7 -22 -10 -30 -2 -8 -1 -15 3 -15 14 0 32 24 32
42 0 22 -19 24 -25 3z"/>
<path d="M7510 9764 c0 -14 4 -23 10 -19 6 3 10 15 10 26 0 10 -4 19 -10 19
-5 0 -10 -12 -10 -26z"/>
<path d="M7480 9686 c0 -13 -9 -35 -21 -50 -12 -15 -19 -37 -17 -51 4 -36 22
-36 26 0 2 17 11 39 20 50 20 24 42 62 42 72 0 5 -5 1 -11 -7 -8 -11 -12 -12
-16 -2 -8 21 -23 13 -23 -12z"/>
<path d="M9952 9693 c0 -5 -2 -16 -7 -26 -4 -10 -2 -23 5 -33 18 -20 35 -3 22
22 -5 11 -7 25 -5 32 3 6 0 12 -6 12 -6 0 -10 -3 -9 -7z"/>
<path d="M10241 9664 c0 -11 3 -14 6 -6 3 7 2 16 -1 19 -3 4 -6 -2 -5 -13z"/>
<path d="M9910 9625 c-13 -16 -7 -45 10 -45 5 0 10 14 10 30 0 34 -3 36 -20
15z"/>
<path d="M7540 9596 c0 -9 5 -16 10 -16 6 0 10 4 10 9 0 6 -4 13 -10 16 -5 3
-10 -1 -10 -9z"/>
<path d="M7415 9545 c-3 -8 -7 -21 -9 -28 -2 -7 2 -21 10 -32 8 -10 14 -17 15
-14 8 62 8 89 -1 89 -6 0 -13 -7 -15 -15z"/>
<path d="M9922 9468 c2 -13 10 -23 18 -23 8 0 16 10 18 23 3 17 -2 22 -18 22
-16 0 -21 -5 -18 -22z"/>
<path d="M7386 9473 c-3 -3 -6 -16 -6 -28 0 -13 -7 -28 -15 -35 -8 -6 -17 -22
-21 -33 -6 -23 -39 -100 -55 -129 -5 -10 -9 -25 -9 -34 0 -9 -9 -27 -20 -41
-11 -14 -20 -36 -20 -49 0 -13 -4 -24 -10 -24 -5 0 -14 -18 -20 -40 -6 -21
-15 -42 -20 -45 -6 -3 -10 -17 -10 -29 0 -13 -7 -29 -15 -36 -8 -7 -15 -19
-15 -26 0 -7 -9 -31 -21 -53 -11 -22 -18 -44 -15 -49 3 -5 -3 -17 -14 -27 -11
-10 -20 -30 -20 -45 0 -15 -7 -33 -15 -40 -8 -7 -15 -18 -15 -24 0 -7 -9 -29
-20 -51 -11 -22 -20 -46 -20 -55 0 -8 -7 -24 -15 -34 -8 -11 -15 -27 -15 -37
0 -9 -7 -22 -15 -29 -8 -7 -15 -22 -15 -34 0 -12 -4 -26 -9 -31 -5 -6 -21 -39
-36 -75 -14 -36 -33 -81 -41 -100 -9 -19 -19 -44 -24 -55 -14 -35 -51 -119
-65 -150 -7 -16 -29 -70 -50 -120 -20 -49 -43 -105 -51 -122 -25 -58 -41 -96
-79 -188 -20 -49 -43 -105 -51 -122 -8 -18 -21 -49 -29 -68 -8 -19 -22 -51
-30 -70 -8 -19 -21 -50 -28 -68 -8 -17 -24 -57 -37 -87 -12 -30 -29 -67 -36
-82 -22 -42 -20 -57 36 -183 11 -24 47 -115 65 -165 7 -19 27 -68 44 -109 17
-40 31 -78 31 -83 0 -5 8 -28 18 -51 20 -45 42 -100 68 -169 9 -24 22 -55 30
-70 8 -14 14 -35 14 -45 0 -11 7 -28 15 -39 8 -10 15 -25 15 -32 0 -7 8 -32
18 -55 10 -23 26 -62 36 -87 10 -25 24 -58 32 -73 8 -16 14 -37 14 -47 0 -9 7
-23 15 -30 8 -7 15 -25 15 -40 0 -15 7 -33 15 -40 8 -7 15 -25 15 -40 0 -15 7
-33 15 -40 8 -7 15 -25 15 -41 0 -15 7 -34 15 -43 8 -8 15 -22 15 -30 0 -9 9
-33 20 -53 11 -21 20 -45 20 -53 0 -8 7 -24 15 -34 8 -11 15 -31 15 -44 0 -13
7 -30 15 -38 8 -9 15 -27 15 -40 0 -14 7 -32 15 -40 8 -9 15 -30 15 -49 0 -20
6 -35 15 -39 9 -3 15 -18 15 -34 0 -16 7 -35 15 -42 8 -7 15 -27 15 -44 0 -17
7 -40 15 -50 8 -11 15 -28 15 -38 0 -10 6 -29 14 -41 8 -13 11 -30 6 -42 -6
-17 -12 -10 -34 40 -15 33 -34 72 -42 87 -8 14 -14 37 -14 50 0 13 -9 31 -20
41 -11 9 -20 27 -21 39 0 13 -3 17 -6 11 -7 -20 -31 -15 -43 7 -13 24 -30 18
-30 -11 0 -10 -4 -19 -10 -19 -5 0 -10 9 -10 20 0 11 5 20 10 20 19 0 10 29
-16 55 -17 17 -30 23 -36 17 -6 -6 -2 -15 12 -25 21 -14 21 -16 5 -41 -19 -29
-31 -33 -38 -13 -3 7 -6 5 -6 -5 -1 -22 -24 -23 -41 -3 -7 8 -23 15 -36 15
-22 0 -24 4 -24 54 0 57 -10 69 -49 59 -11 -3 -32 -2 -46 1 -20 5 -25 11 -20
26 5 14 2 20 -9 20 -9 0 -16 -7 -16 -15 0 -8 -4 -15 -9 -15 -23 0 -41 14 -41
31 0 20 -26 26 -32 7 -5 -14 -58 38 -58 57 0 10 -10 15 -28 15 -16 0 -36 9
-47 23 l-20 22 -3 -22 c-3 -18 -10 -23 -32 -23 -22 0 -29 6 -36 28 -5 20 -8
23 -11 10 -5 -22 -4 -22 -48 -1 -25 12 -35 23 -35 40 0 20 -5 23 -40 23 -29 0
-40 4 -40 15 0 11 -11 15 -40 15 -32 0 -40 4 -40 19 0 16 -6 18 -45 13 -36 -4
-49 -1 -59 13 -10 14 -21 17 -45 12 -27 -6 -33 -3 -43 18 -6 14 -19 25 -29 25
-10 0 -26 9 -36 19 -23 24 -107 38 -128 21 -12 -10 -15 -9 -15 4 0 9 5 16 10
16 6 0 10 7 10 15 0 10 -10 15 -30 15 -24 0 -30 4 -30 21 0 19 -4 20 -35 15
-40 -8 -75 7 -76 32 0 10 -3 12 -6 5 -6 -15 -39 -17 -48 -3 -3 6 -1 10 6 10
10 0 10 3 0 13 -11 10 -14 10 -18 0 -6 -18 -23 -16 -23 2 0 8 -4 15 -10 15 -5
0 -10 -7 -10 -15 0 -8 -7 -15 -15 -15 -12 0 -13 5 -7 18 12 23 4 42 -18 42
-23 0 -35 -17 -35 -49 0 -13 -6 -26 -12 -28 -7 -3 -13 1 -13 9 0 48 -22 84
-63 106 -24 12 -50 20 -59 17 -19 -7 -42 20 -34 40 3 8 1 15 -5 15 -6 0 -13
-9 -16 -20 -3 -11 -14 -20 -24 -20 -11 0 -24 -11 -31 -25 -13 -29 -33 -33 -42
-9 -7 19 -8 17 22 33 12 6 22 20 22 30 0 11 7 21 15 25 15 5 22 37 8 35 -33
-5 -51 4 -57 27 -8 29 -26 27 -42 -5 -21 -40 -34 -48 -40 -23 -4 12 -11 22
-16 22 -5 0 -21 25 -35 56 -19 41 -28 53 -37 44 -8 -8 -6 -19 8 -43 10 -18 46
-86 81 -152 92 -177 136 -258 148 -274 13 -16 34 -50 43 -71 3 -8 20 -42 37
-75 17 -33 46 -90 65 -127 19 -38 38 -68 43 -68 5 0 9 -7 9 -16 0 -14 13 -40
80 -154 5 -8 20 -35 33 -60 14 -25 41 -74 61 -110 20 -36 55 -99 77 -142 l42
-76 51 1 c173 3 1260 -6 1401 -12 188 -8 193 -7 222 54 8 17 30 57 49 90 19
33 42 74 50 90 8 17 18 37 23 45 5 8 12 22 15 30 4 8 18 35 32 60 14 25 55
101 91 170 36 69 85 161 108 205 48 90 146 278 243 465 73 143 155 296 189
355 12 22 25 47 29 55 3 8 9 22 14 30 5 8 35 66 67 128 32 62 70 136 85 165
15 28 28 57 28 63 0 6 7 17 15 24 23 19 18 45 -10 58 -14 6 -25 18 -25 26 0 9
-9 20 -20 26 -13 7 -20 21 -20 41 0 22 -6 32 -24 38 -25 10 -36 44 -36 112 0
27 5 39 18 42 13 4 11 5 -5 6 -26 1 -32 21 -7 21 8 0 22 7 31 16 14 14 14 17
-6 30 -11 8 -21 24 -21 34 0 10 -4 22 -10 25 -6 4 -10 -8 -10 -29 0 -20 -4
-36 -10 -36 -5 0 -10 -9 -10 -21 0 -14 -5 -19 -17 -17 -14 3 -18 14 -19 53 -1
38 -6 52 -23 63 -11 8 -21 21 -21 28 0 8 -7 14 -15 14 -12 0 -14 4 -7 17 7 12
5 24 -9 42 -22 32 -29 109 -10 120 16 10 6 31 -14 31 -20 0 -35 32 -35 74 0
32 -3 36 -25 36 -23 0 -25 4 -25 44 0 25 -4 48 -10 51 -5 3 -10 14 -10 23 0
10 -9 24 -20 32 -17 12 -20 26 -20 92 l0 78 -40 0 -39 0 0 75 c0 66 -2 78 -22
93 -12 11 -21 29 -21 45 0 15 -4 27 -9 27 -5 0 -9 9 -9 20 0 11 -4 20 -10 20
-5 0 -10 9 -10 20 0 13 -7 20 -20 20 -16 0 -20 7 -20 30 0 27 3 30 30 30 29 0
30 1 30 50 0 28 -4 50 -10 50 -5 0 -10 8 -10 18 0 10 -9 24 -20 32 -15 11 -20
26 -20 58 0 29 -6 50 -20 64 -17 19 -20 19 -20 5 0 -10 -8 -17 -20 -17 -12 0
-20 -7 -20 -16 0 -9 -6 -14 -12 -11 -9 2 -12 20 -9 52 2 31 -1 50 -10 55 -9 6
-9 12 4 24 10 10 18 12 22 6 10 -17 25 -11 25 10 0 11 -4 20 -10 20 -5 0 -10
12 -10 28 0 33 -27 58 -57 54 -29 -4 -29 -10 -1 -33 11 -11 18 -22 14 -26 -11
-12 -66 57 -66 83 0 14 -10 30 -25 40 -14 9 -28 27 -31 40 -3 13 -12 28 -20
35 -19 15 -18 55 1 63 8 3 15 17 15 31 0 14 5 25 11 25 16 0 39 26 39 44 0 9
-4 16 -10 16 -5 0 -10 -5 -10 -11 0 -23 -20 4 -21 29 -1 23 -2 22 -11 -10 -7
-27 -15 -38 -29 -38 -25 0 -24 15 1 33 18 13 19 17 7 40 -13 25 -15 25 -32 9
-10 -9 -15 -11 -11 -4 4 7 1 15 -8 18 -23 9 -16 63 16 118 32 54 45 100 30
110 -5 3 -12 3 -16 -1z m-56 -244 c0 -11 -4 -17 -10 -14 -5 3 -10 13 -10 21 0
8 5 14 10 14 6 0 10 -9 10 -21z m30 -39 c0 -5 -4 -10 -10 -10 -5 0 -10 5 -10
10 0 6 5 10 10 10 6 0 10 -4 10 -10z m-56 -77 c-20 -32 -34 -27 -22 7 8 23 13
29 22 20 7 -7 7 -15 0 -27z m86 -14 c0 -12 -8 -28 -17 -35 -36 -27 -44 -10
-17 31 20 31 34 32 34 4z m290 -589 c0 -5 -4 -10 -9 -10 -6 0 -13 5 -16 10 -3
6 1 10 9 10 9 0 16 -4 16 -10z m0 -85 c0 -14 -4 -25 -9 -25 -12 0 -19 21 -13
38 8 21 22 13 22 -13z m480 -1320 c0 -8 -2 -15 -4 -15 -2 0 -6 7 -10 15 -3 8
-1 15 4 15 6 0 10 -7 10 -15z m72 -177 c15 -17 28 -35 28 -40 0 -4 6 -8 14 -8
13 0 26 -20 26 -40 0 -5 -8 -10 -17 -12 -17 -3 -73 41 -73 58 0 4 -7 15 -15
24 -14 15 -12 50 3 50 3 0 18 -14 34 -32z m34 -155 c-3 -3 -13 -2 -23 2 -17 7
-17 8 2 15 19 7 34 -5 21 -17z m-3206 -731 c0 -20 -27 -62 -40 -62 -15 0 -22
38 -10 60 13 25 50 27 50 2z m201 -143 c16 -8 18 -13 8 -25 -22 -27 -55 -12
-43 20 7 19 9 19 35 5z m-171 -25 c0 -8 -5 -12 -10 -9 -6 4 -8 11 -5 16 9 14
15 11 15 -7z m88 -32 c2 -12 -1 -22 -6 -22 -15 0 -34 28 -27 40 10 17 30 6 33
-18z m-58 -32 c0 -5 -2 -10 -4 -10 -3 0 -8 5 -11 10 -3 6 -1 10 4 10 6 0 11
-4 11 -10z m160 -31 c0 -12 -7 -19 -20 -19 -19 0 -28 28 -14 43 11 11 34 -5
34 -24z m-120 -23 c0 -3 -4 -8 -10 -11 -5 -3 -10 -1 -10 4 0 6 5 11 10 11 6 0
10 -2 10 -4z m1844 -624 c-1 -7 -2 -21 -2 -33 -3 -31 -22 -12 -22 22 0 20 4
29 13 27 6 -3 12 -10 11 -16z m-79 -2 c3 -5 -1 -10 -9 -10 -9 0 -16 5 -16 10
0 6 4 10 9 10 6 0 13 -4 16 -10z"/>
<path d="M9960 9411 c0 -12 6 -21 16 -21 9 0 14 7 12 17 -5 25 -28 28 -28 4z"/>
<path d="M9927 9374 c-4 -4 -7 -23 -7 -41 0 -42 23 -41 28 1 4 29 -9 52 -21
40z"/>
<path d="M7400 9350 c0 -31 -1 -34 -12 -48 -6 -7 -8 -15 -4 -19 3 -3 6 -2 6 4
0 6 8 9 19 6 26 -7 35 24 16 53 -19 29 -25 30 -25 4z"/>
<path d="M9835 9320 c-3 -5 -1 -10 4 -10 6 0 11 5 11 10 0 6 -2 10 -4 10 -3 0
-8 -4 -11 -10z"/>
<path d="M9901 9256 c-10 -12 -9 -19 8 -38 l21 -22 -6 34 c-9 44 -9 44 -23 26z"/>
<path d="M7620 8690 c0 -5 5 -10 11 -10 5 0 7 5 4 10 -3 6 -8 10 -11 10 -2 0
-4 -4 -4 -10z"/>
<path d="M8830 7831 c0 -25 6 -27 13 -6 4 8 2 17 -3 20 -6 4 -10 -3 -10 -14z"/>
<path d="M8605 7417 c-4 -10 -5 -21 -1 -24 10 -10 18 4 13 24 -4 17 -4 17 -12
0z"/>
<path d="M8575 7357 c-4 -10 -5 -21 -1 -24 10 -10 18 4 13 24 -4 17 -4 17 -12
0z"/>
<path d="M8524 7305 c-7 -18 3 -35 22 -35 8 0 14 10 14 25 0 27 -27 35 -36 10z"/>
<path d="M8490 7253 c0 -5 7 -17 15 -27 15 -20 20 -10 9 18 -6 16 -24 22 -24
9z"/>
<path d="M8470 7175 c0 -9 5 -15 11 -13 6 2 11 8 11 13 0 5 -5 11 -11 13 -6 2
-11 -4 -11 -13z"/>
<path d="M8221 7147 c-18 -18 -13 -52 12 -74 12 -11 27 -29 34 -39 10 -17 12
-15 12 19 1 55 -36 116 -58 94z m23 -15 c3 -5 -1 -9 -9 -9 -8 0 -15 4 -15 9 0
4 4 8 9 8 6 0 12 -4 15 -8z"/>
<path d="M8434 7088 c-10 -23 -19 -47 -19 -53 0 -5 -10 -11 -22 -13 -17 -3
-23 -10 -23 -29 0 -13 -9 -32 -20 -41 -14 -12 -18 -24 -14 -40 4 -13 12 -21
18 -19 16 5 20 38 6 47 -8 5 -4 10 12 14 16 4 34 28 61 82 22 45 34 81 29 86
-5 5 -17 -9 -28 -34z"/>
<path d="M8290 6985 c0 -24 5 -35 15 -35 10 0 15 11 15 35 0 24 -5 35 -15 35
-10 0 -15 -11 -15 -35z"/>
<path d="M4661 6564 c0 -11 3 -14 6 -6 3 7 2 16 -1 19 -3 4 -6 -2 -5 -13z"/>
<path d="M4691 6518 c-1 -21 38 -88 51 -88 6 0 7 7 4 16 -3 9 -6 20 -6 25 0 5
-6 9 -14 9 -8 0 -19 12 -24 28 -6 16 -11 20 -11 10z"/>
<path d="M4760 6390 c0 -11 5 -20 10 -20 6 0 10 9 10 20 0 11 -4 20 -10 20 -5
0 -10 -9 -10 -20z"/>
<path d="M4790 6330 c0 -19 3 -21 12 -12 9 9 9 15 0 24 -9 9 -12 7 -12 -12z"/>
<path d="M4820 6271 c0 -12 5 -21 10 -21 6 0 10 6 10 14 0 8 -4 18 -10 21 -5
3 -10 -3 -10 -14z"/>
<path d="M4847 6220 c5 -20 15 -25 26 -14 9 9 -4 34 -18 34 -8 0 -11 -8 -8
-20z"/>
<path d="M5090 6148 c0 -18 18 -34 28 -24 3 4 -2 14 -11 23 -16 16 -17 16 -17
1z"/>
<path d="M4970 6135 c-10 -12 -10 -15 4 -15 9 0 16 7 16 15 0 8 -2 15 -4 15
-2 0 -9 -7 -16 -15z"/>
<path d="M6298 5523 c7 -3 16 -2 19 1 4 3 -2 6 -13 5 -11 0 -14 -3 -6 -6z"/>
<path d="M6911 5494 c0 -11 3 -14 6 -6 3 7 2 16 -1 19 -3 4 -6 -2 -5 -13z"/>
<path d="M6930 5421 c0 -12 6 -21 16 -21 9 0 14 7 12 17 -5 25 -28 28 -28 4z"/>
<path d="M6655 5401 c-9 -16 3 -31 26 -31 14 0 19 6 17 17 -4 20 -33 29 -43
14z"/>
<path d="M6957 5326 c-3 -8 1 -20 9 -26 12 -10 14 -8 14 14 0 28 -14 35 -23
12z"/>
<path d="M6990 5267 c0 -7 6 -21 13 -32 17 -22 32 -5 22 25 -7 22 -35 28 -35
7z"/>
<path d="M9622 5170 c0 -14 2 -19 5 -12 2 6 2 18 0 25 -3 6 -5 1 -5 -13z"/>
<path d="M9592 5090 c0 -14 2 -19 5 -12 2 6 2 18 0 25 -3 6 -5 1 -5 -13z"/>
<path d="M2225 5000 c3 -5 8 -10 11 -10 2 0 4 5 4 10 0 6 -5 10 -11 10 -5 0
-7 -4 -4 -10z"/>
<path d="M9555 4998 c-4 -10 -4 -26 0 -35 8 -17 8 -17 12 0 3 9 3 25 0 35 -4
16 -4 16 -12 0z"/>
<path d="M9520 4905 c0 -14 5 -25 10 -25 6 0 10 11 10 25 0 14 -4 25 -10 25
-5 0 -10 -11 -10 -25z"/>
<path d="M2400 4895 c0 -8 7 -15 16 -15 14 0 14 3 4 15 -7 8 -14 15 -16 15 -2
0 -4 -7 -4 -15z"/>
<path d="M9492 4825 c0 -16 2 -22 5 -12 2 9 2 23 0 30 -3 6 -5 -1 -5 -18z"/>
<path d="M9460 4730 c0 -16 5 -30 10 -30 6 0 10 14 10 30 0 17 -4 30 -10 30
-5 0 -10 -13 -10 -30z"/>
<path d="M2560 4741 c0 -5 -3 -16 -6 -25 -4 -11 2 -19 20 -26 27 -10 36 -45
14 -52 -16 -6 -2 -38 15 -38 8 0 17 14 21 31 9 45 7 71 -4 64 -5 -3 -16 8 -25
25 -15 28 -35 41 -35 21z"/>
<path d="M2560 4564 c0 -27 4 -35 14 -31 9 4 16 -3 20 -16 4 -16 8 -19 17 -10
8 8 6 16 -10 32 -12 12 -21 30 -21 41 0 11 -4 20 -10 20 -5 0 -10 -16 -10 -36z"/>
<path d="M2635 4590 c-3 -5 -1 -10 4 -10 6 0 11 5 11 10 0 6 -2 10 -4 10 -3 0
-8 -4 -11 -10z"/>
<path d="M9490 4578 c0 -19 2 -20 10 -8 13 19 13 30 0 30 -5 0 -10 -10 -10
-22z"/>
<path d="M2468 4528 c14 -18 52 -31 52 -18 0 4 -8 10 -17 14 -10 3 -25 9 -33
13 -13 5 -13 4 -2 -9z"/>
<path d="M2591 4464 c0 -11 3 -14 6 -6 3 7 2 16 -1 19 -3 4 -6 -2 -5 -13z"/>
<path d="M2480 4344 c0 -8 5 -12 10 -9 6 4 8 11 5 16 -9 14 -15 11 -15 -7z"/>
<path d="M2437 4195 c-4 -8 -2 -17 3 -20 6 -4 10 -4 10 -1 0 2 3 11 6 20 3 9
2 16 -4 16 -5 0 -12 -7 -15 -15z"/>
<path d="M2355 4119 c-4 -6 -3 -15 3 -21 6 -6 11 -4 15 6 7 18 -9 31 -18 15z"/>
<path d="M2380 4017 c0 -7 6 -21 13 -32 19 -25 32 -3 15 25 -15 23 -28 26 -28
7z"/>
<path d="M2340 3969 c0 -17 20 -49 30 -49 14 0 12 34 -2 48 -15 15 -28 15 -28
1z"/>
<path d="M2330 3870 c0 -5 5 -10 10 -10 6 0 10 5 10 10 0 6 -4 10 -10 10 -5 0
-10 -4 -10 -10z"/>
<path d="M2300 3820 c0 -19 3 -21 12 -12 9 9 9 15 0 24 -9 9 -12 7 -12 -12z"/>
<path d="M2270 3770 c0 -11 5 -20 10 -20 6 0 10 9 10 20 0 11 -4 20 -10 20 -5
0 -10 -9 -10 -20z"/>
<path d="M2232 3717 c3 -24 21 -27 26 -4 2 8 -4 17 -13 21 -13 4 -16 1 -13
-17z"/>
<path d="M2204 3672 c-6 -4 -14 -20 -17 -37 -3 -16 -4 -24 -1 -17 3 6 12 12
20 12 8 0 14 10 14 25 0 28 0 28 -16 17z"/>
<path d="M2170 3590 c0 -5 5 -10 10 -10 6 0 10 5 10 10 0 6 -4 10 -10 10 -5 0
-10 -4 -10 -10z"/>
<path d="M2140 3544 c0 -8 5 -12 10 -9 6 3 10 10 10 16 0 5 -4 9 -10 9 -5 0
-10 -7 -10 -16z"/>
<path d="M2090 3514 c0 -13 21 -44 30 -44 16 0 11 37 -6 44 -19 7 -24 8 -24 0z"/>
<path d="M6343 2512 c-120 -2 -152 -5 -157 -17 -7 -19 9 -28 31 -16 10 5 74 8
143 7 l125 -2 3 -724 c1 -399 0 -734 -2 -745 -5 -19 -12 -20 -106 -17 -68 3
-100 0 -100 -7 0 -6 3 -11 8 -11 4 -1 55 -2 115 -2 l107 -1 0 769 c0 423 -3
769 -7 769 -5 0 -76 -1 -160 -3z"/>
<path d="M7309 2504 c-11 -13 13 -38 25 -26 4 4 80 7 169 7 128 0 162 3 162
14 0 17 -342 22 -356 5z"/>
<path d="M9840 2505 c-13 -15 5 -39 21 -29 17 10 299 12 306 2 10 -18 34 -7
31 13 -3 20 -9 21 -176 22 -110 1 -177 -2 -182 -8z"/>
<path d="M5055 2500 c-8 -13 -15 -12 160 -14 125 -1 150 -3 151 -16 1 -8 2
-21 3 -27 0 -7 6 -13 11 -13 14 0 12 54 -2 68 -15 15 -314 17 -323 2z"/>
<path d="M8143 2498 c2 -9 35 -13 113 -13 60 0 115 -4 122 -9 7 -4 17 -19 22
-32 5 -13 14 -24 20 -24 15 0 12 16 -5 30 -8 7 -15 23 -15 36 l0 24 -131 0
c-100 0 -130 -3 -126 -12z"/>
<path d="M9122 2498 c-7 -7 -12 -21 -12 -32 1 -21 1 -21 16 -1 13 18 27 20
121 20 76 0 107 4 110 13 6 17 -218 17 -235 0z"/>
<path d="M9310 2450 c0 -19 3 -21 12 -12 9 9 9 15 0 24 -9 9 -12 7 -12 -12z"/>
<path d="M8180 2446 c0 -8 5 -18 10 -21 6 -3 10 3 10 14 0 12 -4 21 -10 21 -5
0 -10 -6 -10 -14z"/>
<path d="M7670 2405 c0 -19 5 -35 10 -35 6 0 10 16 10 35 0 19 -4 35 -10 35
-5 0 -10 -16 -10 -35z"/>
<path d="M9815 2425 c-3 -8 -7 -22 -10 -30 -2 -9 2 -15 10 -15 8 0 15 6 15 14
0 8 3 21 6 30 3 9 1 16 -5 16 -7 0 -14 -7 -16 -15z"/>
<path d="M10196 2415 c-7 -27 -1 -45 15 -45 5 0 9 16 9 35 0 41 -15 47 -24 10z"/>
<path d="M6160 2408 c0 -13 6 -33 14 -43 12 -17 13 -15 12 20 -1 42 -26 63
-26 23z"/>
<path d="M7285 2418 c-9 -31 -11 -68 -4 -68 12 0 29 35 29 59 0 23 -18 29 -25
9z"/>
<path d="M8216 2403 c-4 -9 -3 -20 2 -25 6 -6 10 1 10 16 0 30 -3 32 -12 9z"/>
<path d="M9274 2396 c-10 -27 2 -43 14 -19 8 14 9 24 2 28 -6 3 -13 -1 -16 -9z"/>
<path d="M5060 2390 c0 -5 5 -10 10 -10 6 0 10 5 10 10 0 6 -4 10 -10 10 -5 0
-10 -4 -10 -10z"/>
<path d="M8437 2370 c8 -29 25 -37 21 -9 -1 12 -8 24 -15 26 -7 3 -9 -3 -6
-17z"/>
<path d="M5400 2345 c0 -19 5 -35 10 -35 6 0 10 16 10 35 0 19 -4 35 -10 35
-5 0 -10 -16 -10 -35z"/>
<path d="M9246 2344 c-8 -21 -8 -24 3 -24 12 0 22 28 12 35 -5 3 -12 -2 -15
-11z"/>
<path d="M8240 2330 c0 -11 7 -20 15 -20 17 0 18 2 9 24 -9 23 -24 20 -24 -4z"/>
<path d="M9043 2335 c-9 -25 4 -29 17 -6 7 15 7 21 0 21 -6 0 -13 -7 -17 -15z"/>
<path d="M7700 2306 c0 -13 5 -28 10 -31 6 -3 10 3 10 14 0 12 0 24 1 28 0 4
-4 9 -10 11 -6 2 -11 -8 -11 -22z"/>
<path d="M9780 2295 c0 -39 14 -47 24 -12 9 35 7 47 -9 47 -10 0 -15 -11 -15
-35z"/>
<path d="M10230 2313 c0 -10 4 -24 9 -31 6 -11 9 -10 13 5 3 10 3 24 1 31 -7
18 -23 15 -23 -5z"/>
<path d="M6137 2313 c-10 -10 -8 -53 2 -53 8 0 20 32 21 53 0 9 -14 9 -23 0z"/>
<path d="M7250 2290 c0 -16 5 -30 10 -30 6 0 10 14 10 30 0 17 -4 30 -10 30
-5 0 -10 -13 -10 -30z"/>
<path d="M8470 2306 c0 -17 14 -29 23 -20 8 8 -3 34 -14 34 -5 0 -9 -6 -9 -14z"/>
<path d="M7413 2243 c-3 -54 -2 -56 13 -35 16 24 16 83 -1 89 -6 1 -11 -22
-12 -54z"/>
<path d="M9200 2278 c0 -32 17 -46 26 -23 4 9 0 24 -10 33 -15 15 -16 14 -16
-10z"/>
<path d="M9010 2264 c0 -14 4 -23 10 -19 6 3 10 15 10 26 0 10 -4 19 -10 19
-5 0 -10 -12 -10 -26z"/>
<path d="M9945 2271 c-8 -25 3 -64 16 -56 11 8 12 46 0 64 -7 11 -10 9 -16 -8z"/>
<path d="M10067 2269 c-3 -12 -2 -31 3 -42 7 -18 9 -14 9 21 1 46 -4 54 -12
21z"/>
<path d="M7540 2245 c0 -19 5 -35 10 -35 6 0 10 16 10 35 0 19 -4 35 -10 35
-5 0 -10 -16 -10 -35z"/>
<path d="M8270 2270 c0 -5 5 -10 11 -10 5 0 7 5 4 10 -3 6 -8 10 -11 10 -2 0
-4 -4 -4 -10z"/>
<path d="M5425 2249 c-9 -26 12 -51 24 -30 10 15 3 51 -9 51 -5 0 -12 -9 -15
-21z"/>
<path d="M7729 2218 c8 -38 31 -50 31 -16 0 23 -16 48 -31 48 -3 0 -4 -14 0
-32z"/>
<path d="M8505 2240 c-7 -12 2 -30 16 -30 5 0 9 9 9 20 0 21 -15 27 -25 10z"/>
<path d="M8306 2231 c-8 -12 3 -41 15 -41 12 0 12 37 0 45 -5 3 -12 1 -15 -4z"/>
<path d="M7227 2223 c-11 -10 -8 -61 3 -68 6 -4 10 10 10 34 0 42 -2 46 -13
34z"/>
<path d="M9178 2205 c-4 -20 -3 -23 8 -14 16 13 19 39 5 39 -5 0 -11 -11 -13
-25z"/>
<path d="M9758 2224 c-5 -4 -8 -21 -8 -38 0 -21 3 -27 11 -19 6 6 9 23 7 38
-2 15 -6 23 -10 19z"/>
<path d="M10264 2216 c-4 -10 -2 -22 4 -28 8 -8 13 -7 18 6 4 10 2 22 -4 28
-8 8 -13 7 -18 -6z"/>
<path d="M6107 2214 c-4 -4 -7 -25 -7 -47 0 -37 9 -47 14 -15 1 7 5 19 9 25 9
15 -6 47 -16 37z"/>
<path d="M8976 2204 c-10 -25 1 -29 14 -5 6 12 7 21 1 21 -5 0 -12 -7 -15 -16z"/>
<path d="M9041 2204 c0 -11 3 -14 6 -6 3 7 2 16 -1 19 -3 4 -6 -2 -5 -13z"/>
<path d="M8536 2175 c-11 -30 -6 -40 11 -22 12 12 14 20 6 28 -7 7 -12 6 -17
-6z"/>
<path d="M9915 2159 c-4 -15 -5 -38 -3 -50 4 -24 4 -24 18 3 10 21 10 34 3 50
l-11 23 -7 -26z"/>
<path d="M5462 2145 c2 -16 8 -31 13 -33 17 -5 17 22 0 43 -15 19 -15 19 -13
-10z"/>
<path d="M8340 2156 c0 -8 5 -18 10 -21 6 -3 10 1 10 9 0 8 -4 18 -10 21 -5 3
-10 -1 -10 -9z"/>
<path d="M7386 2145 c-9 -24 -7 -55 3 -55 15 0 23 38 13 56 -8 15 -10 15 -16
-1z"/>
<path d="M7570 2131 c0 -31 15 -50 22 -29 6 18 -3 58 -13 58 -5 0 -9 -13 -9
-29z"/>
<path d="M8945 2150 c-3 -5 -3 -15 1 -21 6 -11 23 6 24 24 0 10 -18 9 -25 -3z"/>
<path d="M9146 2145 c-3 -8 -1 -15 3 -15 5 0 11 7 15 15 3 8 1 15 -3 15 -5 0
-11 -7 -15 -15z"/>
<path d="M10100 2136 c0 -14 5 -28 10 -31 6 -3 10 5 10 19 0 14 -4 28 -10 31
-6 3 -10 -5 -10 -19z"/>
<path d="M10292 2114 c2 -15 9 -29 16 -32 10 -3 13 4 10 24 -2 15 -9 29 -16
32 -10 3 -13 -4 -10 -24z"/>
<path d="M7770 2095 c0 -22 4 -34 10 -30 6 3 10 17 10 30 0 13 -4 27 -10 30
-6 4 -10 -8 -10 -30z"/>
<path d="M9117 2117 c-3 -8 -1 -20 4 -28 6 -10 9 -7 9 14 0 29 -5 35 -13 14z"/>
<path d="M7190 2088 c0 -25 3 -29 10 -18 13 20 13 50 0 50 -5 0 -10 -15 -10
-32z"/>
<path d="M8565 2110 c-7 -12 2 -30 16 -30 5 0 9 9 9 20 0 21 -15 27 -25 10z"/>
<path d="M9716 2094 c-7 -28 0 -47 15 -39 12 8 12 52 0 59 -5 3 -12 -6 -15
-20z"/>
<path d="M5246 2068 c-4 -24 -7 -274 -6 -556 l1 -513 -86 2 c-54 1 -91 -3 -98
-10 -8 -8 14 -11 86 -12 53 -1 102 -2 107 -3 7 -1 11 180 10 563 0 310 -2 566
-4 568 -2 2 -6 -16 -10 -39z"/>
<path d="M8380 2090 c0 -19 3 -21 12 -12 9 9 9 15 0 24 -9 9 -12 7 -12 -12z"/>
<path d="M6077 2093 c-11 -10 -8 -53 3 -53 6 0 10 14 10 30 0 31 -2 35 -13 23z"/>
<path d="M8914 2087 c-8 -21 2 -35 16 -21 5 5 6 15 0 24 -8 12 -10 12 -16 -3z"/>
<path d="M5330 2030 c0 -16 5 -30 10 -30 6 0 10 14 10 30 0 17 -4 30 -10 30
-5 0 -10 -13 -10 -30z"/>
<path d="M8600 2040 c0 -11 5 -20 10 -20 6 0 10 9 10 20 0 11 -4 20 -10 20 -5
0 -10 -9 -10 -20z"/>
<path d="M9085 2047 c-4 -10 -5 -21 -1 -24 10 -10 18 4 13 24 -4 17 -4 17 -12
0z"/>
<path d="M5498 2015 c6 -48 24 -57 20 -9 -2 20 -8 39 -14 41 -6 2 -8 -10 -6
-32z"/>
<path d="M7607 2044 c-12 -12 -8 -49 8 -70 14 -18 14 -18 14 11 0 37 -12 69
-22 59z"/>
<path d="M8400 2041 c0 -6 5 -13 10 -16 6 -3 10 1 10 9 0 9 -4 16 -10 16 -5 0
-10 -4 -10 -9z"/>
<path d="M10135 2038 c-4 -10 -4 -26 0 -35 8 -17 8 -17 12 0 3 9 3 25 0 35 -4
16 -4 16 -12 0z"/>
<path d="M6200 2030 c0 -5 5 -10 10 -10 6 0 10 5 10 10 0 6 -4 10 -10 10 -5 0
-10 -4 -10 -10z"/>
<path d="M7350 2003 c0 -23 4 -33 9 -27 17 17 17 64 1 64 -5 0 -10 -17 -10
-37z"/>
<path d="M7800 2009 c0 -17 4 -28 10 -24 6 3 10 17 10 31 0 13 -4 24 -10 24
-5 0 -10 -14 -10 -31z"/>
<path d="M8885 2027 c-4 -10 -3 -23 4 -30 16 -16 26 0 14 25 -10 21 -11 22
-18 5z"/>
<path d="M9887 2027 c-11 -29 -9 -53 4 -40 6 6 9 21 7 34 -3 21 -4 22 -11 6z"/>
<path d="M10330 2008 c0 -21 5 -38 10 -38 13 0 13 40 0 60 -7 11 -10 5 -10
-22z"/>
<path d="M6292 1966 c-2 -38 1 -67 7 -71 7 -4 11 17 11 64 0 89 -14 94 -18 7z"/>
<path d="M9692 2007 c-7 -8 -10 -16 -7 -19 3 -2 1 -18 -4 -36 -8 -25 -7 -30 5
-25 8 3 14 15 14 27 0 12 4 26 10 32 5 5 6 15 1 22 -6 10 -10 10 -19 -1z"/>
<path d="M7154 1997 c-2 -7 0 -24 5 -38 5 -13 10 -17 11 -9 0 8 3 25 6 38 7
24 -13 32 -22 9z"/>
<path d="M8430 1985 c0 -8 5 -15 10 -15 6 0 10 7 10 15 0 8 -4 15 -10 15 -5 0
-10 -7 -10 -15z"/>
<path d="M8630 1975 c0 -25 14 -34 24 -16 8 12 -3 41 -15 41 -5 0 -9 -11 -9
-25z"/>
<path d="M9046 1984 c-7 -19 2 -37 15 -29 12 8 12 45 0 45 -5 0 -12 -7 -15
-16z"/>
<path d="M6037 1983 c-10 -9 -8 -51 2 -57 10 -7 21 17 21 45 0 19 -11 25 -23
12z"/>
<path d="M6178 1974 c-5 -4 -8 -23 -8 -43 0 -25 3 -32 11 -24 6 6 9 25 7 43
-2 17 -6 28 -10 24z"/>
<path d="M8850 1938 c0 -19 2 -20 10 -8 13 19 13 30 0 30 -5 0 -10 -10 -10
-22z"/>
<path d="M5366 1943 c-12 -12 -6 -61 9 -67 12 -4 15 3 15 29 0 33 -11 51 -24
38z"/>
<path d="M10358 1907 c-5 -47 -4 -52 11 -42 13 8 15 72 2 79 -5 3 -11 -13 -13
-37z"/>
<path d="M7328 1934 c-5 -4 -8 -23 -8 -43 0 -25 3 -32 11 -24 6 6 9 25 7 43
-2 17 -6 28 -10 24z"/>
<path d="M8462 1923 c5 -25 28 -28 28 -4 0 12 -6 21 -16 21 -9 0 -14 -7 -12
-17z"/>
<path d="M5528 1918 c-6 -18 3 -58 13 -58 12 0 12 57 0 64 -5 4 -11 1 -13 -6z"/>
<path d="M7635 1912 c-6 -22 3 -52 16 -52 12 0 12 57 0 65 -5 3 -12 -3 -16
-13z"/>
<path d="M7838 1924 c-11 -10 -10 -52 1 -59 14 -8 18 6 12 38 -3 16 -9 25 -13
21z"/>
<path d="M8671 1914 c0 -11 3 -14 6 -6 3 7 2 16 -1 19 -3 4 -6 -2 -5 -13z"/>
<path d="M9849 1913 c0 -5 -2 -21 -4 -36 -3 -19 0 -27 8 -24 15 5 22 67 8 67
-6 0 -11 -3 -12 -7z"/>
<path d="M10160 1897 c0 -23 25 -55 35 -45 2 2 1 17 -3 33 -10 37 -32 45 -32
12z"/>
<path d="M7129 1908 c-6 -17 -6 -58 0 -58 12 0 20 49 10 56 -5 3 -10 4 -10 2z"/>
<path d="M9657 1903 c-10 -10 -8 -65 2 -59 5 3 11 19 13 36 4 29 -1 37 -15 23z"/>
<path d="M8816 1884 c-9 -22 -8 -24 9 -24 8 0 15 9 15 20 0 24 -15 27 -24 4z"/>
<path d="M6004 1876 c-8 -21 -1 -49 14 -54 8 -2 12 7 12 27 0 33 -17 51 -26
27z"/>
<path d="M8990 1869 c0 -11 5 -17 10 -14 6 3 10 13 10 21 0 8 -4 14 -10 14 -5
0 -10 -9 -10 -21z"/>
<path d="M8490 1873 c1 -18 18 -35 24 -24 4 6 4 16 1 21 -7 12 -25 13 -25 3z"/>
<path d="M8694 1856 c-6 -17 2 -36 17 -36 12 0 12 37 -1 45 -6 3 -13 -1 -16
-9z"/>
<path d="M5396 1845 c-8 -21 3 -67 15 -59 11 7 11 45 0 62 -7 11 -10 10 -15
-3z"/>
<path d="M6138 1837 c-6 -29 1 -49 13 -41 12 7 12 51 0 58 -5 3 -11 -4 -13
-17z"/>
<path d="M6297 1827 c-6 -16 0 -208 7 -215 4 -3 6 47 6 111 0 113 -2 132 -13
104z"/>
<path d="M5559 1823 c-3 -20 3 -69 9 -75 4 -4 8 10 10 32 1 21 -2 41 -8 45 -5
3 -10 3 -11 -2z"/>
<path d="M7860 1805 c0 -17 5 -25 13 -22 6 2 12 12 12 22 0 10 -6 20 -12 23
-8 2 -13 -6 -13 -23z"/>
<path d="M10196 1807 c-7 -31 1 -54 15 -40 5 5 5 22 0 38 l-8 30 -7 -28z"/>
<path d="M10392 1809 c1 -13 8 -23 13 -21 15 3 12 35 -3 40 -9 3 -13 -3 -10
-19z"/>
<path d="M7297 1813 c-11 -10 -8 -73 3 -73 6 0 10 18 10 40 0 41 -2 45 -13 33z"/>
<path d="M7668 1803 c-6 -22 1 -43 13 -43 5 0 9 14 9 30 0 33 -15 41 -22 13z"/>
<path d="M8530 1801 c0 -11 5 -23 10 -26 6 -3 10 3 10 14 0 11 -4 23 -10 26
-5 3 -10 -3 -10 -14z"/>
<path d="M7097 1803 c-11 -10 -8 -53 3 -53 6 0 10 14 10 30 0 31 -2 35 -13 23z"/>
<path d="M8742 1801 c2 -7 7 -12 11 -12 12 1 9 15 -3 20 -7 2 -11 -2 -8 -8z"/>
<path d="M9814 1795 c-8 -20 3 -48 16 -40 13 8 13 55 0 55 -6 0 -13 -7 -16
-15z"/>
<path d="M9620 1764 c0 -21 4 -33 10 -29 6 3 10 19 10 36 0 16 -4 29 -10 29
-5 0 -10 -16 -10 -36z"/>
<path d="M5971 1763 c0 -10 4 -27 9 -38 7 -16 9 -13 9 18 1 20 -3 37 -9 37 -5
0 -10 -8 -9 -17z"/>
<path d="M8920 1740 c0 -24 15 -27 24 -4 9 22 8 24 -9 24 -8 0 -15 -9 -15 -20z"/>
<path d="M8560 1743 c0 -5 12 -26 25 -48 27 -44 34 -27 9 23 -14 29 -34 43
-34 25z"/>
<path d="M10421 1713 c6 -21 14 -47 19 -58 5 -11 12 -30 15 -42 4 -13 11 -23
16 -23 14 0 10 33 -6 54 -8 11 -15 31 -15 45 -1 24 -20 61 -33 61 -3 0 -1 -17
4 -37z"/>
<path d="M5425 1730 c-9 -14 2 -60 15 -60 12 0 13 40 1 59 -6 10 -10 10 -16 1z"/>
<path d="M6110 1714 c0 -14 4 -23 10 -19 6 3 10 15 10 26 0 10 -4 19 -10 19
-5 0 -10 -12 -10 -26z"/>
<path d="M7900 1711 c0 -17 5 -31 10 -31 6 0 10 11 10 24 0 14 -4 28 -10 31
-6 4 -10 -7 -10 -24z"/>
<path d="M10227 1724 c-10 -18 0 -79 14 -79 10 0 13 9 11 30 -5 36 -17 61 -25
49z"/>
<path d="M7257 1713 c-4 -3 -7 -24 -7 -45 0 -21 -5 -38 -11 -38 -5 0 -7 -5 -4
-10 4 -6 15 -1 26 14 28 35 24 108 -4 79z"/>
<path d="M5590 1680 c0 -28 13 -40 24 -22 7 12 -5 52 -15 52 -5 0 -9 -13 -9
-30z"/>
<path d="M7060 1669 c0 -24 4 -38 10 -34 6 3 10 22 10 41 0 19 -4 34 -10 34
-5 0 -10 -18 -10 -41z"/>
<path d="M7700 1682 c0 -22 4 -32 12 -30 18 6 20 22 3 43 -14 19 -14 18 -15
-13z"/>
<path d="M8890 1690 c0 -23 15 -27 23 -6 3 8 -1 17 -9 20 -9 4 -14 -1 -14 -14z"/>
<path d="M9586 1685 c-8 -31 2 -54 15 -34 11 18 11 59 0 59 -5 0 -12 -11 -15
-25z"/>
<path d="M9782 1675 c-7 -15 -8 -26 -2 -30 15 -9 30 4 30 25 0 29 -16 32 -28
5z"/>
<path d="M5944 1667 c-3 -9 -4 -24 -2 -34 3 -16 5 -15 17 6 9 16 10 26 2 34
-7 7 -12 6 -17 -6z"/>
<path d="M6070 1625 c0 -61 14 -67 24 -10 5 26 3 40 -9 51 -13 14 -15 10 -15
-41z"/>
<path d="M8627 1590 c-4 -32 -6 -183 -4 -336 l2 -277 125 1 125 0 3 326 c2
301 -3 375 -23 299 -3 -15 -5 -156 -4 -313 l2 -285 -102 0 -102 0 1 317 c0
174 -3 319 -8 322 -5 3 -12 -21 -15 -54z"/>
<path d="M7932 1610 c0 -17 4 -30 9 -30 11 0 12 47 1 54 -5 3 -9 -8 -10 -24z"/>
<path d="M5460 1598 c0 -21 5 -38 10 -38 13 0 13 40 0 60 -7 11 -10 5 -10 -22z"/>
<path d="M6303 1555 c0 -27 2 -38 4 -22 2 15 2 37 0 50 -2 12 -4 0 -4 -28z"/>
<path d="M7032 1577 c-15 -35 -15 -57 -2 -57 12 0 23 42 17 67 -3 15 -6 13
-15 -10z"/>
<path d="M5620 1566 c0 -27 15 -42 25 -26 8 13 -3 50 -16 50 -5 0 -9 -11 -9
-24z"/>
<path d="M7264 1579 c-9 -15 37 -19 222 -19 123 0 194 4 194 10 0 6 -8 10 -17
10 -10 0 -103 1 -206 3 -104 1 -191 -1 -193 -4z"/>
<path d="M9847 1583 c-20 -2 -35 -8 -32 -14 4 -5 90 -9 199 -9 160 0 195 3
212 16 10 8 13 12 6 9 -12 -6 -308 -7 -335 -1 -6 1 -29 1 -50 -1z"/>
<path d="M9554 1566 c-4 -10 -2 -22 4 -28 8 -8 13 -7 18 6 4 10 2 22 -4 28 -8
8 -13 7 -18 -6z"/>
<path d="M5918 1564 c-5 -4 -8 -21 -8 -38 1 -26 2 -28 11 -13 11 19 8 63 -3
51z"/>
<path d="M6040 1505 c0 -19 5 -35 10 -35 6 0 10 16 10 35 0 19 -4 35 -10 35
-5 0 -10 -16 -10 -35z"/>
<path d="M7960 1523 c0 -10 5 -25 10 -33 7 -11 10 -7 10 18 0 17 -4 32 -10 32
-5 0 -10 -8 -10 -17z"/>
<path d="M10483 1519 c2 -13 9 -25 16 -27 8 -3 12 4 9 19 -1 12 -9 24 -16 27
-8 2 -11 -4 -9 -19z"/>
<path d="M5490 1491 c0 -32 14 -49 25 -31 9 15 -3 60 -15 60 -6 0 -10 -13 -10
-29z"/>
<path d="M9533 1489 c-16 -16 -17 -59 -3 -59 14 0 22 23 18 50 -2 17 -5 19
-15 9z"/>
<path d="M6995 1467 c-7 -28 1 -51 15 -42 9 5 7 52 -3 62 -3 3 -9 -6 -12 -20z"/>
<path d="M5652 1459 c1 -12 9 -24 16 -27 9 -3 13 3 10 19 -1 12 -9 24 -16 27
-9 3 -13 -3 -10 -19z"/>
<path d="M5883 1449 c-16 -16 -17 -45 -3 -54 13 -8 23 17 18 45 -2 17 -5 19
-15 9z"/>
<path d="M7986 1418 c-8 -33 -8 -38 8 -38 15 0 25 27 19 48 -7 19 -20 14 -27
-10z"/>
<path d="M10520 1411 c0 -17 5 -31 10 -31 6 0 10 11 10 24 0 14 -4 28 -10 31
-6 4 -10 -7 -10 -24z"/>
<path d="M6006 1398 c-7 -34 -3 -44 13 -33 13 7 15 65 2 65 -5 0 -11 -14 -15
-32z"/>
<path d="M7290 1418 c-25 -3 -53 -4 -62 -1 -10 2 -18 0 -18 -5 0 -16 68 -21
318 -22 164 0 242 3 242 10 0 6 -6 13 -12 15 -22 7 -422 10 -468 3z"/>
<path d="M9722 1408 c4 -10 72 -14 291 -15 247 -2 287 0 287 12 0 13 -42 15
-291 15 -228 0 -290 -3 -287 -12z"/>
<path d="M5524 1396 c-8 -21 3 -49 16 -41 5 3 10 15 10 25 0 25 -18 36 -26 16z"/>
<path d="M6962 1359 c2 -19 8 -33 13 -31 15 3 12 55 -3 60 -10 3 -13 -5 -10
-29z"/>
<path d="M9490 1366 c0 -14 5 -28 10 -31 6 -4 10 7 10 24 0 17 -4 31 -10 31
-5 0 -10 -11 -10 -24z"/>
<path d="M7794 1365 c-8 -20 3 -48 16 -40 13 8 13 55 0 55 -6 0 -13 -7 -16
-15z"/>
<path d="M5688 1340 c4 -31 17 -40 25 -17 6 19 -4 47 -17 47 -8 0 -11 -11 -8
-30z"/>
<path d="M7162 1361 c-9 -5 -11 -17 -6 -34 9 -38 24 -33 24 8 0 39 0 38 -18
26z"/>
<path d="M9692 1333 c-12 -39 -7 -57 8 -33 9 14 14 70 7 70 -2 0 -9 -17 -15
-37z"/>
<path d="M10320 1356 c0 -8 5 -18 10 -21 6 -3 10 3 10 14 0 12 -4 21 -10 21
-5 0 -10 -6 -10 -14z"/>
<path d="M5847 1353 c-10 -9 -9 -51 2 -57 11 -7 21 39 11 54 -3 5 -9 7 -13 3z"/>
<path d="M8022 1318 c5 -32 28 -35 28 -4 0 17 -5 26 -16 26 -10 0 -14 -7 -12
-22z"/>
<path d="M10550 1316 c0 -14 4 -27 9 -30 12 -8 22 20 15 39 -9 23 -24 18 -24
-9z"/>
<path d="M5980 1305 c0 -14 5 -25 10 -25 6 0 10 11 10 25 0 14 -4 25 -10 25
-5 0 -10 -11 -10 -25z"/>
<path d="M5550 1283 c0 -10 4 -25 10 -33 8 -12 10 -12 16 3 7 20 -1 47 -16 47
-5 0 -10 -8 -10 -17z"/>
<path d="M10353 1284 c-7 -19 7 -66 22 -71 13 -4 7 75 -6 83 -5 3 -12 -2 -16
-12z"/>
<path d="M6937 1283 c-10 -10 -8 -53 2 -53 5 0 11 14 13 30 4 29 -1 37 -15 23z"/>
<path d="M7830 1258 c0 -21 5 -38 10 -38 13 0 13 40 0 60 -7 11 -10 5 -10 -22z"/>
<path d="M9468 1284 c-5 -4 -8 -21 -8 -38 0 -21 3 -27 11 -19 6 6 9 23 7 38
-2 15 -6 23 -10 19z"/>
<path d="M5720 1253 c0 -10 5 -25 10 -33 8 -12 10 -9 10 12 0 15 -4 30 -10 33
-5 3 -10 -2 -10 -12z"/>
<path d="M7130 1226 c0 -20 5 -36 10 -36 6 0 10 13 10 29 0 17 -4 33 -10 36
-6 4 -10 -8 -10 -29z"/>
<path d="M8050 1237 c0 -23 11 -47 21 -47 15 0 10 37 -6 50 -12 10 -15 10 -15
-3z"/>
<path d="M9654 1226 c-7 -28 2 -49 17 -41 12 8 12 65 -1 65 -5 0 -12 -11 -16
-24z"/>
<path d="M10584 1226 c-8 -21 -1 -49 14 -54 8 -2 12 7 12 27 0 33 -17 51 -26
27z"/>
<path d="M5810 1199 c0 -11 5 -17 10 -14 6 3 10 13 10 21 0 8 -4 14 -10 14 -5
0 -10 -9 -10 -21z"/>
<path d="M5946 1189 c-7 -35 -3 -45 13 -34 13 7 14 35 2 53 -6 10 -10 4 -15
-19z"/>
<path d="M5581 1183 c2 -41 9 -63 20 -63 10 0 12 50 3 74 -10 26 -24 18 -23
-11z"/>
<path d="M10386 1177 c1 -12 3 -32 3 -44 1 -32 18 -29 24 4 6 31 0 50 -17 56
-8 3 -12 -3 -10 -16z"/>
<path d="M6905 1178 c-11 -29 -9 -61 3 -65 8 -3 12 8 12 36 0 41 -6 53 -15 29z"/>
<path d="M7860 1147 c0 -22 6 -37 16 -41 12 -5 15 1 12 31 -4 48 -28 57 -28
10z"/>
<path d="M9426 1154 c-4 -15 -3 -31 3 -37 7 -7 12 -1 17 17 3 15 2 32 -3 37
-7 7 -13 1 -17 -17z"/>
<path d="M7096 1129 c-6 -34 0 -53 15 -44 11 8 12 75 0 75 -5 0 -11 -14 -15
-31z"/>
<path d="M10612 1120 c-8 -20 -8 -32 0 -36 12 -8 28 13 28 38 0 30 -18 29 -28
-2z"/>
<path d="M8090 1110 c0 -18 4 -29 10 -25 6 3 10 15 10 25 0 10 -4 22 -10 25
-6 4 -10 -7 -10 -25z"/>
<path d="M9620 1110 c0 -32 14 -40 24 -14 10 27 7 44 -9 44 -10 0 -15 -10 -15
-30z"/>
<path d="M5916 1087 c-5 -21 -6 -41 -2 -44 12 -12 17 5 14 43 l-4 39 -8 -38z"/>
<path d="M5620 1055 c0 -19 5 -35 10 -35 6 0 10 16 10 35 0 19 -4 35 -10 35
-5 0 -10 -16 -10 -35z"/>
<path d="M7894 1033 c3 -25 7 -48 9 -49 2 -3 206 -6 247 -5 11 1 11 4 2 13 -7
7 -12 22 -12 35 0 13 -6 23 -13 23 -8 0 -13 -10 -13 -22 1 -21 -4 -23 -49 -26
-71 -5 -156 7 -154 21 4 31 -2 57 -12 57 -8 0 -10 -15 -5 -47z"/>
<path d="M10420 1049 c0 -61 11 -67 143 -71 86 -2 117 0 117 9 0 17 -19 26
-33 16 -7 -5 -55 -6 -107 -3 l-95 5 -3 30 c-5 45 -22 56 -22 14z"/>
<path d="M9394 1056 c-4 -10 -2 -22 4 -28 8 -8 13 -7 18 6 4 10 2 22 -4 28 -8
8 -13 7 -18 -6z"/>
<path d="M6870 1040 c0 -11 5 -20 10 -20 6 0 10 9 10 20 0 11 -4 20 -10 20 -5
0 -10 -9 -10 -20z"/>
<path d="M10650 1040 c0 -5 5 -10 11 -10 5 0 7 5 4 10 -3 6 -8 10 -11 10 -2 0
-4 -4 -4 -10z"/>
<path d="M9587 1021 c-4 -16 -15 -19 -66 -20 -33 -1 -67 -2 -73 -3 -7 -1 -22
2 -34 6 -14 4 -26 1 -34 -9 -11 -13 -2 -15 71 -16 46 -1 101 -3 122 -4 41 -2
58 15 38 39 -6 7 -8 16 -4 19 3 4 2 7 -4 7 -6 0 -13 -9 -16 -19z"/>
<path d="M5630 998 c0 -16 26 -19 138 -19 64 0 123 0 130 1 6 0 12 6 12 13 0
9 -35 12 -140 12 -77 0 -140 -3 -140 -7z"/>
<path d="M6851 993 c-9 -7 -14 -13 -11 -13 3 0 60 -2 128 -3 103 -2 122 0 122
13 0 12 -19 15 -111 15 -73 0 -118 -4 -128 -12z"/>
</g>
</svg>
