<?xml version="1.0" standalone="no"?>
<!DOCTYPE svg PUBLIC "-//W3C//DTD SVG 20010904//EN"
 "http://www.w3.org/TR/2001/REC-SVG-20010904/DTD/svg10.dtd">
<svg version="1.0" xmlns="http://www.w3.org/2000/svg"
 width="369.000000pt" height="407.000000pt" viewBox="0 0 369.000000 407.000000"
 preserveAspectRatio="xMidYMid meet">

<g transform="translate(0.000000,407.000000) scale(0.100000,-0.100000)"
fill="#000000" stroke="none">
<path d="M20 2170 c0 -750 3 -940 13 -933 6 4 147 85 312 180 l300 173 5 383
c5 357 6 382 23 385 18 4 753 -414 795 -451 l22 -21 -2 -465 c-3 -463 -3 -466
-24 -469 -12 -2 -148 71 -342 183 l-321 186 -311 -179 c-221 -128 -306 -182
-297 -189 31 -25 1601 -926 1612 -926 14 0 1592 908 1612 927 9 8 -61 53 -284
181 -162 94 -303 174 -312 178 -13 6 -100 -39 -340 -178 -177 -102 -330 -185
-339 -183 -16 3 -17 43 -20 469 l-2 465 22 21 c13 11 193 118 402 238 299 172
382 216 395 208 14 -9 17 -54 21 -388 l5 -379 309 -178 c169 -98 310 -178 312
-178 2 0 4 423 4 940 0 517 -2 940 -5 940 -3 0 -399 -227 -880 -505 -481 -278
-881 -508 -889 -511 -8 -3 -408 222 -889 500 -482 279 -883 509 -891 512 -14
6 -16 -86 -16 -936z"/>
</g>
</svg>
